<svg xmlns="http://www.w3.org/2000/svg" xmlns:xlink="http://www.w3.org/1999/xlink" width="1000" zoomAndPan="magnify" viewBox="0 0 750 374.999991" height="500" preserveAspectRatio="xMidYMid meet" version="1.0"><defs><g/><clipPath id="id1"><path d="M 62 56 L 223 56 L 223 217 L 62 217 Z M 62 56 " clip-rule="nonzero"/></clipPath><clipPath id="id2"><path d="M 24.320312 155.730469 L 112.933594 21.910156 L 246.753906 110.523438 L 158.140625 244.34375 Z M 24.320312 155.730469 " clip-rule="nonzero"/></clipPath><clipPath id="id3"><path d="M 24.320312 155.730469 L 112.933594 21.910156 L 246.753906 110.523438 L 158.140625 244.34375 Z M 24.320312 155.730469 " clip-rule="nonzero"/></clipPath><clipPath id="id4"><path d="M 102 98 L 184 98 L 184 177 L 102 177 Z M 102 98 " clip-rule="nonzero"/></clipPath><clipPath id="id5"><path d="M 24.320312 155.730469 L 112.933594 21.910156 L 246.753906 110.523438 L 158.140625 244.34375 Z M 24.320312 155.730469 " clip-rule="nonzero"/></clipPath><clipPath id="id6"><path d="M 24.320312 155.730469 L 112.933594 21.910156 L 246.753906 110.523438 L 158.140625 244.34375 Z M 24.320312 155.730469 " clip-rule="nonzero"/></clipPath><clipPath id="id7"><path d="M 61 47 L 222 47 L 222 208 L 61 208 Z M 61 47 " clip-rule="nonzero"/></clipPath><clipPath id="id8"><path d="M 23.492188 146.660156 L 112.105469 12.839844 L 245.925781 101.453125 L 157.3125 235.273438 Z M 23.492188 146.660156 " clip-rule="nonzero"/></clipPath><clipPath id="id9"><path d="M 23.492188 146.660156 L 112.105469 12.839844 L 245.925781 101.453125 L 157.3125 235.273438 Z M 23.492188 146.660156 " clip-rule="nonzero"/></clipPath><clipPath id="id10"><path d="M 101 89 L 183 89 L 183 168 L 101 168 Z M 101 89 " clip-rule="nonzero"/></clipPath><clipPath id="id11"><path d="M 23.492188 146.660156 L 112.105469 12.839844 L 245.925781 101.453125 L 157.3125 235.273438 Z M 23.492188 146.660156 " clip-rule="nonzero"/></clipPath><clipPath id="id12"><path d="M 23.492188 146.660156 L 112.105469 12.839844 L 245.925781 101.453125 L 157.3125 235.273438 Z M 23.492188 146.660156 " clip-rule="nonzero"/></clipPath><clipPath id="id13"><path d="M 58 35 L 221 35 L 221 197 L 58 197 Z M 58 35 " clip-rule="nonzero"/></clipPath><clipPath id="id14"><path d="M 20.460938 135.355469 L 109.902344 0.285156 L 244.972656 89.726562 L 155.53125 224.796875 Z M 20.460938 135.355469 " clip-rule="nonzero"/></clipPath><clipPath id="id15"><path d="M 20.460938 135.355469 L 109.902344 0.285156 L 244.972656 89.726562 L 155.53125 224.796875 Z M 20.460938 135.355469 " clip-rule="nonzero"/></clipPath><clipPath id="id16"><path d="M 99 77 L 181 77 L 181 157 L 99 157 Z M 99 77 " clip-rule="nonzero"/></clipPath><clipPath id="id17"><path d="M 20.460938 135.355469 L 109.902344 0.285156 L 244.972656 89.726562 L 155.53125 224.796875 Z M 20.460938 135.355469 " clip-rule="nonzero"/></clipPath><clipPath id="id18"><path d="M 20.460938 135.355469 L 109.902344 0.285156 L 244.972656 89.726562 L 155.53125 224.796875 Z M 20.460938 135.355469 " clip-rule="nonzero"/></clipPath><clipPath id="id19"><path d="M 80.160156 163 L 293 163 L 293 374 L 80.160156 374 Z M 80.160156 163 " clip-rule="nonzero"/></clipPath><clipPath id="id20"><path d="M 73.144531 155 L 286 155 L 286 367 L 73.144531 367 Z M 73.144531 155 " clip-rule="nonzero"/></clipPath><clipPath id="id21"><path d="M 63.085938 146 L 276 146 L 276 358 L 63.085938 358 Z M 63.085938 146 " clip-rule="nonzero"/></clipPath><clipPath id="id22"><path d="M 195 62 L 316 62 L 316 188 L 195 188 Z M 195 62 " clip-rule="nonzero"/></clipPath><clipPath id="id23"><path d="M 178.105469 83.535156 L 294.507812 43.847656 L 334.195312 160.25 L 217.796875 199.9375 Z M 178.105469 83.535156 " clip-rule="nonzero"/></clipPath><clipPath id="id24"><path d="M 178.105469 83.535156 L 294.507812 43.847656 L 334.195312 160.25 L 217.796875 199.9375 Z M 178.105469 83.535156 " clip-rule="nonzero"/></clipPath><clipPath id="id25"><path d="M 225 94 L 286 94 L 286 158 L 225 158 Z M 225 94 " clip-rule="nonzero"/></clipPath><clipPath id="id26"><path d="M 178.105469 83.535156 L 294.507812 43.847656 L 334.195312 160.25 L 217.796875 199.9375 Z M 178.105469 83.535156 " clip-rule="nonzero"/></clipPath><clipPath id="id27"><path d="M 178.105469 83.535156 L 294.507812 43.847656 L 334.195312 160.25 L 217.796875 199.9375 Z M 178.105469 83.535156 " clip-rule="nonzero"/></clipPath><clipPath id="id28"><path d="M 201 64 L 321 64 L 321 190 L 201 190 Z M 201 64 " clip-rule="nonzero"/></clipPath><clipPath id="id29"><path d="M 183.71875 85.734375 L 300.117188 46.042969 L 339.808594 162.445312 L 223.40625 202.132812 Z M 183.71875 85.734375 " clip-rule="nonzero"/></clipPath><clipPath id="id30"><path d="M 183.71875 85.734375 L 300.117188 46.042969 L 339.808594 162.445312 L 223.40625 202.132812 Z M 183.71875 85.734375 " clip-rule="nonzero"/></clipPath><clipPath id="id31"><path d="M 230 96 L 292 96 L 292 160 L 230 160 Z M 230 96 " clip-rule="nonzero"/></clipPath><clipPath id="id32"><path d="M 183.71875 85.734375 L 300.117188 46.042969 L 339.808594 162.445312 L 223.40625 202.132812 Z M 183.71875 85.734375 " clip-rule="nonzero"/></clipPath><clipPath id="id33"><path d="M 183.71875 85.734375 L 300.117188 46.042969 L 339.808594 162.445312 L 223.40625 202.132812 Z M 183.71875 85.734375 " clip-rule="nonzero"/></clipPath><clipPath id="id34"><path d="M 199 62 L 319 62 L 319 188 L 199 188 Z M 199 62 " clip-rule="nonzero"/></clipPath><clipPath id="id35"><path d="M 181.519531 83.535156 L 297.921875 43.847656 L 337.613281 160.25 L 221.210938 199.9375 Z M 181.519531 83.535156 " clip-rule="nonzero"/></clipPath><clipPath id="id36"><path d="M 181.519531 83.535156 L 297.921875 43.847656 L 337.613281 160.25 L 221.210938 199.9375 Z M 181.519531 83.535156 " clip-rule="nonzero"/></clipPath><clipPath id="id37"><path d="M 228 94 L 290 94 L 290 158 L 228 158 Z M 228 94 " clip-rule="nonzero"/></clipPath><clipPath id="id38"><path d="M 181.519531 83.535156 L 297.921875 43.847656 L 337.613281 160.25 L 221.210938 199.9375 Z M 181.519531 83.535156 " clip-rule="nonzero"/></clipPath><clipPath id="id39"><path d="M 181.519531 83.535156 L 297.921875 43.847656 L 337.613281 160.25 L 221.210938 199.9375 Z M 181.519531 83.535156 " clip-rule="nonzero"/></clipPath></defs><g clip-path="url(#id1)"><g clip-path="url(#id2)"><g clip-path="url(#id3)"><path fill="#d8a6e7" d="M 169.597656 60.632812 C 168.019531 59.917969 166.160156 60.261719 164.945312 61.496094 L 159.34375 67.179688 L 156.40625 59.109375 C 155.839844 57.558594 154.402344 56.492188 152.753906 56.398438 C 138.496094 55.605469 127.121094 64.097656 123.773438 78.035156 C 123.015625 81.1875 122.6875 85.421875 122.757812 90.164062 C 118.476562 84.875 114.054688 80.484375 110.402344 78.066406 C 98.902344 70.453125 84.402344 72.242188 74.320312 82.515625 C 73.105469 83.753906 72.792969 85.617188 73.535156 87.183594 L 76.960938 94.390625 L 68.375 94.394531 C 66.722656 94.394531 65.226562 95.378906 64.578125 96.898438 C 58.957031 110.023438 63.046875 123.617188 74.996094 131.53125 C 78.640625 133.941406 84.386719 136.292969 90.902344 138.167969 C 86.550781 139.941406 82.816406 141.882812 80.226562 143.796875 C 68.703125 152.320312 65.324219 166.109375 71.617188 178.925781 C 72.347656 180.410156 73.890625 181.316406 75.539062 181.230469 L 84.113281 180.785156 L 81.070312 188.160156 C 80.40625 189.761719 80.816406 191.609375 82.09375 192.78125 C 92.695312 202.519531 107.269531 203.554688 118.359375 195.351562 C 120.652344 193.65625 123.234375 191.097656 125.859375 188 C 126.132812 191.257812 126.609375 194.144531 127.289062 196.4375 C 131.359375 210.179688 143.160156 218.070312 157.351562 216.539062 C 158.996094 216.363281 160.375 215.222656 160.859375 213.640625 L 163.375 205.429688 L 169.265625 210.816406 C 170.542969 211.984375 172.417969 212.234375 173.957031 211.433594 C 178.835938 208.902344 182.71875 205.390625 185.4375 201.285156 C 189.84375 194.632812 191.195312 186.410156 188.777344 178.234375 C 187.574219 174.167969 184.808594 168.863281 181.179688 163.40625 C 187.617188 164.617188 193.582031 165.09375 197.796875 164.613281 C 206.269531 163.652344 213.308594 159.195312 217.714844 152.542969 C 220.433594 148.4375 222.148438 143.488281 222.574219 138.011719 C 222.710938 136.28125 221.753906 134.652344 220.175781 133.929688 L 212.917969 130.609375 L 219.496094 125.089844 C 220.761719 124.027344 221.273438 122.3125 220.796875 120.730469 C 216.664062 107.066406 204.792969 99.28125 190.550781 100.898438 C 188.179688 101.167969 185.339844 101.855469 182.242188 102.871094 C 184.089844 99.214844 185.449219 95.8125 186.121094 93.019531 C 189.34375 79.609375 182.703125 66.597656 169.597656 60.632812 Z M 169.597656 60.632812 " fill-opacity="1" fill-rule="nonzero"/></g></g></g><g clip-path="url(#id4)"><g clip-path="url(#id5)"><g clip-path="url(#id6)"><path fill="#ffffff" d="M 147.941406 98.570312 C 144.160156 99.339844 141.710938 103.039062 142.480469 106.820312 C 142.695312 107.890625 143.152344 108.847656 143.773438 109.660156 L 140.992188 118.238281 C 136.246094 118.167969 131.550781 119.9375 128.015625 123.3125 L 116.613281 115.761719 C 116.507812 113.609375 115.425781 111.535156 113.496094 110.257812 C 110.277344 108.128906 105.925781 109.011719 103.796875 112.230469 C 101.664062 115.449219 102.550781 119.796875 105.769531 121.929688 C 107.695312 123.207031 110.03125 123.394531 112.050781 122.652344 L 123.480469 130.21875 C 121.804688 134.757812 122.027344 139.71875 123.925781 144.019531 L 114.816406 151.894531 C 112.054688 151.265625 109.070312 152.347656 107.414062 154.84375 C 105.285156 158.0625 106.167969 162.414062 109.386719 164.546875 C 112.605469 166.675781 116.957031 165.792969 119.085938 162.574219 C 119.988281 161.214844 120.34375 159.65625 120.21875 158.148438 L 128.902344 150.640625 C 129.425781 151.078125 129.976562 151.496094 130.558594 151.878906 C 134.121094 154.238281 138.214844 155.183594 142.175781 154.859375 L 146.25 165.890625 C 146.246094 165.890625 146.246094 165.894531 146.246094 165.894531 C 144.113281 169.113281 145 173.464844 148.214844 175.59375 C 151.433594 177.726562 155.785156 176.84375 157.917969 173.625 C 160.046875 170.40625 159.164062 166.054688 155.945312 163.921875 C 155.332031 163.515625 154.675781 163.222656 154 163.03125 L 150.0625 152.355469 C 152.371094 150.992188 154.414062 149.09375 155.992188 146.710938 C 157.566406 144.339844 158.511719 141.730469 158.871094 139.085938 L 170.761719 138.476562 C 172.351562 140.425781 174.945312 141.457031 177.582031 140.921875 C 179.472656 140.535156 181.03125 139.417969 182.019531 137.925781 C 183.007812 136.429688 183.429688 134.558594 183.042969 132.671875 C 182.671875 130.839844 181.609375 129.261719 180.050781 128.226562 C 178.492188 127.195312 176.625 126.832031 174.792969 127.203125 C 174.792969 127.203125 174.792969 127.203125 174.789062 127.203125 C 174.789062 127.203125 174.785156 127.203125 174.785156 127.203125 C 172.957031 127.578125 171.378906 128.640625 170.347656 130.199219 C 170.34375 130.207031 170.339844 130.214844 170.332031 130.226562 L 158.113281 130.851562 C 156.871094 127.058594 154.398438 123.644531 150.824219 121.277344 C 150.238281 120.890625 149.640625 120.542969 149.03125 120.234375 L 151.695312 112.011719 C 153.113281 111.507812 154.328125 110.570312 155.171875 109.292969 C 156.207031 107.734375 156.570312 105.863281 156.195312 104.039062 C 155.824219 102.203125 154.761719 100.625 153.203125 99.59375 C 151.640625 98.558594 149.773438 98.195312 147.941406 98.570312 Z M 147.941406 98.570312 " fill-opacity="1" fill-rule="nonzero"/></g></g></g><g clip-path="url(#id7)"><g clip-path="url(#id8)"><g clip-path="url(#id9)"><path fill="#bf90d8" d="M 168.769531 51.5625 C 167.191406 50.847656 165.332031 51.191406 164.113281 52.425781 L 158.511719 58.109375 L 155.574219 50.039062 C 155.007812 48.488281 153.574219 47.421875 151.921875 47.328125 C 137.667969 46.535156 126.292969 55.027344 122.941406 68.964844 C 122.183594 72.117188 121.855469 76.351562 121.929688 81.09375 C 117.648438 75.804688 113.222656 71.414062 109.570312 68.996094 C 98.074219 61.382812 83.574219 63.171875 73.488281 73.445312 C 72.273438 74.683594 71.964844 76.546875 72.707031 78.113281 L 76.132812 85.320312 L 67.542969 85.324219 C 65.890625 85.324219 64.398438 86.308594 63.746094 87.828125 C 58.125 100.953125 62.214844 114.546875 74.167969 122.460938 C 77.808594 124.871094 83.558594 127.222656 90.070312 129.097656 C 85.71875 130.871094 81.984375 132.8125 79.394531 134.726562 C 67.871094 143.25 64.492188 157.039062 70.789062 169.855469 C 71.515625 171.339844 73.058594 172.246094 74.710938 172.160156 L 83.285156 171.714844 L 80.238281 179.089844 C 79.578125 180.691406 79.984375 182.539062 81.261719 183.710938 C 91.867188 193.449219 106.441406 194.484375 117.527344 186.28125 C 119.824219 184.585938 122.40625 182.027344 125.03125 178.929688 C 125.304688 182.183594 125.78125 185.074219 126.460938 187.367188 C 130.527344 201.109375 142.328125 209 156.523438 207.46875 C 158.167969 207.292969 159.546875 206.152344 160.03125 204.570312 L 162.546875 196.359375 L 168.433594 201.746094 C 169.714844 202.914062 171.589844 203.160156 173.125 202.363281 C 178.003906 199.832031 181.886719 196.320312 184.609375 192.214844 C 189.015625 185.5625 190.367188 177.339844 187.945312 169.164062 C 186.742188 165.097656 183.976562 159.792969 180.351562 154.335938 C 186.789062 155.546875 192.75 156.023438 196.96875 155.542969 C 205.4375 154.582031 212.476562 150.125 216.882812 143.472656 C 219.601562 139.367188 221.320312 134.417969 221.746094 128.9375 C 221.882812 127.210938 220.921875 125.582031 219.347656 124.859375 L 212.089844 121.539062 L 218.667969 116.019531 C 219.933594 114.957031 220.441406 113.242188 219.964844 111.660156 C 215.835938 97.992188 203.964844 90.210938 189.722656 91.828125 C 187.351562 92.097656 184.511719 92.785156 181.414062 93.800781 C 183.257812 90.144531 184.621094 86.742188 185.292969 83.949219 C 188.515625 70.539062 181.875 57.527344 168.769531 51.5625 Z M 168.769531 51.5625 " fill-opacity="1" fill-rule="nonzero"/></g></g></g><g clip-path="url(#id10)"><g clip-path="url(#id11)"><g clip-path="url(#id12)"><path fill="#ffffff" d="M 147.109375 89.5 C 143.332031 90.269531 140.878906 93.96875 141.648438 97.75 C 141.867188 98.820312 142.324219 99.777344 142.945312 100.589844 L 140.160156 109.167969 C 135.414062 109.097656 130.71875 110.863281 127.1875 114.242188 L 115.785156 106.691406 C 115.679688 104.539062 114.597656 102.464844 112.667969 101.1875 C 109.449219 99.054688 105.097656 99.941406 102.964844 103.160156 C 100.835938 106.375 101.71875 110.726562 104.9375 112.859375 C 106.867188 114.136719 109.199219 114.324219 111.222656 113.582031 L 122.652344 121.148438 C 120.972656 125.6875 121.195312 130.648438 123.097656 134.949219 L 113.988281 142.824219 C 111.226562 142.195312 108.238281 143.277344 106.585938 145.773438 C 104.457031 148.992188 105.339844 153.34375 108.558594 155.476562 C 111.777344 157.605469 116.125 156.722656 118.257812 153.503906 C 119.15625 152.144531 119.511719 150.585938 119.390625 149.078125 L 128.074219 141.570312 C 128.597656 142.007812 129.148438 142.425781 129.730469 142.808594 C 133.292969 145.167969 137.386719 146.113281 141.347656 145.789062 L 145.417969 156.820312 C 145.417969 156.820312 145.417969 156.824219 145.414062 156.824219 C 143.285156 160.042969 144.167969 164.394531 147.386719 166.523438 C 150.605469 168.65625 154.957031 167.773438 157.085938 164.554688 C 159.21875 161.335938 158.332031 156.984375 155.117188 154.851562 C 154.5 154.445312 153.84375 154.152344 153.171875 153.960938 L 149.230469 143.285156 C 151.542969 141.921875 153.585938 140.023438 155.164062 137.640625 C 156.734375 135.269531 157.679688 132.660156 158.042969 130.015625 L 169.929688 129.40625 C 171.523438 131.355469 174.117188 132.386719 176.753906 131.851562 C 178.644531 131.464844 180.199219 130.347656 181.1875 128.855469 C 182.179688 127.359375 182.597656 125.488281 182.214844 123.601562 C 181.84375 121.769531 180.78125 120.191406 179.21875 119.15625 C 177.660156 118.125 175.796875 117.761719 173.964844 118.132812 C 173.964844 118.132812 173.960938 118.132812 173.960938 118.132812 C 173.960938 118.132812 173.957031 118.132812 173.957031 118.132812 C 172.125 118.507812 170.550781 119.570312 169.519531 121.128906 C 169.511719 121.136719 169.507812 121.144531 169.503906 121.15625 L 157.285156 121.78125 C 156.042969 117.988281 153.570312 114.574219 149.996094 112.207031 C 149.410156 111.820312 148.808594 111.472656 148.199219 111.164062 L 150.867188 102.941406 C 152.285156 102.4375 153.496094 101.5 154.34375 100.222656 C 155.375 98.664062 155.738281 96.792969 155.367188 94.96875 C 154.996094 93.132812 153.933594 91.554688 152.371094 90.523438 C 150.8125 89.488281 148.945312 89.125 147.109375 89.5 Z M 147.109375 89.5 " fill-opacity="1" fill-rule="nonzero"/></g></g></g><g clip-path="url(#id13)"><g clip-path="url(#id14)"><g clip-path="url(#id15)"><path fill="#ffabd1" d="M 167.09375 39.371094 C 165.5 38.648438 163.625 38.992188 162.398438 40.238281 L 156.742188 45.976562 L 153.777344 37.832031 C 153.207031 36.265625 151.757812 35.1875 150.089844 35.097656 C 135.703125 34.296875 124.222656 42.867188 120.839844 56.933594 C 120.074219 60.117188 119.742188 64.390625 119.816406 69.175781 C 115.496094 63.839844 111.03125 59.40625 107.34375 56.964844 C 95.738281 49.28125 81.105469 51.085938 70.925781 61.457031 C 69.699219 62.707031 69.382812 64.589844 70.136719 66.167969 L 73.589844 73.445312 L 64.925781 73.445312 C 63.257812 73.445312 61.75 74.441406 61.09375 75.972656 C 55.417969 89.21875 59.546875 102.941406 71.609375 110.929688 C 75.285156 113.363281 81.085938 115.738281 87.660156 117.628906 C 83.269531 119.417969 79.5 121.378906 76.886719 123.3125 C 65.253906 131.914062 61.84375 145.832031 68.199219 158.765625 C 68.933594 160.265625 70.492188 161.179688 72.15625 161.09375 L 80.8125 160.644531 L 77.738281 168.089844 C 77.070312 169.707031 77.480469 171.570312 78.769531 172.753906 C 89.472656 182.582031 104.183594 183.625 115.375 175.347656 C 117.691406 173.632812 120.296875 171.050781 122.949219 167.929688 C 123.226562 171.214844 123.707031 174.128906 124.390625 176.441406 C 128.496094 190.316406 140.40625 198.28125 154.734375 196.734375 C 156.394531 196.554688 157.785156 195.402344 158.273438 193.808594 L 160.8125 185.523438 L 166.757812 190.957031 C 168.050781 192.136719 169.941406 192.386719 171.492188 191.578125 C 176.417969 189.023438 180.335938 185.480469 183.082031 181.335938 C 187.527344 174.621094 188.894531 166.324219 186.453125 158.070312 C 185.238281 153.964844 182.445312 148.609375 178.785156 143.105469 C 185.28125 144.328125 191.300781 144.804688 195.554688 144.324219 C 204.105469 143.351562 211.210938 138.855469 215.660156 132.140625 C 218.402344 127.992188 220.136719 123 220.566406 117.46875 C 220.703125 115.726562 219.734375 114.082031 218.144531 113.355469 L 210.820312 110.003906 L 217.457031 104.429688 C 218.738281 103.359375 219.25 101.628906 218.769531 100.03125 C 214.601562 86.234375 202.617188 78.378906 188.242188 80.011719 C 185.851562 80.285156 182.984375 80.980469 179.859375 82.003906 C 181.71875 78.3125 183.09375 74.878906 183.773438 72.058594 C 187.023438 58.523438 180.320312 45.386719 167.09375 39.371094 Z M 167.09375 39.371094 " fill-opacity="1" fill-rule="nonzero"/></g></g></g><g clip-path="url(#id16)"><g clip-path="url(#id17)"><g clip-path="url(#id18)"><path fill="#ffffff" d="M 145.234375 77.660156 C 141.417969 78.4375 138.945312 82.175781 139.722656 85.992188 C 139.941406 87.066406 140.402344 88.035156 141.027344 88.855469 L 138.21875 97.515625 C 133.429688 97.445312 128.691406 99.226562 125.125 102.636719 L 113.613281 95.011719 C 113.507812 92.84375 112.414062 90.746094 110.46875 89.457031 C 107.21875 87.308594 102.828125 88.199219 100.675781 91.449219 C 98.527344 94.695312 99.417969 99.089844 102.667969 101.238281 C 104.613281 102.527344 106.96875 102.714844 109.007812 101.96875 L 120.546875 109.605469 C 118.851562 114.1875 119.078125 119.191406 120.996094 123.535156 L 111.800781 131.484375 C 109.015625 130.847656 106 131.945312 104.332031 134.460938 C 102.179688 137.710938 103.074219 142.101562 106.320312 144.253906 C 109.570312 146.40625 113.960938 145.511719 116.113281 142.265625 C 117.019531 140.894531 117.378906 139.320312 117.253906 137.796875 L 126.019531 130.21875 C 126.546875 130.660156 127.101562 131.082031 127.691406 131.46875 C 131.289062 133.851562 135.417969 134.804688 139.417969 134.476562 L 143.527344 145.609375 C 143.523438 145.613281 143.523438 145.613281 143.523438 145.617188 C 141.371094 148.863281 142.265625 153.257812 145.511719 155.40625 C 148.761719 157.558594 153.152344 156.664062 155.304688 153.417969 C 157.453125 150.167969 156.5625 145.777344 153.3125 143.625 C 152.691406 143.214844 152.03125 142.917969 151.351562 142.722656 L 147.375 131.953125 C 149.707031 130.570312 151.769531 128.660156 153.363281 126.253906 C 154.949219 123.859375 155.902344 121.226562 156.265625 118.554688 L 168.265625 117.941406 C 169.875 119.910156 172.492188 120.949219 175.152344 120.410156 C 177.0625 120.019531 178.632812 118.890625 179.628906 117.382812 C 180.628906 115.875 181.054688 113.988281 180.667969 112.082031 C 180.292969 110.230469 179.21875 108.636719 177.644531 107.597656 C 176.070312 106.554688 174.1875 106.1875 172.339844 106.5625 C 172.335938 106.5625 172.335938 106.5625 172.335938 106.5625 C 172.335938 106.5625 172.332031 106.5625 172.332031 106.5625 C 170.484375 106.941406 168.894531 108.011719 167.851562 109.585938 C 167.847656 109.59375 167.839844 109.605469 167.835938 109.613281 L 155.503906 110.242188 C 154.25 106.417969 151.753906 102.972656 148.144531 100.582031 C 147.554688 100.191406 146.949219 99.839844 146.332031 99.527344 L 149.023438 91.226562 C 150.457031 90.71875 151.679688 89.773438 152.535156 88.484375 C 153.578125 86.910156 153.945312 85.023438 153.566406 83.179688 C 153.191406 81.328125 152.117188 79.738281 150.542969 78.695312 C 148.972656 77.648438 147.085938 77.285156 145.234375 77.660156 Z M 145.234375 77.660156 " fill-opacity="1" fill-rule="nonzero"/></g></g></g><g clip-path="url(#id19)"><path fill="#98909b" d="M 291.851562 253.121094 C 291.488281 250.847656 289.746094 249.042969 287.488281 248.601562 L 277.09375 246.570312 L 283.871094 237.40625 C 285.175781 235.640625 285.300781 233.269531 284.195312 231.375 C 274.625 215.019531 256.894531 208.65625 239.015625 215.164062 C 234.96875 216.632812 230.042969 219.375 224.851562 222.925781 C 227.566406 214.316406 229.183594 206.203125 229.183594 200.386719 C 229.183594 182.085938 216.578125 167.351562 197.816406 163.71875 C 195.558594 163.285156 193.265625 164.304688 192.078125 166.273438 L 186.613281 175.34375 L 180.316406 165.84375 C 179.105469 164.015625 176.921875 163.085938 174.765625 163.476562 C 156.121094 166.875 144.074219 181.363281 144.074219 200.386719 C 144.074219 206.183594 145.683594 214.269531 148.382812 222.851562 C 143.234375 219.335938 138.347656 216.625 134.332031 215.164062 C 116.453125 208.65625 98.71875 215.019531 89.152344 231.375 C 88.042969 233.269531 88.171875 235.640625 89.476562 237.40625 L 96.25 246.570312 L 85.855469 248.601562 C 83.597656 249.046875 81.855469 250.851562 81.492188 253.121094 C 78.488281 271.992188 88.023438 288.878906 105.222656 295.136719 C 108.785156 296.433594 113.503906 297.414062 118.855469 298.054688 C 115.453125 300.742188 112.605469 303.386719 110.566406 305.816406 C 98.339844 320.390625 98.253906 339.230469 110.351562 353.816406 C 111.753906 355.503906 114.023438 356.195312 116.128906 355.574219 L 127.054688 352.339844 L 125.414062 362.804688 C 125.054688 365.078125 126.15625 367.332031 128.167969 368.449219 C 134.546875 371.992188 141.273438 373.714844 147.816406 373.714844 C 158.402344 373.714844 168.492188 369.1875 175.765625 360.523438 C 179.386719 356.207031 183.230469 349.261719 186.609375 341.25 C 189.984375 349.261719 193.828125 356.207031 197.449219 360.523438 C 204.722656 369.191406 214.808594 373.71875 225.402344 373.714844 C 231.941406 373.714844 238.671875 371.992188 245.046875 368.449219 C 247.058594 367.332031 248.160156 365.078125 247.800781 362.804688 L 246.160156 352.339844 L 257.085938 355.574219 C 259.191406 356.195312 261.460938 355.503906 262.863281 353.816406 C 274.960938 339.230469 274.875 320.390625 262.648438 305.816406 C 260.613281 303.390625 257.769531 300.75 254.375 298.066406 C 259.773438 297.429688 264.539062 296.445312 268.125 295.136719 C 285.320312 288.878906 294.859375 271.992188 291.851562 253.121094 Z M 291.851562 253.121094 " fill-opacity="1" fill-rule="nonzero"/></g><path fill="#ffffff" d="M 234 256.953125 C 230.378906 253.335938 224.488281 253.335938 220.867188 256.957031 C 219.84375 257.980469 219.121094 259.1875 218.675781 260.46875 L 207.140625 263.675781 C 203.742188 258.375 198.347656 254.472656 192.019531 253.035156 L 192.019531 234.882812 C 194.324219 233.191406 195.828125 230.472656 195.828125 227.402344 C 195.828125 222.28125 191.660156 218.113281 186.539062 218.113281 C 181.414062 218.113281 177.246094 222.28125 177.246094 227.402344 C 177.246094 230.472656 178.75 233.191406 181.054688 234.882812 L 181.054688 253.078125 C 174.804688 254.546875 169.476562 258.429688 166.109375 263.683594 L 150.71875 259.375 C 149.390625 255.859375 146.003906 253.347656 142.03125 253.347656 C 136.90625 253.347656 132.738281 257.515625 132.738281 262.636719 C 132.738281 267.757812 136.90625 271.925781 142.03125 271.925781 C 144.191406 271.925781 146.175781 271.179688 147.757812 269.933594 L 162.429688 274.042969 C 162.328125 274.945312 162.269531 275.859375 162.269531 276.785156 C 162.269531 282.457031 164.226562 287.679688 167.488281 291.824219 L 158.261719 304.414062 C 158.261719 304.414062 158.257812 304.414062 158.253906 304.414062 C 153.132812 304.414062 148.964844 308.578125 148.964844 313.703125 C 148.964844 318.824219 153.132812 322.992188 158.253906 322.992188 C 163.378906 322.992188 167.542969 318.824219 167.542969 313.703125 C 167.542969 312.722656 167.390625 311.78125 167.109375 310.894531 L 176.03125 298.714844 C 179.238281 300.269531 182.832031 301.144531 186.628906 301.144531 C 190.40625 301.144531 193.984375 300.28125 197.175781 298.738281 L 206.5625 311.449219 C 205.570312 314.640625 206.332031 318.265625 208.855469 320.789062 C 210.667969 322.601562 213.042969 323.503906 215.421875 323.503906 C 217.800781 323.503906 220.179688 322.597656 221.988281 320.789062 C 223.742188 319.035156 224.710938 316.703125 224.710938 314.21875 C 224.710938 311.738281 223.746094 309.40625 221.992188 307.652344 C 221.992188 307.652344 221.992188 307.648438 221.988281 307.648438 C 221.988281 307.648438 221.988281 307.648438 221.988281 307.644531 C 221.984375 307.644531 221.984375 307.644531 221.984375 307.644531 C 220.230469 305.894531 217.902344 304.929688 215.421875 304.929688 C 215.40625 304.929688 215.394531 304.929688 215.378906 304.929688 L 205.734375 291.867188 C 209.019531 287.714844 210.984375 282.476562 210.984375 276.785156 C 210.984375 275.855469 210.929688 274.9375 210.828125 274.035156 L 221.878906 270.960938 C 223.476562 272.15625 225.402344 272.816406 227.433594 272.816406 C 229.917969 272.816406 232.25 271.847656 234 270.097656 C 235.757812 268.34375 236.722656 266.007812 236.722656 263.523438 C 236.726562 261.042969 235.757812 258.710938 234 256.953125 Z M 234 256.953125 " fill-opacity="1" fill-rule="nonzero"/><g clip-path="url(#id20)"><path fill="#4c3e54" d="M 284.835938 245.488281 C 284.472656 243.214844 282.730469 241.410156 280.472656 240.96875 L 270.078125 238.933594 L 276.851562 229.773438 C 278.15625 228.007812 278.285156 225.636719 277.175781 223.742188 C 267.609375 207.386719 249.875 201.023438 231.996094 207.527344 C 227.953125 209 223.027344 211.742188 217.835938 215.292969 C 220.546875 206.683594 222.167969 198.570312 222.167969 192.753906 C 222.167969 174.453125 209.5625 159.71875 190.800781 156.085938 C 188.539062 155.652344 186.25 156.671875 185.0625 158.640625 L 179.59375 167.710938 L 173.300781 158.210938 C 172.089844 156.382812 169.90625 155.453125 167.746094 155.84375 C 149.105469 159.242188 137.058594 173.730469 137.058594 192.753906 C 137.058594 198.550781 138.667969 206.636719 141.367188 215.21875 C 136.214844 211.703125 131.328125 208.992188 127.3125 207.53125 C 109.4375 201.023438 91.703125 207.386719 82.132812 223.742188 C 81.027344 225.636719 81.152344 228.007812 82.457031 229.773438 L 89.234375 238.9375 L 78.839844 240.96875 C 76.582031 241.414062 74.839844 243.214844 74.476562 245.488281 C 71.46875 264.359375 81.007812 281.246094 98.203125 287.503906 C 101.765625 288.800781 106.488281 289.78125 111.839844 290.421875 C 108.4375 293.109375 105.589844 295.753906 103.550781 298.183594 C 91.320312 312.757812 91.238281 331.597656 103.335938 346.183594 C 104.734375 347.871094 107.007812 348.5625 109.113281 347.941406 L 120.039062 344.707031 L 118.398438 355.171875 C 118.039062 357.445312 119.140625 359.699219 121.152344 360.816406 C 127.527344 364.359375 134.257812 366.082031 140.796875 366.082031 C 151.386719 366.082031 161.476562 361.554688 168.75 352.890625 C 172.371094 348.574219 176.214844 341.628906 179.589844 333.617188 C 182.96875 341.628906 186.8125 348.574219 190.433594 352.890625 C 197.707031 361.558594 207.792969 366.085938 218.382812 366.082031 C 224.921875 366.082031 231.65625 364.359375 238.03125 360.816406 C 240.042969 359.699219 241.140625 357.445312 240.785156 355.171875 L 239.144531 344.707031 L 250.070312 347.941406 C 252.175781 348.5625 254.445312 347.871094 255.847656 346.183594 C 267.945312 331.597656 267.859375 312.757812 255.628906 298.183594 C 253.597656 295.757812 250.753906 293.117188 247.359375 290.433594 C 252.757812 289.796875 257.519531 288.8125 261.109375 287.503906 C 278.304688 281.246094 287.839844 264.359375 284.835938 245.488281 Z M 284.835938 245.488281 " fill-opacity="1" fill-rule="nonzero"/></g><path fill="#ffffff" d="M 226.984375 249.320312 C 223.363281 245.703125 217.472656 245.703125 213.851562 249.324219 C 212.828125 250.347656 212.105469 251.554688 211.660156 252.835938 L 200.125 256.042969 C 196.726562 250.742188 191.328125 246.839844 185.003906 245.402344 L 185.003906 227.25 C 187.304688 225.558594 188.808594 222.839844 188.808594 219.769531 C 188.808594 214.648438 184.644531 210.480469 179.519531 210.480469 C 174.398438 210.480469 170.230469 214.648438 170.230469 219.769531 C 170.230469 222.839844 171.734375 225.558594 174.039062 227.25 L 174.039062 245.445312 C 167.789062 246.914062 162.460938 250.796875 159.09375 256.050781 L 143.699219 251.742188 C 142.375 248.226562 138.984375 245.714844 135.011719 245.714844 C 129.890625 245.714844 125.722656 249.878906 125.722656 255.003906 C 125.722656 260.125 129.890625 264.292969 135.011719 264.292969 C 137.175781 264.292969 139.160156 263.546875 140.742188 262.300781 L 155.414062 266.410156 C 155.3125 267.3125 155.253906 268.226562 155.253906 269.152344 C 155.253906 274.824219 157.207031 280.046875 160.472656 284.191406 L 151.246094 296.78125 C 151.242188 296.78125 151.242188 296.78125 151.238281 296.78125 C 146.117188 296.78125 141.949219 300.945312 141.949219 306.070312 C 141.949219 311.191406 146.117188 315.359375 151.238281 315.359375 C 156.359375 315.359375 160.527344 311.191406 160.527344 306.070312 C 160.527344 305.089844 160.375 304.148438 160.09375 303.261719 L 169.015625 291.082031 C 172.222656 292.636719 175.816406 293.511719 179.613281 293.511719 C 183.386719 293.511719 186.964844 292.648438 190.160156 291.105469 L 199.542969 303.816406 C 198.550781 307.007812 199.3125 310.632812 201.839844 313.15625 C 203.648438 314.96875 206.027344 315.871094 208.40625 315.871094 C 210.78125 315.871094 213.160156 314.964844 214.96875 313.15625 C 216.726562 311.402344 217.695312 309.070312 217.695312 306.585938 C 217.695312 304.105469 216.730469 301.773438 214.976562 300.019531 C 214.976562 300.019531 214.972656 300.015625 214.972656 300.015625 C 214.972656 300.015625 214.972656 300.015625 214.96875 300.011719 C 213.214844 298.261719 210.882812 297.296875 208.402344 297.296875 C 208.390625 297.296875 208.375 297.296875 208.363281 297.296875 L 198.71875 284.234375 C 202 280.082031 203.96875 274.84375 203.96875 269.152344 C 203.96875 268.222656 203.910156 267.304688 203.808594 266.402344 L 214.863281 263.328125 C 216.460938 264.523438 218.386719 265.183594 220.417969 265.183594 C 222.902344 265.183594 225.234375 264.214844 226.984375 262.464844 C 228.742188 260.710938 229.707031 258.375 229.707031 255.890625 C 229.710938 253.410156 228.742188 251.074219 226.984375 249.320312 Z M 226.984375 249.320312 " fill-opacity="1" fill-rule="nonzero"/><g clip-path="url(#id21)"><path fill="#fe7ab6" d="M 274.777344 236.519531 C 274.414062 234.25 272.671875 232.445312 270.414062 232.003906 L 260.019531 229.96875 L 266.796875 220.804688 C 268.101562 219.039062 268.226562 216.667969 267.121094 214.777344 C 257.550781 198.417969 239.816406 192.054688 221.941406 198.5625 C 217.894531 200.035156 212.96875 202.773438 207.777344 206.324219 C 210.488281 197.714844 212.109375 189.601562 212.109375 183.789062 C 212.109375 165.484375 199.503906 150.75 180.742188 147.121094 C 178.480469 146.683594 176.191406 147.703125 175.003906 149.671875 L 169.535156 158.746094 L 163.242188 149.242188 C 162.03125 147.414062 159.847656 146.484375 157.6875 146.878906 C 139.046875 150.273438 127 164.761719 127 183.789062 C 127 189.585938 128.609375 197.667969 131.308594 206.25 C 126.15625 202.734375 121.273438 200.023438 117.253906 198.5625 C 99.378906 192.054688 81.644531 198.417969 72.074219 214.777344 C 70.96875 216.667969 71.09375 219.039062 72.398438 220.804688 L 79.175781 229.96875 L 68.78125 232.003906 C 66.523438 232.445312 64.78125 234.25 64.417969 236.519531 C 61.414062 255.394531 70.949219 272.277344 88.148438 278.539062 C 91.707031 279.835938 96.429688 280.816406 101.78125 281.453125 C 98.378906 284.140625 95.53125 286.785156 93.492188 289.214844 C 81.265625 303.789062 81.179688 322.632812 93.277344 337.214844 C 94.679688 338.902344 96.949219 339.59375 99.054688 338.972656 L 109.980469 335.738281 L 108.339844 346.203125 C 107.980469 348.476562 109.082031 350.730469 111.09375 351.847656 C 117.472656 355.390625 124.199219 357.117188 130.738281 357.117188 C 141.328125 357.117188 151.417969 352.589844 158.691406 343.921875 C 162.3125 339.605469 166.15625 332.660156 169.53125 324.648438 C 172.910156 332.660156 176.753906 339.605469 180.375 343.921875 C 187.648438 352.589844 197.734375 357.117188 208.328125 357.117188 C 214.863281 357.117188 221.597656 355.390625 227.972656 351.847656 C 229.984375 350.730469 231.085938 348.476562 230.726562 346.203125 L 229.085938 335.738281 L 240.011719 338.972656 C 242.117188 339.59375 244.386719 338.902344 245.789062 337.214844 C 257.886719 322.628906 257.800781 303.789062 245.574219 289.214844 C 243.539062 286.789062 240.695312 284.152344 237.300781 281.464844 C 242.699219 280.828125 247.460938 279.84375 251.050781 278.539062 C 268.246094 272.277344 277.78125 255.390625 274.777344 236.519531 Z M 274.777344 236.519531 " fill-opacity="1" fill-rule="nonzero"/></g><path fill="#ffffff" d="M 216.925781 240.355469 C 213.304688 236.734375 207.414062 236.734375 203.792969 240.355469 C 202.769531 241.378906 202.046875 242.585938 201.601562 243.867188 L 190.066406 247.078125 C 186.667969 241.773438 181.273438 237.871094 174.945312 236.4375 L 174.945312 218.285156 C 177.25 216.589844 178.753906 213.871094 178.753906 210.800781 C 178.753906 205.679688 174.585938 201.511719 169.460938 201.511719 C 164.339844 201.511719 160.171875 205.679688 160.171875 210.800781 C 160.171875 213.871094 161.675781 216.589844 163.980469 218.285156 L 163.980469 236.476562 C 157.730469 237.949219 152.402344 241.828125 149.035156 247.085938 L 133.640625 242.773438 C 132.316406 239.257812 128.929688 236.746094 124.953125 236.746094 C 119.832031 236.746094 115.664062 240.914062 115.664062 246.035156 C 115.664062 251.15625 119.832031 255.324219 124.953125 255.324219 C 127.117188 255.324219 129.101562 254.578125 130.683594 253.335938 L 145.355469 257.441406 C 145.253906 258.34375 145.195312 259.257812 145.195312 260.183594 C 145.195312 265.855469 147.148438 271.078125 150.414062 275.222656 L 141.1875 287.8125 C 141.1875 287.8125 141.183594 287.8125 141.179688 287.8125 C 136.058594 287.8125 131.890625 291.980469 131.890625 297.101562 C 131.890625 302.222656 136.058594 306.390625 141.179688 306.390625 C 146.304688 306.390625 150.46875 302.222656 150.46875 297.101562 C 150.46875 296.125 150.316406 295.179688 150.035156 294.292969 L 158.957031 282.113281 C 162.164062 283.667969 165.757812 284.542969 169.554688 284.542969 C 173.332031 284.542969 176.910156 283.679688 180.101562 282.140625 L 189.484375 294.847656 C 188.496094 298.039062 189.257812 301.664062 191.78125 304.191406 C 193.59375 306 195.96875 306.902344 198.347656 306.902344 C 200.726562 306.902344 203.101562 306 204.910156 304.191406 C 206.667969 302.433594 207.636719 300.101562 207.636719 297.617188 C 207.636719 295.136719 206.671875 292.804688 204.917969 291.050781 C 204.917969 291.050781 204.917969 291.050781 204.914062 291.046875 C 204.914062 291.046875 204.914062 291.046875 204.910156 291.046875 C 203.15625 289.292969 200.824219 288.328125 198.347656 288.328125 C 198.332031 288.328125 198.320312 288.328125 198.304688 288.328125 L 188.660156 275.265625 C 191.945312 271.113281 193.910156 265.875 193.910156 260.183594 C 193.910156 259.253906 193.855469 258.335938 193.75 257.433594 L 204.804688 254.359375 C 206.402344 255.558594 208.328125 256.214844 210.359375 256.214844 C 212.84375 256.214844 215.175781 255.246094 216.925781 253.496094 C 218.683594 251.742188 219.648438 249.40625 219.648438 246.925781 C 219.652344 244.441406 218.683594 242.109375 216.925781 240.351562 Z M 216.925781 240.355469 " fill-opacity="1" fill-rule="nonzero"/><g fill="#ff00ff" fill-opacity="1"><g transform="translate(210.525934, 266.688345)"><g><path d="M 7.109375 -25.109375 L 28.859375 -27.28125 C 28.859375 -24.90625 30.078125 -22.660156 32.515625 -20.546875 C 34.953125 -18.441406 38.675781 -17.390625 43.6875 -17.390625 C 48.03125 -17.390625 51.382812 -18.476562 53.75 -20.65625 C 56.125 -22.832031 57.3125 -25.367188 57.3125 -28.265625 C 57.3125 -32.085938 55.765625 -35.148438 52.671875 -37.453125 C 49.578125 -39.765625 45.789062 -41.609375 41.3125 -42.984375 C 36.832031 -44.367188 32.316406 -45.953125 27.765625 -47.734375 C 23.222656 -49.515625 19.203125 -52.445312 15.703125 -56.53125 C 12.210938 -60.613281 10.140625 -65.816406 9.484375 -72.140625 C 9.359375 -72.929688 9.296875 -73.722656 9.296875 -74.515625 C 9.296875 -80.972656 11.863281 -86.90625 17 -92.3125 C 22.53125 -98.363281 31.289062 -101.390625 43.28125 -101.390625 C 47.5 -101.390625 51.453125 -100.894531 55.140625 -99.90625 C 58.835938 -98.925781 61.472656 -97.972656 63.046875 -97.046875 L 65.421875 -95.671875 L 59.09375 -75.5 C 56.0625 -78.53125 50.789062 -80.046875 43.28125 -80.046875 C 39.59375 -80.046875 36.859375 -79.519531 35.078125 -78.46875 C 33.304688 -77.414062 32.519531 -76.257812 32.71875 -75 C 32.914062 -73.75 33.015625 -72.664062 33.015625 -71.75 C 33.398438 -69.769531 35.335938 -67.957031 38.828125 -66.3125 C 42.328125 -64.664062 46.316406 -63.050781 50.796875 -61.46875 C 55.273438 -59.882812 59.753906 -57.90625 64.234375 -55.53125 C 68.710938 -53.164062 72.5 -49.609375 75.59375 -44.859375 C 78.695312 -40.117188 80.25 -34.457031 80.25 -27.875 C 80.25 -19.300781 77.148438 -12.015625 70.953125 -6.015625 C 64.765625 -0.0234375 55.675781 2.96875 43.6875 2.96875 C 32.476562 2.96875 23.644531 0.265625 17.1875 -5.140625 C 10.738281 -10.546875 7.378906 -17.203125 7.109375 -25.109375 Z M 7.109375 -25.109375 "/></g></g></g><g fill="#ff00ff" fill-opacity="1"><g transform="translate(291.759821, 266.688345)"><g><path d="M 83.40625 -58.90625 L 83.40625 0 C 69.707031 1.3125 58.769531 1.96875 50.59375 1.96875 C 46.90625 1.96875 43.8125 1.835938 41.3125 1.578125 C 19.695312 -0.785156 8.363281 -11.523438 7.3125 -30.640625 C 7.3125 -31.554688 7.3125 -32.476562 7.3125 -33.40625 L 7.3125 -49.8125 C 7.3125 -62.851562 11.859375 -71.613281 20.953125 -76.09375 C 24.773438 -78.207031 29.125 -79.265625 34 -79.265625 C 34.789062 -79.265625 35.515625 -79.195312 36.171875 -79.0625 C 41.972656 -78.800781 46.976562 -78.109375 51.1875 -76.984375 C 55.40625 -75.867188 58.898438 -74.519531 61.671875 -72.9375 C 61.671875 -81.363281 54.617188 -85.578125 40.515625 -85.578125 L 42.296875 -100.609375 C 47.304688 -100.609375 51.816406 -100.3125 55.828125 -99.71875 C 59.847656 -99.125 63.242188 -98.132812 66.015625 -96.75 C 68.785156 -95.363281 71.222656 -93.945312 73.328125 -92.5 C 75.441406 -91.050781 77.085938 -89.140625 78.265625 -86.765625 C 79.453125 -84.398438 80.441406 -82.328125 81.234375 -80.546875 C 82.023438 -78.765625 82.550781 -76.359375 82.8125 -73.328125 C 83.082031 -70.296875 83.25 -67.921875 83.3125 -66.203125 C 83.375 -64.492188 83.40625 -62.0625 83.40625 -58.90625 Z M 61.671875 -19.171875 L 61.671875 -49.8125 C 59.554688 -51.257812 56.816406 -52.609375 53.453125 -53.859375 C 50.097656 -55.109375 46.507812 -56.066406 42.6875 -56.734375 C 41.632812 -56.859375 40.582031 -56.921875 39.53125 -56.921875 C 37.15625 -56.921875 35.046875 -56.394531 33.203125 -55.34375 C 30.566406 -53.757812 29.25 -50.992188 29.25 -47.046875 L 29.25 -36.171875 C 29.25 -24.046875 36.234375 -17.984375 50.203125 -17.984375 C 53.628906 -17.984375 57.453125 -18.378906 61.671875 -19.171875 Z M 61.671875 -19.171875 "/></g></g></g><g fill="#ff00ff" fill-opacity="1"><g transform="translate(378.330234, 266.688345)"><g><path d="M 94.078125 0 L 66.8125 0 L 37.15625 -50.203125 L 34.390625 -47.4375 L 34.390625 0 L 12.65625 0 L 12.65625 -138.359375 L 34.390625 -138.359375 L 34.390625 -75.5 L 63.84375 -102.78125 L 79.859375 -87.5625 L 53.953125 -65.625 C 73.191406 -33.863281 86.566406 -11.988281 94.078125 0 Z M 94.078125 0 "/></g></g></g><g fill="#ff00ff" fill-opacity="1"><g transform="translate(468.063064, 266.688345)"><g><path d="M 80.84375 0 L 60.484375 0 L 59.09375 -1.1875 C 53.164062 1.050781 48.226562 2.171875 44.28125 2.171875 C 19.5 2.171875 7.109375 -9.882812 7.109375 -34 L 7.109375 -99.03125 L 28.859375 -99.03125 L 28.859375 -37.15625 C 28.859375 -31.09375 29.941406 -26.613281 32.109375 -23.71875 C 34.285156 -20.820312 38.335938 -19.375 44.265625 -19.375 C 50.203125 -19.375 54.15625 -20.988281 56.125 -24.21875 C 58.101562 -27.445312 59.09375 -32.023438 59.09375 -37.953125 L 59.09375 -99.03125 L 80.84375 -99.03125 Z M 80.84375 0 "/></g></g></g><g fill="#ff00ff" fill-opacity="1"><g transform="translate(552.459335, 266.688345)"><g><path d="M 33.796875 0 L 12.0625 0 L 12.0625 -99.03125 L 32.21875 -99.03125 L 33.796875 -98.234375 C 38.148438 -99.679688 42.566406 -100.472656 47.046875 -100.609375 C 48.492188 -100.609375 49.8125 -100.609375 51 -100.609375 C 53.5 -100.609375 55.34375 -100.539062 56.53125 -100.40625 C 58.375 -100.144531 62 -99.421875 67.40625 -98.234375 L 62.265625 -77.078125 C 58.578125 -78.929688 55.019531 -79.859375 51.59375 -79.859375 C 48.6875 -79.859375 45.851562 -79.265625 43.09375 -78.078125 C 36.894531 -75.304688 33.796875 -70.492188 33.796875 -63.640625 Z M 33.796875 0 "/></g></g></g><g fill="#ff00ff" fill-opacity="1"><g transform="translate(623.613113, 266.688345)"><g><path d="M 83.40625 -58.90625 L 83.40625 0 C 69.707031 1.3125 58.769531 1.96875 50.59375 1.96875 C 46.90625 1.96875 43.8125 1.835938 41.3125 1.578125 C 19.695312 -0.785156 8.363281 -11.523438 7.3125 -30.640625 C 7.3125 -31.554688 7.3125 -32.476562 7.3125 -33.40625 L 7.3125 -49.8125 C 7.3125 -62.851562 11.859375 -71.613281 20.953125 -76.09375 C 24.773438 -78.207031 29.125 -79.265625 34 -79.265625 C 34.789062 -79.265625 35.515625 -79.195312 36.171875 -79.0625 C 41.972656 -78.800781 46.976562 -78.109375 51.1875 -76.984375 C 55.40625 -75.867188 58.898438 -74.519531 61.671875 -72.9375 C 61.671875 -81.363281 54.617188 -85.578125 40.515625 -85.578125 L 42.296875 -100.609375 C 47.304688 -100.609375 51.816406 -100.3125 55.828125 -99.71875 C 59.847656 -99.125 63.242188 -98.132812 66.015625 -96.75 C 68.785156 -95.363281 71.222656 -93.945312 73.328125 -92.5 C 75.441406 -91.050781 77.085938 -89.140625 78.265625 -86.765625 C 79.453125 -84.398438 80.441406 -82.328125 81.234375 -80.546875 C 82.023438 -78.765625 82.550781 -76.359375 82.8125 -73.328125 C 83.082031 -70.296875 83.25 -67.921875 83.3125 -66.203125 C 83.375 -64.492188 83.40625 -62.0625 83.40625 -58.90625 Z M 61.671875 -19.171875 L 61.671875 -49.8125 C 59.554688 -51.257812 56.816406 -52.609375 53.453125 -53.859375 C 50.097656 -55.109375 46.507812 -56.066406 42.6875 -56.734375 C 41.632812 -56.859375 40.582031 -56.921875 39.53125 -56.921875 C 37.15625 -56.921875 35.046875 -56.394531 33.203125 -55.34375 C 30.566406 -53.757812 29.25 -50.992188 29.25 -47.046875 L 29.25 -36.171875 C 29.25 -24.046875 36.234375 -17.984375 50.203125 -17.984375 C 53.628906 -17.984375 57.453125 -18.378906 61.671875 -19.171875 Z M 61.671875 -19.171875 "/></g></g></g><g fill="#00ffff" fill-opacity="1"><g transform="translate(202.010122, 265.186778)"><g><path d="M 7.109375 -25.109375 L 28.859375 -27.28125 C 28.859375 -24.90625 30.078125 -22.660156 32.515625 -20.546875 C 34.953125 -18.441406 38.675781 -17.390625 43.6875 -17.390625 C 48.03125 -17.390625 51.382812 -18.476562 53.75 -20.65625 C 56.125 -22.832031 57.3125 -25.367188 57.3125 -28.265625 C 57.3125 -32.085938 55.765625 -35.148438 52.671875 -37.453125 C 49.578125 -39.765625 45.789062 -41.609375 41.3125 -42.984375 C 36.832031 -44.367188 32.316406 -45.953125 27.765625 -47.734375 C 23.222656 -49.515625 19.203125 -52.445312 15.703125 -56.53125 C 12.210938 -60.613281 10.140625 -65.816406 9.484375 -72.140625 C 9.359375 -72.929688 9.296875 -73.722656 9.296875 -74.515625 C 9.296875 -80.972656 11.863281 -86.90625 17 -92.3125 C 22.53125 -98.363281 31.289062 -101.390625 43.28125 -101.390625 C 47.5 -101.390625 51.453125 -100.894531 55.140625 -99.90625 C 58.835938 -98.925781 61.472656 -97.972656 63.046875 -97.046875 L 65.421875 -95.671875 L 59.09375 -75.5 C 56.0625 -78.53125 50.789062 -80.046875 43.28125 -80.046875 C 39.59375 -80.046875 36.859375 -79.519531 35.078125 -78.46875 C 33.304688 -77.414062 32.519531 -76.257812 32.71875 -75 C 32.914062 -73.75 33.015625 -72.664062 33.015625 -71.75 C 33.398438 -69.769531 35.335938 -67.957031 38.828125 -66.3125 C 42.328125 -64.664062 46.316406 -63.050781 50.796875 -61.46875 C 55.273438 -59.882812 59.753906 -57.90625 64.234375 -55.53125 C 68.710938 -53.164062 72.5 -49.609375 75.59375 -44.859375 C 78.695312 -40.117188 80.25 -34.457031 80.25 -27.875 C 80.25 -19.300781 77.148438 -12.015625 70.953125 -6.015625 C 64.765625 -0.0234375 55.675781 2.96875 43.6875 2.96875 C 32.476562 2.96875 23.644531 0.265625 17.1875 -5.140625 C 10.738281 -10.546875 7.378906 -17.203125 7.109375 -25.109375 Z M 7.109375 -25.109375 "/></g></g></g><g fill="#00ffff" fill-opacity="1"><g transform="translate(283.244009, 265.186778)"><g><path d="M 83.40625 -58.90625 L 83.40625 0 C 69.707031 1.3125 58.769531 1.96875 50.59375 1.96875 C 46.90625 1.96875 43.8125 1.835938 41.3125 1.578125 C 19.695312 -0.785156 8.363281 -11.523438 7.3125 -30.640625 C 7.3125 -31.554688 7.3125 -32.476562 7.3125 -33.40625 L 7.3125 -49.8125 C 7.3125 -62.851562 11.859375 -71.613281 20.953125 -76.09375 C 24.773438 -78.207031 29.125 -79.265625 34 -79.265625 C 34.789062 -79.265625 35.515625 -79.195312 36.171875 -79.0625 C 41.972656 -78.800781 46.976562 -78.109375 51.1875 -76.984375 C 55.40625 -75.867188 58.898438 -74.519531 61.671875 -72.9375 C 61.671875 -81.363281 54.617188 -85.578125 40.515625 -85.578125 L 42.296875 -100.609375 C 47.304688 -100.609375 51.816406 -100.3125 55.828125 -99.71875 C 59.847656 -99.125 63.242188 -98.132812 66.015625 -96.75 C 68.785156 -95.363281 71.222656 -93.945312 73.328125 -92.5 C 75.441406 -91.050781 77.085938 -89.140625 78.265625 -86.765625 C 79.453125 -84.398438 80.441406 -82.328125 81.234375 -80.546875 C 82.023438 -78.765625 82.550781 -76.359375 82.8125 -73.328125 C 83.082031 -70.296875 83.25 -67.921875 83.3125 -66.203125 C 83.375 -64.492188 83.40625 -62.0625 83.40625 -58.90625 Z M 61.671875 -19.171875 L 61.671875 -49.8125 C 59.554688 -51.257812 56.816406 -52.609375 53.453125 -53.859375 C 50.097656 -55.109375 46.507812 -56.066406 42.6875 -56.734375 C 41.632812 -56.859375 40.582031 -56.921875 39.53125 -56.921875 C 37.15625 -56.921875 35.046875 -56.394531 33.203125 -55.34375 C 30.566406 -53.757812 29.25 -50.992188 29.25 -47.046875 L 29.25 -36.171875 C 29.25 -24.046875 36.234375 -17.984375 50.203125 -17.984375 C 53.628906 -17.984375 57.453125 -18.378906 61.671875 -19.171875 Z M 61.671875 -19.171875 "/></g></g></g><g fill="#00ffff" fill-opacity="1"><g transform="translate(369.814422, 265.186778)"><g><path d="M 94.078125 0 L 66.8125 0 L 37.15625 -50.203125 L 34.390625 -47.4375 L 34.390625 0 L 12.65625 0 L 12.65625 -138.359375 L 34.390625 -138.359375 L 34.390625 -75.5 L 63.84375 -102.78125 L 79.859375 -87.5625 L 53.953125 -65.625 C 73.191406 -33.863281 86.566406 -11.988281 94.078125 0 Z M 94.078125 0 "/></g></g></g><g fill="#00ffff" fill-opacity="1"><g transform="translate(459.547253, 265.186778)"><g><path d="M 80.84375 0 L 60.484375 0 L 59.09375 -1.1875 C 53.164062 1.050781 48.226562 2.171875 44.28125 2.171875 C 19.5 2.171875 7.109375 -9.882812 7.109375 -34 L 7.109375 -99.03125 L 28.859375 -99.03125 L 28.859375 -37.15625 C 28.859375 -31.09375 29.941406 -26.613281 32.109375 -23.71875 C 34.285156 -20.820312 38.335938 -19.375 44.265625 -19.375 C 50.203125 -19.375 54.15625 -20.988281 56.125 -24.21875 C 58.101562 -27.445312 59.09375 -32.023438 59.09375 -37.953125 L 59.09375 -99.03125 L 80.84375 -99.03125 Z M 80.84375 0 "/></g></g></g><g fill="#00ffff" fill-opacity="1"><g transform="translate(543.943524, 265.186778)"><g><path d="M 33.796875 0 L 12.0625 0 L 12.0625 -99.03125 L 32.21875 -99.03125 L 33.796875 -98.234375 C 38.148438 -99.679688 42.566406 -100.472656 47.046875 -100.609375 C 48.492188 -100.609375 49.8125 -100.609375 51 -100.609375 C 53.5 -100.609375 55.34375 -100.539062 56.53125 -100.40625 C 58.375 -100.144531 62 -99.421875 67.40625 -98.234375 L 62.265625 -77.078125 C 58.578125 -78.929688 55.019531 -79.859375 51.59375 -79.859375 C 48.6875 -79.859375 45.851562 -79.265625 43.09375 -78.078125 C 36.894531 -75.304688 33.796875 -70.492188 33.796875 -63.640625 Z M 33.796875 0 "/></g></g></g><g fill="#00ffff" fill-opacity="1"><g transform="translate(615.097301, 265.186778)"><g><path d="M 83.40625 -58.90625 L 83.40625 0 C 69.707031 1.3125 58.769531 1.96875 50.59375 1.96875 C 46.90625 1.96875 43.8125 1.835938 41.3125 1.578125 C 19.695312 -0.785156 8.363281 -11.523438 7.3125 -30.640625 C 7.3125 -31.554688 7.3125 -32.476562 7.3125 -33.40625 L 7.3125 -49.8125 C 7.3125 -62.851562 11.859375 -71.613281 20.953125 -76.09375 C 24.773438 -78.207031 29.125 -79.265625 34 -79.265625 C 34.789062 -79.265625 35.515625 -79.195312 36.171875 -79.0625 C 41.972656 -78.800781 46.976562 -78.109375 51.1875 -76.984375 C 55.40625 -75.867188 58.898438 -74.519531 61.671875 -72.9375 C 61.671875 -81.363281 54.617188 -85.578125 40.515625 -85.578125 L 42.296875 -100.609375 C 47.304688 -100.609375 51.816406 -100.3125 55.828125 -99.71875 C 59.847656 -99.125 63.242188 -98.132812 66.015625 -96.75 C 68.785156 -95.363281 71.222656 -93.945312 73.328125 -92.5 C 75.441406 -91.050781 77.085938 -89.140625 78.265625 -86.765625 C 79.453125 -84.398438 80.441406 -82.328125 81.234375 -80.546875 C 82.023438 -78.765625 82.550781 -76.359375 82.8125 -73.328125 C 83.082031 -70.296875 83.25 -67.921875 83.3125 -66.203125 C 83.375 -64.492188 83.40625 -62.0625 83.40625 -58.90625 Z M 61.671875 -19.171875 L 61.671875 -49.8125 C 59.554688 -51.257812 56.816406 -52.609375 53.453125 -53.859375 C 50.097656 -55.109375 46.507812 -56.066406 42.6875 -56.734375 C 41.632812 -56.859375 40.582031 -56.921875 39.53125 -56.921875 C 37.15625 -56.921875 35.046875 -56.394531 33.203125 -55.34375 C 30.566406 -53.757812 29.25 -50.992188 29.25 -47.046875 L 29.25 -36.171875 C 29.25 -24.046875 36.234375 -17.984375 50.203125 -17.984375 C 53.628906 -17.984375 57.453125 -18.378906 61.671875 -19.171875 Z M 61.671875 -19.171875 "/></g></g></g><g fill="#000000" fill-opacity="1"><g transform="translate(206.268027, 265.93756)"><g><path d="M 7.109375 -25.109375 L 28.859375 -27.28125 C 28.859375 -24.90625 30.078125 -22.660156 32.515625 -20.546875 C 34.953125 -18.441406 38.675781 -17.390625 43.6875 -17.390625 C 48.03125 -17.390625 51.382812 -18.476562 53.75 -20.65625 C 56.125 -22.832031 57.3125 -25.367188 57.3125 -28.265625 C 57.3125 -32.085938 55.765625 -35.148438 52.671875 -37.453125 C 49.578125 -39.765625 45.789062 -41.609375 41.3125 -42.984375 C 36.832031 -44.367188 32.316406 -45.953125 27.765625 -47.734375 C 23.222656 -49.515625 19.203125 -52.445312 15.703125 -56.53125 C 12.210938 -60.613281 10.140625 -65.816406 9.484375 -72.140625 C 9.359375 -72.929688 9.296875 -73.722656 9.296875 -74.515625 C 9.296875 -80.972656 11.863281 -86.90625 17 -92.3125 C 22.53125 -98.363281 31.289062 -101.390625 43.28125 -101.390625 C 47.5 -101.390625 51.453125 -100.894531 55.140625 -99.90625 C 58.835938 -98.925781 61.472656 -97.972656 63.046875 -97.046875 L 65.421875 -95.671875 L 59.09375 -75.5 C 56.0625 -78.53125 50.789062 -80.046875 43.28125 -80.046875 C 39.59375 -80.046875 36.859375 -79.519531 35.078125 -78.46875 C 33.304688 -77.414062 32.519531 -76.257812 32.71875 -75 C 32.914062 -73.75 33.015625 -72.664062 33.015625 -71.75 C 33.398438 -69.769531 35.335938 -67.957031 38.828125 -66.3125 C 42.328125 -64.664062 46.316406 -63.050781 50.796875 -61.46875 C 55.273438 -59.882812 59.753906 -57.90625 64.234375 -55.53125 C 68.710938 -53.164062 72.5 -49.609375 75.59375 -44.859375 C 78.695312 -40.117188 80.25 -34.457031 80.25 -27.875 C 80.25 -19.300781 77.148438 -12.015625 70.953125 -6.015625 C 64.765625 -0.0234375 55.675781 2.96875 43.6875 2.96875 C 32.476562 2.96875 23.644531 0.265625 17.1875 -5.140625 C 10.738281 -10.546875 7.378906 -17.203125 7.109375 -25.109375 Z M 7.109375 -25.109375 "/></g></g></g><g fill="#000000" fill-opacity="1"><g transform="translate(287.501914, 265.93756)"><g><path d="M 83.40625 -58.90625 L 83.40625 0 C 69.707031 1.3125 58.769531 1.96875 50.59375 1.96875 C 46.90625 1.96875 43.8125 1.835938 41.3125 1.578125 C 19.695312 -0.785156 8.363281 -11.523438 7.3125 -30.640625 C 7.3125 -31.554688 7.3125 -32.476562 7.3125 -33.40625 L 7.3125 -49.8125 C 7.3125 -62.851562 11.859375 -71.613281 20.953125 -76.09375 C 24.773438 -78.207031 29.125 -79.265625 34 -79.265625 C 34.789062 -79.265625 35.515625 -79.195312 36.171875 -79.0625 C 41.972656 -78.800781 46.976562 -78.109375 51.1875 -76.984375 C 55.40625 -75.867188 58.898438 -74.519531 61.671875 -72.9375 C 61.671875 -81.363281 54.617188 -85.578125 40.515625 -85.578125 L 42.296875 -100.609375 C 47.304688 -100.609375 51.816406 -100.3125 55.828125 -99.71875 C 59.847656 -99.125 63.242188 -98.132812 66.015625 -96.75 C 68.785156 -95.363281 71.222656 -93.945312 73.328125 -92.5 C 75.441406 -91.050781 77.085938 -89.140625 78.265625 -86.765625 C 79.453125 -84.398438 80.441406 -82.328125 81.234375 -80.546875 C 82.023438 -78.765625 82.550781 -76.359375 82.8125 -73.328125 C 83.082031 -70.296875 83.25 -67.921875 83.3125 -66.203125 C 83.375 -64.492188 83.40625 -62.0625 83.40625 -58.90625 Z M 61.671875 -19.171875 L 61.671875 -49.8125 C 59.554688 -51.257812 56.816406 -52.609375 53.453125 -53.859375 C 50.097656 -55.109375 46.507812 -56.066406 42.6875 -56.734375 C 41.632812 -56.859375 40.582031 -56.921875 39.53125 -56.921875 C 37.15625 -56.921875 35.046875 -56.394531 33.203125 -55.34375 C 30.566406 -53.757812 29.25 -50.992188 29.25 -47.046875 L 29.25 -36.171875 C 29.25 -24.046875 36.234375 -17.984375 50.203125 -17.984375 C 53.628906 -17.984375 57.453125 -18.378906 61.671875 -19.171875 Z M 61.671875 -19.171875 "/></g></g></g><g fill="#000000" fill-opacity="1"><g transform="translate(374.072327, 265.93756)"><g><path d="M 94.078125 0 L 66.8125 0 L 37.15625 -50.203125 L 34.390625 -47.4375 L 34.390625 0 L 12.65625 0 L 12.65625 -138.359375 L 34.390625 -138.359375 L 34.390625 -75.5 L 63.84375 -102.78125 L 79.859375 -87.5625 L 53.953125 -65.625 C 73.191406 -33.863281 86.566406 -11.988281 94.078125 0 Z M 94.078125 0 "/></g></g></g><g fill="#000000" fill-opacity="1"><g transform="translate(463.805157, 265.93756)"><g><path d="M 80.84375 0 L 60.484375 0 L 59.09375 -1.1875 C 53.164062 1.050781 48.226562 2.171875 44.28125 2.171875 C 19.5 2.171875 7.109375 -9.882812 7.109375 -34 L 7.109375 -99.03125 L 28.859375 -99.03125 L 28.859375 -37.15625 C 28.859375 -31.09375 29.941406 -26.613281 32.109375 -23.71875 C 34.285156 -20.820312 38.335938 -19.375 44.265625 -19.375 C 50.203125 -19.375 54.15625 -20.988281 56.125 -24.21875 C 58.101562 -27.445312 59.09375 -32.023438 59.09375 -37.953125 L 59.09375 -99.03125 L 80.84375 -99.03125 Z M 80.84375 0 "/></g></g></g><g fill="#000000" fill-opacity="1"><g transform="translate(548.201428, 265.93756)"><g><path d="M 33.796875 0 L 12.0625 0 L 12.0625 -99.03125 L 32.21875 -99.03125 L 33.796875 -98.234375 C 38.148438 -99.679688 42.566406 -100.472656 47.046875 -100.609375 C 48.492188 -100.609375 49.8125 -100.609375 51 -100.609375 C 53.5 -100.609375 55.34375 -100.539062 56.53125 -100.40625 C 58.375 -100.144531 62 -99.421875 67.40625 -98.234375 L 62.265625 -77.078125 C 58.578125 -78.929688 55.019531 -79.859375 51.59375 -79.859375 C 48.6875 -79.859375 45.851562 -79.265625 43.09375 -78.078125 C 36.894531 -75.304688 33.796875 -70.492188 33.796875 -63.640625 Z M 33.796875 0 "/></g></g></g><g fill="#000000" fill-opacity="1"><g transform="translate(619.355206, 265.93756)"><g><path d="M 83.40625 -58.90625 L 83.40625 0 C 69.707031 1.3125 58.769531 1.96875 50.59375 1.96875 C 46.90625 1.96875 43.8125 1.835938 41.3125 1.578125 C 19.695312 -0.785156 8.363281 -11.523438 7.3125 -30.640625 C 7.3125 -31.554688 7.3125 -32.476562 7.3125 -33.40625 L 7.3125 -49.8125 C 7.3125 -62.851562 11.859375 -71.613281 20.953125 -76.09375 C 24.773438 -78.207031 29.125 -79.265625 34 -79.265625 C 34.789062 -79.265625 35.515625 -79.195312 36.171875 -79.0625 C 41.972656 -78.800781 46.976562 -78.109375 51.1875 -76.984375 C 55.40625 -75.867188 58.898438 -74.519531 61.671875 -72.9375 C 61.671875 -81.363281 54.617188 -85.578125 40.515625 -85.578125 L 42.296875 -100.609375 C 47.304688 -100.609375 51.816406 -100.3125 55.828125 -99.71875 C 59.847656 -99.125 63.242188 -98.132812 66.015625 -96.75 C 68.785156 -95.363281 71.222656 -93.945312 73.328125 -92.5 C 75.441406 -91.050781 77.085938 -89.140625 78.265625 -86.765625 C 79.453125 -84.398438 80.441406 -82.328125 81.234375 -80.546875 C 82.023438 -78.765625 82.550781 -76.359375 82.8125 -73.328125 C 83.082031 -70.296875 83.25 -67.921875 83.3125 -66.203125 C 83.375 -64.492188 83.40625 -62.0625 83.40625 -58.90625 Z M 61.671875 -19.171875 L 61.671875 -49.8125 C 59.554688 -51.257812 56.816406 -52.609375 53.453125 -53.859375 C 50.097656 -55.109375 46.507812 -56.066406 42.6875 -56.734375 C 41.632812 -56.859375 40.582031 -56.921875 39.53125 -56.921875 C 37.15625 -56.921875 35.046875 -56.394531 33.203125 -55.34375 C 30.566406 -53.757812 29.25 -50.992188 29.25 -47.046875 L 29.25 -36.171875 C 29.25 -24.046875 36.234375 -17.984375 50.203125 -17.984375 C 53.628906 -17.984375 57.453125 -18.378906 61.671875 -19.171875 Z M 61.671875 -19.171875 "/></g></g></g><g clip-path="url(#id22)"><g clip-path="url(#id23)"><g clip-path="url(#id24)"><path fill="#00ffff" d="M 310.75 93.863281 C 310.128906 92.691406 308.839844 92.027344 307.523438 92.207031 L 301.464844 93.03125 L 303.460938 86.761719 C 303.84375 85.554688 303.472656 84.238281 302.511719 83.410156 C 294.238281 76.253906 283.363281 76.078125 274.804688 82.964844 C 272.867188 84.523438 270.6875 86.9375 268.511719 89.847656 C 268.390625 84.636719 267.761719 79.902344 266.679688 76.726562 C 263.269531 66.722656 253.636719 61.019531 242.707031 62.53125 C 241.394531 62.714844 240.332031 63.699219 240.050781 64.996094 L 238.753906 70.972656 L 233.542969 66.953125 C 232.539062 66.179688 231.171875 66.078125 230.066406 66.695312 C 220.511719 72.023438 216.628906 82.1875 220.175781 92.582031 C 221.253906 95.75 223.640625 99.867188 226.714844 104.054688 C 223.246094 103.09375 220.070312 102.519531 217.601562 102.472656 C 206.621094 102.246094 198.117188 109.027344 195.9375 119.75 C 195.683594 120.988281 196.195312 122.261719 197.238281 122.984375 L 202.644531 126.726562 L 197.34375 129.777344 C 196.195312 130.4375 195.578125 131.75 195.804688 133.058594 C 197.675781 143.929688 206.035156 151.378906 216.597656 151.59375 C 218.785156 151.640625 221.546875 151.296875 224.589844 150.648438 C 223.234375 152.75 222.167969 154.726562 221.507812 156.433594 C 217.542969 166.675781 221.003906 176.988281 230.332031 182.703125 C 231.414062 183.363281 232.785156 183.320312 233.816406 182.585938 L 239.1875 178.785156 L 240.238281 184.808594 C 240.46875 186.117188 241.488281 187.144531 242.796875 187.378906 C 246.941406 188.125 250.9375 187.816406 254.511719 186.597656 C 260.296875 184.625 264.96875 180.269531 267.328125 174.179688 C 268.5 171.148438 269.308594 166.636719 269.660156 161.628906 C 273 165.375 276.394531 168.457031 279.175781 170.140625 C 284.765625 173.519531 291.121094 174.113281 296.90625 172.140625 C 300.480469 170.921875 303.835938 168.726562 306.660156 165.601562 C 307.550781 164.617188 307.734375 163.179688 307.113281 162.003906 L 304.269531 156.59375 L 310.839844 156.324219 C 312.105469 156.273438 313.21875 155.46875 313.671875 154.285156 C 317.5625 144.0625 314.007812 133.785156 304.609375 128.097656 C 303.046875 127.152344 301 126.238281 298.644531 125.40625 C 301.476562 124.050781 303.894531 122.625 305.613281 121.242188 C 313.84375 114.617188 315.90625 103.617188 310.75 93.863281 Z M 310.75 93.863281 " fill-opacity="1" fill-rule="nonzero"/></g></g></g><g clip-path="url(#id25)"><g clip-path="url(#id26)"><g clip-path="url(#id27)"><path fill="#ffffff" d="M 279.851562 106.738281 C 277.199219 105.433594 273.980469 106.53125 272.675781 109.183594 C 272.308594 109.933594 272.136719 110.730469 272.132812 111.511719 L 266.429688 115.414062 C 263.582031 113.148438 259.90625 112.023438 256.183594 112.417969 L 252.800781 102.5 C 253.742188 101.144531 254.058594 99.378906 253.488281 97.703125 C 252.53125 94.902344 249.480469 93.402344 246.679688 94.355469 C 243.878906 95.308594 242.378906 98.363281 243.335938 101.164062 C 243.90625 102.839844 245.234375 104.046875 246.808594 104.542969 L 250.199219 114.484375 C 247.058594 116.453125 244.871094 119.5625 244.007812 123.0625 L 234.792969 123.578125 C 233.414062 121.902344 231.09375 121.160156 228.925781 121.902344 C 226.125 122.855469 224.625 125.910156 225.578125 128.707031 C 226.53125 131.507812 229.585938 133.007812 232.386719 132.054688 C 233.566406 131.652344 234.511719 130.871094 235.144531 129.898438 L 243.925781 129.410156 C 244.039062 129.921875 244.179688 130.429688 244.351562 130.9375 C 245.40625 134.035156 247.449219 136.527344 250.003906 138.183594 L 247.308594 146.78125 C 247.308594 146.78125 247.304688 146.78125 247.304688 146.78125 C 244.503906 147.734375 243.003906 150.789062 243.960938 153.589844 C 244.914062 156.386719 247.96875 157.886719 250.765625 156.933594 C 253.566406 155.980469 255.066406 152.925781 254.113281 150.128906 C 253.929688 149.59375 253.667969 149.105469 253.351562 148.675781 L 255.957031 140.355469 C 258 140.609375 260.125 140.417969 262.199219 139.710938 C 264.261719 139.003906 266.058594 137.867188 267.515625 136.429688 L 275.011719 141.628906 C 275.0625 143.554688 276.15625 145.394531 278.003906 146.304688 C 279.332031 146.953125 280.800781 147.007812 282.097656 146.5625 C 283.398438 146.121094 284.53125 145.183594 285.179688 143.855469 C 285.8125 142.570312 285.90625 141.117188 285.445312 139.757812 C 284.984375 138.402344 284.019531 137.308594 282.738281 136.675781 C 282.738281 136.675781 282.738281 136.675781 282.734375 136.675781 C 282.734375 136.675781 282.734375 136.675781 282.730469 136.675781 C 281.445312 136.042969 279.992188 135.949219 278.636719 136.414062 C 278.628906 136.414062 278.625 136.417969 278.617188 136.421875 L 270.910156 131.082031 C 271.933594 128.199219 272.03125 124.972656 270.972656 121.859375 C 270.796875 121.351562 270.59375 120.863281 270.371094 120.386719 L 275.835938 116.648438 C 276.933594 117.003906 278.109375 117.003906 279.21875 116.625 C 280.574219 116.164062 281.671875 115.199219 282.300781 113.917969 C 282.933594 112.632812 283.027344 111.175781 282.5625 109.820312 C 282.101562 108.464844 281.140625 107.367188 279.851562 106.738281 Z M 279.851562 106.738281 " fill-opacity="1" fill-rule="nonzero"/></g></g></g><g clip-path="url(#id28)"><g clip-path="url(#id29)"><g clip-path="url(#id30)"><path fill="#ff00ff" d="M 316.359375 96.058594 C 315.738281 94.886719 314.449219 94.222656 313.136719 94.402344 L 307.078125 95.226562 L 309.070312 88.960938 C 309.457031 87.753906 309.082031 86.433594 308.125 85.605469 C 299.847656 78.449219 288.972656 78.277344 280.417969 85.164062 C 278.480469 86.71875 276.300781 89.136719 274.125 92.042969 C 274.003906 86.832031 273.375 82.097656 272.292969 78.921875 C 268.882812 68.917969 259.25 63.214844 248.320312 64.730469 C 247.003906 64.910156 245.941406 65.894531 245.660156 67.191406 L 244.363281 73.167969 L 239.15625 69.148438 C 238.152344 68.375 236.785156 68.273438 235.679688 68.890625 C 226.125 74.21875 222.242188 84.382812 225.785156 94.777344 C 226.867188 97.945312 229.25 102.0625 232.324219 106.25 C 228.855469 105.289062 225.679688 104.71875 223.214844 104.667969 C 212.234375 104.441406 203.726562 111.222656 201.546875 121.945312 C 201.296875 123.1875 201.808594 124.457031 202.847656 125.179688 L 208.257812 128.921875 L 202.957031 131.972656 C 201.804688 132.632812 201.191406 133.945312 201.414062 135.253906 C 203.289062 146.125 211.644531 153.574219 222.210938 153.792969 C 224.398438 153.835938 227.160156 153.492188 230.203125 152.84375 C 228.84375 154.945312 227.78125 156.921875 227.121094 158.628906 C 223.152344 168.871094 226.617188 179.183594 235.945312 184.898438 C 237.023438 185.558594 238.394531 185.515625 239.429688 184.78125 L 244.796875 180.980469 L 245.851562 187.003906 C 246.078125 188.3125 247.097656 189.339844 248.40625 189.574219 C 252.550781 190.320312 256.550781 190.011719 260.125 188.792969 C 265.910156 186.820312 270.578125 182.464844 272.9375 176.375 C 274.113281 173.34375 274.917969 168.832031 275.273438 163.824219 C 278.609375 167.574219 282.003906 170.652344 284.789062 172.335938 C 290.378906 175.714844 296.734375 176.3125 302.519531 174.335938 C 306.09375 173.117188 309.449219 170.921875 312.273438 167.796875 C 313.164062 166.8125 313.34375 165.375 312.726562 164.199219 L 309.878906 158.789062 L 316.453125 158.519531 C 317.71875 158.46875 318.832031 157.667969 319.28125 156.484375 C 323.175781 146.257812 319.617188 135.980469 310.21875 130.292969 C 308.65625 129.347656 306.613281 128.4375 304.257812 127.601562 C 307.085938 126.246094 309.507812 124.820312 311.222656 123.441406 C 319.453125 116.816406 321.519531 105.8125 316.359375 96.058594 Z M 316.359375 96.058594 " fill-opacity="1" fill-rule="nonzero"/></g></g></g><g clip-path="url(#id31)"><g clip-path="url(#id32)"><g clip-path="url(#id33)"><path fill="#ffffff" d="M 285.464844 108.933594 C 282.808594 107.628906 279.589844 108.726562 278.289062 111.382812 C 277.917969 112.128906 277.75 112.925781 277.746094 113.707031 L 272.039062 117.609375 C 269.195312 115.347656 265.519531 114.21875 261.792969 114.613281 L 258.414062 104.695312 C 259.355469 103.339844 259.671875 101.574219 259.097656 99.898438 C 258.144531 97.097656 255.089844 95.597656 252.292969 96.550781 C 249.492188 97.507812 247.992188 100.558594 248.945312 103.359375 C 249.519531 105.035156 250.847656 106.242188 252.421875 106.738281 L 255.808594 116.679688 C 252.667969 118.648438 250.480469 121.761719 249.621094 125.257812 L 240.40625 125.773438 C 239.027344 124.097656 236.707031 123.355469 234.535156 124.097656 C 231.738281 125.050781 230.234375 128.105469 231.191406 130.902344 C 232.144531 133.703125 235.199219 135.203125 237.996094 134.25 C 239.179688 133.847656 240.125 133.066406 240.757812 132.09375 L 249.539062 131.605469 C 249.652344 132.117188 249.789062 132.628906 249.964844 133.132812 C 251.019531 136.234375 253.058594 138.722656 255.617188 140.378906 L 252.921875 148.976562 C 252.917969 148.976562 252.917969 148.976562 252.917969 148.976562 C 250.117188 149.933594 248.617188 152.984375 249.570312 155.785156 C 250.523438 158.582031 253.578125 160.085938 256.378906 159.128906 C 259.175781 158.175781 260.679688 155.121094 259.722656 152.324219 C 259.542969 151.789062 259.28125 151.300781 258.960938 150.871094 L 261.570312 142.550781 C 263.609375 142.804688 265.738281 142.613281 267.8125 141.90625 C 269.875 141.203125 271.667969 140.0625 273.125 138.625 L 280.625 143.824219 C 280.675781 145.753906 281.765625 147.589844 283.617188 148.5 C 284.945312 149.152344 286.410156 149.203125 287.710938 148.757812 C 289.011719 148.316406 290.140625 147.378906 290.792969 146.054688 C 291.425781 144.765625 291.519531 143.3125 291.054688 141.953125 C 290.59375 140.597656 289.632812 139.503906 288.347656 138.871094 C 288.34375 138.871094 288.34375 138.871094 288.34375 138.871094 C 287.058594 138.238281 285.605469 138.148438 284.25 138.609375 C 284.242188 138.613281 284.234375 138.613281 284.226562 138.617188 L 276.523438 133.277344 C 277.542969 130.394531 277.644531 127.167969 276.582031 124.058594 C 276.410156 123.546875 276.207031 123.058594 275.984375 122.582031 L 281.449219 118.84375 C 282.546875 119.203125 283.71875 119.203125 284.832031 118.824219 C 286.1875 118.359375 287.28125 117.398438 287.914062 116.113281 C 288.546875 114.828125 288.640625 113.371094 288.175781 112.015625 C 287.714844 110.660156 286.75 109.5625 285.464844 108.933594 Z M 285.464844 108.933594 " fill-opacity="1" fill-rule="nonzero"/></g></g></g><g clip-path="url(#id34)"><g clip-path="url(#id35)"><g clip-path="url(#id36)"><path fill="#ff7ccc" d="M 314.164062 93.863281 C 313.542969 92.691406 312.253906 92.027344 310.9375 92.207031 L 304.878906 93.03125 L 306.875 86.761719 C 307.257812 85.554688 306.886719 84.238281 305.929688 83.410156 C 297.652344 76.253906 286.777344 76.078125 278.21875 82.964844 C 276.285156 84.523438 274.101562 86.9375 271.925781 89.847656 C 271.804688 84.636719 271.179688 79.902344 270.097656 76.726562 C 266.6875 66.722656 257.050781 61.019531 246.125 62.53125 C 244.808594 62.714844 243.746094 63.699219 243.464844 64.996094 L 242.167969 70.972656 L 236.957031 66.953125 C 235.957031 66.179688 234.589844 66.078125 233.484375 66.695312 C 223.929688 72.023438 220.046875 82.1875 223.589844 92.582031 C 224.671875 95.75 227.054688 99.867188 230.128906 104.054688 C 226.660156 103.09375 223.484375 102.519531 221.019531 102.472656 C 210.039062 102.246094 201.53125 109.027344 199.351562 119.75 C 199.097656 120.988281 199.609375 122.261719 200.652344 122.984375 L 206.0625 126.726562 L 200.761719 129.777344 C 199.609375 130.4375 198.992188 131.75 199.21875 133.058594 C 201.09375 143.929688 209.449219 151.378906 220.011719 151.59375 C 222.199219 151.640625 224.964844 151.296875 228.007812 150.648438 C 226.648438 152.75 225.585938 154.726562 224.925781 156.433594 C 220.957031 166.675781 224.421875 176.988281 233.75 182.703125 C 234.828125 183.363281 236.199219 183.320312 237.234375 182.585938 L 242.601562 178.785156 L 243.652344 184.808594 C 243.882812 186.117188 244.902344 187.144531 246.210938 187.378906 C 250.355469 188.125 254.355469 187.816406 257.929688 186.597656 C 263.714844 184.625 268.382812 180.269531 270.742188 174.179688 C 271.917969 171.148438 272.722656 166.636719 273.078125 161.628906 C 276.414062 165.375 279.808594 168.457031 282.589844 170.140625 C 288.179688 173.519531 294.535156 174.113281 300.324219 172.140625 C 303.894531 170.921875 307.253906 168.726562 310.078125 165.601562 C 310.96875 164.617188 311.148438 163.179688 310.53125 162.003906 L 307.683594 156.59375 L 314.257812 156.324219 C 315.523438 156.273438 316.636719 155.46875 317.085938 154.285156 C 320.980469 144.0625 317.421875 133.785156 308.023438 128.097656 C 306.460938 127.152344 304.417969 126.238281 302.0625 125.40625 C 304.890625 124.050781 307.3125 122.625 309.027344 121.242188 C 317.257812 114.617188 319.324219 103.617188 314.164062 93.863281 Z M 314.164062 93.863281 " fill-opacity="1" fill-rule="nonzero"/></g></g></g><g clip-path="url(#id37)"><g clip-path="url(#id38)"><g clip-path="url(#id39)"><path fill="#ffffff" d="M 283.269531 106.738281 C 280.613281 105.433594 277.394531 106.53125 276.089844 109.183594 C 275.722656 109.933594 275.550781 110.730469 275.546875 111.511719 L 269.84375 115.414062 C 266.996094 113.148438 263.324219 112.023438 259.597656 112.417969 L 256.214844 102.5 C 257.160156 101.144531 257.472656 99.378906 256.902344 97.703125 C 255.949219 94.902344 252.894531 93.402344 250.09375 94.355469 C 247.296875 95.308594 245.796875 98.363281 246.75 101.164062 C 247.320312 102.839844 248.648438 104.046875 250.222656 104.542969 L 253.613281 114.484375 C 250.472656 116.453125 248.285156 119.5625 247.425781 123.0625 L 238.210938 123.578125 C 236.832031 121.902344 234.511719 121.160156 232.339844 121.902344 C 229.539062 122.855469 228.039062 125.910156 228.996094 128.707031 C 229.949219 131.507812 233.003906 133.007812 235.800781 132.054688 C 236.984375 131.652344 237.929688 130.871094 238.558594 129.898438 L 247.34375 129.410156 C 247.453125 129.921875 247.59375 130.429688 247.765625 130.9375 C 248.824219 134.035156 250.863281 136.527344 253.417969 138.183594 L 250.726562 146.78125 C 250.722656 146.78125 250.722656 146.78125 250.71875 146.78125 C 247.921875 147.734375 246.421875 150.789062 247.375 153.589844 C 248.328125 156.386719 251.382812 157.886719 254.183594 156.933594 C 256.980469 155.980469 258.480469 152.925781 257.527344 150.128906 C 257.34375 149.59375 257.085938 149.105469 256.765625 148.675781 L 259.371094 140.355469 C 261.414062 140.609375 263.542969 140.417969 265.613281 139.710938 C 267.679688 139.003906 269.472656 137.867188 270.929688 136.429688 L 278.425781 141.628906 C 278.480469 143.554688 279.570312 145.394531 281.421875 146.304688 C 282.746094 146.953125 284.214844 147.007812 285.515625 146.5625 C 286.8125 146.121094 287.945312 145.183594 288.597656 143.855469 C 289.230469 142.570312 289.324219 141.117188 288.859375 139.757812 C 288.398438 138.402344 287.4375 137.308594 286.152344 136.675781 C 286.152344 136.675781 286.152344 136.675781 286.148438 136.675781 C 284.863281 136.042969 283.410156 135.949219 282.054688 136.414062 C 282.046875 136.414062 282.039062 136.417969 282.03125 136.421875 L 274.328125 131.082031 C 275.347656 128.199219 275.445312 124.972656 274.386719 121.859375 C 274.214844 121.351562 274.011719 120.863281 273.785156 120.386719 L 279.253906 116.648438 C 280.347656 117.003906 281.523438 117.003906 282.632812 116.625 C 283.992188 116.164062 285.085938 115.199219 285.714844 113.917969 C 286.347656 112.632812 286.441406 111.175781 285.980469 109.820312 C 285.519531 108.464844 284.554688 107.367188 283.269531 106.738281 Z M 283.269531 106.738281 " fill-opacity="1" fill-rule="nonzero"/></g></g></g></svg>