<svg xmlns="http://www.w3.org/2000/svg" xmlns:xlink="http://www.w3.org/1999/xlink" width="2000" zoomAndPan="magnify" viewBox="0 0 1500 1499.999933" height="2000" preserveAspectRatio="xMidYMid meet" version="1.0"><defs><g/><clipPath id="id1"><path d="M 307 540 L 527 540 L 527 760 L 307 760 Z M 307 540 " clip-rule="nonzero"/></clipPath><clipPath id="id2"><path d="M 255.851562 676.488281 L 376.765625 493.890625 L 559.359375 614.804688 L 438.449219 797.402344 Z M 255.851562 676.488281 " clip-rule="nonzero"/></clipPath><clipPath id="id3"><path d="M 255.851562 676.488281 L 376.765625 493.890625 L 559.359375 614.804688 L 438.449219 797.402344 Z M 255.851562 676.488281 " clip-rule="nonzero"/></clipPath><clipPath id="id4"><path d="M 362 598 L 473 598 L 473 706 L 362 706 Z M 362 598 " clip-rule="nonzero"/></clipPath><clipPath id="id5"><path d="M 255.851562 676.488281 L 376.765625 493.890625 L 559.359375 614.804688 L 438.449219 797.402344 Z M 255.851562 676.488281 " clip-rule="nonzero"/></clipPath><clipPath id="id6"><path d="M 255.851562 676.488281 L 376.765625 493.890625 L 559.359375 614.804688 L 438.449219 797.402344 Z M 255.851562 676.488281 " clip-rule="nonzero"/></clipPath><clipPath id="id7"><path d="M 306 528 L 526 528 L 526 748 L 306 748 Z M 306 528 " clip-rule="nonzero"/></clipPath><clipPath id="id8"><path d="M 254.71875 664.097656 L 375.632812 481.5 L 558.226562 602.414062 L 437.316406 785.007812 Z M 254.71875 664.097656 " clip-rule="nonzero"/></clipPath><clipPath id="id9"><path d="M 254.71875 664.097656 L 375.632812 481.5 L 558.226562 602.414062 L 437.316406 785.007812 Z M 254.71875 664.097656 " clip-rule="nonzero"/></clipPath><clipPath id="id10"><path d="M 361 585 L 472 585 L 472 693 L 361 693 Z M 361 585 " clip-rule="nonzero"/></clipPath><clipPath id="id11"><path d="M 254.71875 664.097656 L 375.632812 481.5 L 558.226562 602.414062 L 437.316406 785.007812 Z M 254.71875 664.097656 " clip-rule="nonzero"/></clipPath><clipPath id="id12"><path d="M 254.71875 664.097656 L 375.632812 481.5 L 558.226562 602.414062 L 437.316406 785.007812 Z M 254.71875 664.097656 " clip-rule="nonzero"/></clipPath><clipPath id="id13"><path d="M 302 511 L 525 511 L 525 734 L 302 734 Z M 302 511 " clip-rule="nonzero"/></clipPath><clipPath id="id14"><path d="M 250.570312 648.679688 L 373.136719 463.582031 L 558.234375 586.152344 L 435.667969 771.25 Z M 250.570312 648.679688 " clip-rule="nonzero"/></clipPath><clipPath id="id15"><path d="M 250.570312 648.679688 L 373.136719 463.582031 L 558.234375 586.152344 L 435.667969 771.25 Z M 250.570312 648.679688 " clip-rule="nonzero"/></clipPath><clipPath id="id16"><path d="M 358 569 L 471 569 L 471 678 L 358 678 Z M 358 569 " clip-rule="nonzero"/></clipPath><clipPath id="id17"><path d="M 250.570312 648.679688 L 373.136719 463.582031 L 558.234375 586.152344 L 435.667969 771.25 Z M 250.570312 648.679688 " clip-rule="nonzero"/></clipPath><clipPath id="id18"><path d="M 250.570312 648.679688 L 373.136719 463.582031 L 558.234375 586.152344 L 435.667969 771.25 Z M 250.570312 648.679688 " clip-rule="nonzero"/></clipPath><clipPath id="id19"><path d="M 490 548 L 654 548 L 654 721 L 490 721 Z M 490 548 " clip-rule="nonzero"/></clipPath><clipPath id="id20"><path d="M 465.921875 577.890625 L 624.933594 523.671875 L 679.152344 682.683594 L 520.140625 736.902344 Z M 465.921875 577.890625 " clip-rule="nonzero"/></clipPath><clipPath id="id21"><path d="M 465.921875 577.890625 L 624.933594 523.671875 L 679.152344 682.683594 L 520.140625 736.902344 Z M 465.921875 577.890625 " clip-rule="nonzero"/></clipPath><clipPath id="id22"><path d="M 530 592 L 613 592 L 613 679 L 530 679 Z M 530 592 " clip-rule="nonzero"/></clipPath><clipPath id="id23"><path d="M 465.921875 577.890625 L 624.933594 523.671875 L 679.152344 682.683594 L 520.140625 736.902344 Z M 465.921875 577.890625 " clip-rule="nonzero"/></clipPath><clipPath id="id24"><path d="M 465.921875 577.890625 L 624.933594 523.671875 L 679.152344 682.683594 L 520.140625 736.902344 Z M 465.921875 577.890625 " clip-rule="nonzero"/></clipPath><clipPath id="id25"><path d="M 497 551 L 661 551 L 661 724 L 497 724 Z M 497 551 " clip-rule="nonzero"/></clipPath><clipPath id="id26"><path d="M 473.585938 580.890625 L 632.597656 526.671875 L 686.816406 685.683594 L 527.804688 739.902344 Z M 473.585938 580.890625 " clip-rule="nonzero"/></clipPath><clipPath id="id27"><path d="M 473.585938 580.890625 L 632.597656 526.671875 L 686.816406 685.683594 L 527.804688 739.902344 Z M 473.585938 580.890625 " clip-rule="nonzero"/></clipPath><clipPath id="id28"><path d="M 538 595 L 621 595 L 621 682 L 538 682 Z M 538 595 " clip-rule="nonzero"/></clipPath><clipPath id="id29"><path d="M 473.585938 580.890625 L 632.597656 526.671875 L 686.816406 685.683594 L 527.804688 739.902344 Z M 473.585938 580.890625 " clip-rule="nonzero"/></clipPath><clipPath id="id30"><path d="M 473.585938 580.890625 L 632.597656 526.671875 L 686.816406 685.683594 L 527.804688 739.902344 Z M 473.585938 580.890625 " clip-rule="nonzero"/></clipPath><clipPath id="id31"><path d="M 494 548 L 658 548 L 658 721 L 494 721 Z M 494 548 " clip-rule="nonzero"/></clipPath><clipPath id="id32"><path d="M 470.585938 577.890625 L 629.597656 523.671875 L 683.816406 682.683594 L 524.804688 736.902344 Z M 470.585938 577.890625 " clip-rule="nonzero"/></clipPath><clipPath id="id33"><path d="M 470.585938 577.890625 L 629.597656 523.671875 L 683.816406 682.683594 L 524.804688 736.902344 Z M 470.585938 577.890625 " clip-rule="nonzero"/></clipPath><clipPath id="id34"><path d="M 535 592 L 618 592 L 618 679 L 535 679 Z M 535 592 " clip-rule="nonzero"/></clipPath><clipPath id="id35"><path d="M 470.585938 577.890625 L 629.597656 523.671875 L 683.816406 682.683594 L 524.804688 736.902344 Z M 470.585938 577.890625 " clip-rule="nonzero"/></clipPath><clipPath id="id36"><path d="M 470.585938 577.890625 L 629.597656 523.671875 L 683.816406 682.683594 L 524.804688 736.902344 Z M 470.585938 577.890625 " clip-rule="nonzero"/></clipPath></defs><g clip-path="url(#id1)"><g clip-path="url(#id2)"><g clip-path="url(#id3)"><path fill="#efd3f7" d="M 454.078125 546.730469 C 451.925781 545.753906 449.390625 546.222656 447.730469 547.90625 L 440.085938 555.660156 L 436.078125 544.652344 C 435.304688 542.53125 433.34375 541.078125 431.09375 540.953125 C 411.640625 539.871094 396.121094 551.457031 391.550781 570.476562 C 390.515625 574.777344 390.070312 580.558594 390.167969 587.023438 C 384.328125 579.808594 378.289062 573.816406 373.308594 570.515625 C 357.617188 560.128906 337.832031 562.570312 324.074219 576.589844 C 322.414062 578.28125 321.988281 580.824219 323.003906 582.957031 L 327.679688 592.792969 L 315.960938 592.796875 C 313.707031 592.796875 311.667969 594.140625 310.78125 596.214844 C 303.109375 614.121094 308.691406 632.667969 325 643.46875 C 329.96875 646.757812 337.808594 649.96875 346.699219 652.527344 C 340.761719 654.945312 335.664062 657.59375 332.132812 660.207031 C 316.40625 671.839844 311.796875 690.652344 320.386719 708.136719 C 321.382812 710.160156 323.484375 711.398438 325.738281 711.28125 L 337.4375 710.675781 L 333.28125 720.742188 C 332.378906 722.925781 332.9375 725.445312 334.679688 727.042969 C 349.148438 740.332031 369.035156 741.742188 384.164062 730.554688 C 387.296875 728.234375 390.816406 724.746094 394.402344 720.519531 C 394.773438 724.964844 395.425781 728.90625 396.347656 732.03125 C 401.902344 750.785156 418.003906 761.554688 437.371094 759.460938 C 439.613281 759.21875 441.496094 757.664062 442.15625 755.507812 L 445.589844 744.304688 L 453.625 751.652344 C 455.371094 753.25 457.925781 753.585938 460.027344 752.496094 C 466.683594 749.039062 471.980469 744.25 475.695312 738.644531 C 481.703125 729.570312 483.550781 718.351562 480.25 707.195312 C 478.605469 701.644531 474.832031 694.40625 469.882812 686.964844 C 478.667969 688.617188 486.804688 689.265625 492.554688 688.609375 C 504.117188 687.296875 513.722656 681.21875 519.730469 672.140625 C 523.441406 666.535156 525.785156 659.785156 526.367188 652.308594 C 526.550781 649.953125 525.242188 647.730469 523.09375 646.746094 L 513.191406 642.214844 L 522.164062 634.683594 C 523.894531 633.234375 524.589844 630.894531 523.9375 628.734375 C 518.300781 610.085938 502.105469 599.464844 482.667969 601.671875 C 479.4375 602.039062 475.5625 602.980469 471.332031 604.363281 C 473.851562 599.378906 475.710938 594.734375 476.625 590.917969 C 481.023438 572.625 471.960938 554.867188 454.078125 546.730469 Z M 454.078125 546.730469 " fill-opacity="1" fill-rule="nonzero"/></g></g></g><g clip-path="url(#id4)"><g clip-path="url(#id5)"><g clip-path="url(#id6)"><path fill="#ffffff" d="M 424.527344 598.492188 C 419.371094 599.542969 416.027344 604.59375 417.074219 609.753906 C 417.371094 611.210938 417.996094 612.515625 418.84375 613.625 L 415.046875 625.332031 C 408.570312 625.238281 402.164062 627.648438 397.34375 632.253906 L 381.78125 621.953125 C 381.640625 619.019531 380.160156 616.183594 377.53125 614.441406 C 373.140625 611.535156 367.203125 612.742188 364.292969 617.132812 C 361.386719 621.523438 362.59375 627.460938 366.984375 630.367188 C 369.617188 632.109375 372.800781 632.367188 375.558594 631.351562 L 391.152344 641.679688 C 388.867188 647.871094 389.167969 654.640625 391.761719 660.507812 L 379.332031 671.257812 C 375.566406 670.398438 371.488281 671.875 369.234375 675.28125 C 366.324219 679.671875 367.53125 685.609375 371.921875 688.515625 C 376.3125 691.425781 382.25 690.21875 385.160156 685.828125 C 386.386719 683.972656 386.871094 681.847656 386.703125 679.789062 L 398.550781 669.542969 C 399.265625 670.140625 400.019531 670.710938 400.8125 671.234375 C 405.675781 674.457031 411.257812 675.742188 416.664062 675.300781 L 422.21875 690.351562 C 422.21875 690.355469 422.214844 690.355469 422.214844 690.359375 C 419.308594 694.75 420.511719 700.6875 424.902344 703.59375 C 429.292969 706.503906 435.230469 705.296875 438.140625 700.90625 C 441.046875 696.515625 439.839844 690.578125 435.449219 687.667969 C 434.613281 687.113281 433.714844 686.710938 432.796875 686.449219 L 427.421875 671.886719 C 430.574219 670.023438 433.363281 667.4375 435.515625 664.183594 C 437.660156 660.945312 438.949219 657.386719 439.441406 653.777344 L 455.664062 652.945312 C 457.839844 655.609375 461.375 657.011719 464.972656 656.28125 C 467.554688 655.757812 469.675781 654.230469 471.027344 652.195312 C 472.375 650.15625 472.949219 647.601562 472.425781 645.027344 C 471.921875 642.523438 470.46875 640.371094 468.339844 638.960938 C 466.214844 637.554688 463.667969 637.058594 461.167969 637.5625 C 461.167969 637.566406 461.167969 637.566406 461.164062 637.566406 C 461.164062 637.566406 461.160156 637.566406 461.160156 637.566406 C 458.660156 638.074219 456.511719 639.527344 455.105469 641.652344 C 455.097656 641.664062 455.089844 641.675781 455.082031 641.6875 L 438.410156 642.539062 C 436.714844 637.371094 433.34375 632.710938 428.464844 629.476562 C 427.664062 628.949219 426.847656 628.480469 426.015625 628.054688 L 429.652344 616.835938 C 431.585938 616.144531 433.242188 614.867188 434.398438 613.125 C 435.804688 610.996094 436.300781 608.449219 435.792969 605.957031 C 435.289062 603.453125 433.835938 601.300781 431.707031 599.890625 C 429.578125 598.480469 427.03125 597.984375 424.527344 598.492188 Z M 424.527344 598.492188 " fill-opacity="1" fill-rule="nonzero"/></g></g></g><g clip-path="url(#id7)"><g clip-path="url(#id8)"><g clip-path="url(#id9)"><path fill="#dd9fee" d="M 452.945312 534.339844 C 450.792969 533.363281 448.257812 533.832031 446.597656 535.515625 L 438.953125 543.269531 L 434.945312 532.261719 C 434.171875 530.140625 432.210938 528.6875 429.960938 528.5625 C 410.507812 527.480469 394.988281 539.066406 390.417969 558.085938 C 389.382812 562.386719 388.9375 568.167969 389.03125 574.632812 C 383.195312 567.417969 377.15625 561.425781 372.171875 558.125 C 356.484375 547.738281 336.699219 550.179688 322.941406 564.199219 C 321.28125 565.890625 320.855469 568.433594 321.871094 570.566406 L 326.542969 580.402344 L 314.828125 580.40625 C 312.574219 580.40625 310.535156 581.75 309.648438 583.824219 C 301.976562 601.730469 307.558594 620.277344 323.867188 631.078125 C 328.835938 634.367188 336.675781 637.578125 345.566406 640.136719 C 339.628906 642.554688 334.53125 645.203125 331 647.816406 C 315.273438 659.449219 310.664062 678.261719 319.253906 695.746094 C 320.246094 697.769531 322.351562 699.007812 324.605469 698.890625 L 336.304688 698.285156 L 332.148438 708.347656 C 331.246094 710.535156 331.804688 713.054688 333.546875 714.652344 C 348.015625 727.941406 367.902344 729.351562 383.03125 718.164062 C 386.164062 715.84375 389.683594 712.355469 393.265625 708.128906 C 393.640625 712.574219 394.292969 716.515625 395.214844 719.640625 C 400.769531 738.394531 416.871094 749.164062 436.238281 747.070312 C 438.480469 746.828125 440.363281 745.273438 441.023438 743.117188 L 444.457031 731.914062 L 452.492188 739.261719 C 454.238281 740.859375 456.792969 741.195312 458.890625 740.105469 C 465.550781 736.648438 470.847656 731.859375 474.558594 726.253906 C 480.570312 717.179688 482.417969 705.960938 479.113281 694.804688 C 477.472656 689.253906 473.699219 682.015625 468.75 674.574219 C 477.535156 676.226562 485.671875 676.875 491.421875 676.21875 C 502.980469 674.90625 512.589844 668.828125 518.597656 659.75 C 522.308594 654.144531 524.652344 647.394531 525.234375 639.917969 C 525.417969 637.5625 524.109375 635.339844 521.960938 634.355469 L 512.058594 629.824219 L 521.03125 622.292969 C 522.757812 620.84375 523.457031 618.503906 522.804688 616.34375 C 517.167969 597.695312 500.96875 587.074219 481.535156 589.28125 C 478.304688 589.648438 474.429688 590.589844 470.199219 591.972656 C 472.71875 586.988281 474.578125 582.34375 475.492188 578.527344 C 479.890625 560.234375 470.828125 542.476562 452.945312 534.339844 Z M 452.945312 534.339844 " fill-opacity="1" fill-rule="nonzero"/></g></g></g><g clip-path="url(#id10)"><g clip-path="url(#id11)"><g clip-path="url(#id12)"><path fill="#ffffff" d="M 423.394531 586.101562 C 418.238281 587.152344 414.894531 592.203125 415.941406 597.363281 C 416.238281 598.820312 416.863281 600.125 417.707031 601.234375 L 413.914062 612.941406 C 407.4375 612.847656 401.03125 615.257812 396.207031 619.863281 L 380.648438 609.5625 C 380.503906 606.625 379.027344 603.792969 376.398438 602.050781 C 372.003906 599.144531 366.066406 600.351562 363.160156 604.742188 C 360.253906 609.132812 361.460938 615.070312 365.851562 617.976562 C 368.484375 619.71875 371.667969 619.976562 374.425781 618.960938 L 390.019531 629.289062 C 387.730469 635.480469 388.035156 642.25 390.628906 648.117188 L 378.195312 658.867188 C 374.429688 658.007812 370.355469 659.484375 368.097656 662.890625 C 365.191406 667.28125 366.398438 673.21875 370.789062 676.125 C 375.179688 679.035156 381.117188 677.828125 384.023438 673.4375 C 385.253906 671.582031 385.738281 669.457031 385.570312 667.394531 L 397.417969 657.152344 C 398.132812 657.75 398.882812 658.320312 399.679688 658.84375 C 404.539062 662.066406 410.125 663.351562 415.53125 662.910156 L 421.085938 677.960938 C 421.085938 677.964844 421.082031 677.964844 421.082031 677.96875 C 418.171875 682.359375 419.378906 688.296875 423.769531 691.203125 C 428.160156 694.109375 434.097656 692.90625 437.007812 688.515625 C 439.914062 684.125 438.707031 678.1875 434.316406 675.277344 C 433.476562 674.722656 432.582031 674.320312 431.664062 674.058594 L 426.289062 659.496094 C 429.441406 657.632812 432.230469 655.046875 434.382812 651.792969 C 436.527344 648.554688 437.816406 644.996094 438.308594 641.386719 L 454.53125 640.554688 C 456.703125 643.21875 460.242188 644.621094 463.839844 643.890625 C 466.417969 643.367188 468.542969 641.839844 469.894531 639.804688 C 471.242188 637.765625 471.816406 635.210938 471.292969 632.636719 C 470.785156 630.132812 469.335938 627.980469 467.207031 626.570312 C 465.082031 625.164062 462.535156 624.667969 460.035156 625.171875 C 460.035156 625.171875 460.03125 625.171875 460.03125 625.175781 C 460.03125 625.175781 460.027344 625.175781 460.027344 625.175781 C 457.527344 625.683594 455.378906 627.136719 453.96875 629.261719 C 453.960938 629.273438 453.957031 629.285156 453.949219 629.296875 L 437.277344 630.148438 C 435.582031 624.980469 432.207031 620.316406 427.328125 617.085938 C 426.53125 616.558594 425.714844 616.089844 424.882812 615.664062 L 428.519531 604.445312 C 430.453125 603.753906 432.109375 602.476562 433.261719 600.734375 C 434.671875 598.605469 435.167969 596.058594 434.660156 593.566406 C 434.152344 591.0625 432.703125 588.910156 430.574219 587.5 C 428.445312 586.089844 425.898438 585.59375 423.394531 586.101562 Z M 423.394531 586.101562 " fill-opacity="1" fill-rule="nonzero"/></g></g></g><g clip-path="url(#id13)"><g clip-path="url(#id14)"><g clip-path="url(#id15)"><path fill="#ffabd1" d="M 451.511719 517.144531 C 449.328125 516.152344 446.757812 516.628906 445.074219 518.335938 L 437.328125 526.199219 L 433.265625 515.039062 C 432.480469 512.890625 430.496094 511.414062 428.210938 511.289062 C 408.492188 510.191406 392.761719 521.9375 388.128906 541.214844 C 387.078125 545.578125 386.625 551.433594 386.722656 557.988281 C 380.804688 550.675781 374.683594 544.601562 369.632812 541.257812 C 353.730469 530.726562 333.675781 533.199219 319.726562 547.414062 C 318.046875 549.125 317.613281 551.703125 318.640625 553.867188 L 323.378906 563.839844 L 311.503906 563.839844 C 309.214844 563.839844 307.148438 565.203125 306.25 567.304688 C 298.472656 585.457031 304.132812 604.261719 320.664062 615.207031 C 325.699219 618.542969 333.652344 621.796875 342.660156 624.390625 C 336.644531 626.84375 331.476562 629.527344 327.894531 632.175781 C 311.957031 643.964844 307.28125 663.039062 315.988281 680.761719 C 316.996094 682.816406 319.128906 684.070312 321.414062 683.949219 L 333.273438 683.335938 L 329.0625 693.539062 C 328.144531 695.753906 328.710938 698.304688 330.476562 699.925781 C 345.144531 713.398438 365.304688 714.828125 380.636719 703.484375 C 383.8125 701.136719 387.382812 697.597656 391.015625 693.316406 C 391.394531 697.820312 392.054688 701.816406 392.992188 704.984375 C 398.621094 723.996094 414.941406 734.910156 434.574219 732.789062 C 436.847656 732.542969 438.753906 730.96875 439.425781 728.78125 L 442.90625 717.425781 L 451.050781 724.875 C 452.820312 726.492188 455.414062 726.832031 457.539062 725.726562 C 464.289062 722.226562 469.660156 717.371094 473.421875 711.6875 C 479.515625 702.488281 481.386719 691.117188 478.039062 679.808594 C 476.375 674.179688 472.550781 666.84375 467.53125 659.300781 C 476.4375 660.972656 484.683594 661.632812 490.515625 660.96875 C 502.234375 659.636719 511.972656 653.476562 518.0625 644.273438 C 521.824219 638.589844 524.199219 631.75 524.789062 624.171875 C 524.976562 621.78125 523.652344 619.527344 521.472656 618.527344 L 511.433594 613.9375 L 520.53125 606.300781 C 522.28125 604.832031 522.988281 602.460938 522.328125 600.269531 C 516.617188 581.367188 500.195312 570.601562 480.496094 572.839844 C 477.21875 573.210938 473.289062 574.164062 469.003906 575.570312 C 471.554688 570.511719 473.441406 565.804688 474.367188 561.9375 C 478.824219 543.394531 469.640625 525.390625 451.511719 517.144531 Z M 451.511719 517.144531 " fill-opacity="1" fill-rule="nonzero"/></g></g></g><g clip-path="url(#id16)"><g clip-path="url(#id17)"><g clip-path="url(#id18)"><path fill="#ffffff" d="M 421.558594 569.617188 C 416.328125 570.683594 412.9375 575.800781 414.003906 581.03125 C 414.300781 582.507812 414.933594 583.832031 415.792969 584.957031 L 411.945312 596.824219 C 405.378906 596.726562 398.886719 599.171875 393.996094 603.839844 L 378.226562 593.394531 C 378.078125 590.421875 376.582031 587.550781 373.914062 585.785156 C 369.464844 582.835938 363.445312 584.058594 360.496094 588.511719 C 357.550781 592.960938 358.773438 598.980469 363.222656 601.929688 C 365.890625 603.695312 369.121094 603.953125 371.914062 602.925781 L 387.722656 613.394531 C 385.40625 619.671875 385.710938 626.53125 388.339844 632.480469 L 375.738281 643.375 C 371.921875 642.503906 367.789062 644.003906 365.503906 647.457031 C 362.554688 651.90625 363.777344 657.925781 368.230469 660.875 C 372.679688 663.820312 378.699219 662.597656 381.648438 658.148438 C 382.890625 656.269531 383.382812 654.113281 383.214844 652.023438 L 395.222656 641.640625 C 395.949219 642.246094 396.710938 642.820312 397.515625 643.355469 C 402.445312 646.617188 408.105469 647.925781 413.582031 647.476562 L 419.214844 662.734375 C 419.214844 662.734375 419.210938 662.738281 419.210938 662.742188 C 416.261719 667.191406 417.488281 673.210938 421.9375 676.15625 C 426.386719 679.105469 432.40625 677.882812 435.355469 673.429688 C 438.300781 668.980469 437.078125 662.960938 432.628906 660.011719 C 431.777344 659.449219 430.871094 659.042969 429.9375 658.777344 L 424.488281 644.015625 C 427.683594 642.125 430.511719 639.503906 432.695312 636.207031 C 434.867188 632.925781 436.175781 629.320312 436.675781 625.65625 L 453.121094 624.816406 C 455.324219 627.515625 458.910156 628.9375 462.554688 628.195312 C 465.171875 627.664062 467.324219 626.117188 468.691406 624.050781 C 470.058594 621.984375 470.640625 619.398438 470.113281 616.789062 C 469.597656 614.25 468.125 612.066406 465.96875 610.640625 C 463.8125 609.210938 461.234375 608.710938 458.699219 609.222656 C 458.699219 609.222656 458.695312 609.222656 458.695312 609.222656 C 458.691406 609.222656 458.691406 609.222656 458.691406 609.222656 C 458.691406 609.226562 458.691406 609.222656 458.691406 609.222656 C 456.15625 609.738281 453.976562 611.210938 452.550781 613.367188 C 452.542969 613.378906 452.535156 613.390625 452.527344 613.402344 L 435.628906 614.265625 C 433.910156 609.023438 430.492188 604.300781 425.546875 601.027344 C 424.738281 600.492188 423.90625 600.011719 423.0625 599.582031 L 426.75 588.207031 C 428.710938 587.511719 430.390625 586.214844 431.558594 584.449219 C 432.988281 582.292969 433.492188 579.707031 432.976562 577.179688 C 432.460938 574.644531 430.992188 572.460938 428.832031 571.03125 C 426.675781 569.601562 424.09375 569.101562 421.558594 569.617188 Z M 421.558594 569.617188 " fill-opacity="1" fill-rule="nonzero"/></g></g></g><path fill="#b2b2b2" d="M 621.304688 809.554688 C 620.808594 806.449219 618.429688 803.984375 615.347656 803.382812 L 601.148438 800.601562 L 610.402344 788.085938 C 612.183594 785.675781 612.359375 782.4375 610.84375 779.847656 C 597.773438 757.503906 573.550781 748.8125 549.125 757.699219 C 543.601562 759.710938 536.871094 763.453125 529.777344 768.304688 C 533.484375 756.542969 535.695312 745.457031 535.695312 737.515625 C 535.695312 712.515625 518.476562 692.386719 492.847656 687.425781 C 489.761719 686.832031 486.632812 688.222656 485.011719 690.914062 L 477.542969 703.308594 L 468.945312 690.328125 C 467.289062 687.832031 464.304688 686.558594 461.355469 687.097656 C 435.890625 691.734375 419.433594 711.527344 419.433594 737.515625 C 419.433594 745.4375 421.632812 756.480469 425.320312 768.203125 C 418.285156 763.398438 411.609375 759.695312 406.121094 757.699219 C 381.703125 748.8125 357.472656 757.503906 344.40625 779.851562 C 342.890625 782.4375 343.066406 785.675781 344.847656 788.085938 L 354.101562 800.601562 L 339.902344 803.382812 C 336.820312 803.984375 334.441406 806.449219 333.945312 809.554688 C 329.839844 835.335938 342.863281 858.398438 366.359375 866.953125 C 371.222656 868.722656 377.675781 870.0625 384.984375 870.933594 C 380.335938 874.605469 376.445312 878.21875 373.660156 881.535156 C 356.957031 901.445312 356.839844 927.183594 373.367188 947.109375 C 375.28125 949.414062 378.382812 950.359375 381.257812 949.507812 L 396.1875 945.09375 L 393.941406 959.386719 C 393.453125 962.492188 394.957031 965.570312 397.703125 967.097656 C 406.417969 971.9375 415.609375 974.292969 424.542969 974.292969 C 439.007812 974.292969 452.789062 968.109375 462.726562 956.269531 C 467.671875 950.375 472.921875 940.886719 477.535156 929.941406 C 482.152344 940.886719 487.402344 950.375 492.347656 956.269531 C 502.285156 968.109375 516.0625 974.292969 530.53125 974.292969 C 539.460938 974.292969 548.65625 971.933594 557.367188 967.097656 C 560.117188 965.570312 561.617188 962.492188 561.132812 959.386719 L 558.886719 945.09375 L 573.816406 949.507812 C 576.6875 950.359375 579.792969 949.414062 581.707031 947.109375 C 598.230469 927.183594 598.117188 901.445312 581.410156 881.535156 C 578.632812 878.222656 574.75 874.617188 570.113281 870.953125 C 577.484375 870.082031 583.992188 868.734375 588.890625 866.953125 C 612.386719 858.398438 625.410156 835.332031 621.304688 809.554688 Z M 621.304688 809.554688 " fill-opacity="1" fill-rule="nonzero"/><path fill="#ffffff" d="M 542.277344 814.789062 C 537.332031 809.847656 529.28125 809.847656 524.335938 814.792969 C 522.941406 816.191406 521.953125 817.839844 521.34375 819.589844 L 505.585938 823.972656 C 500.941406 816.730469 493.570312 811.398438 484.929688 809.4375 L 484.929688 784.640625 C 488.074219 782.328125 490.128906 778.613281 490.128906 774.421875 C 490.128906 767.421875 484.4375 761.730469 477.441406 761.730469 C 470.441406 761.730469 464.75 767.421875 464.75 774.421875 C 464.75 778.613281 466.804688 782.328125 469.949219 784.640625 L 469.949219 809.496094 C 461.410156 811.503906 454.136719 816.804688 449.535156 823.984375 L 428.507812 818.097656 C 426.699219 813.292969 422.066406 809.863281 416.640625 809.863281 C 409.644531 809.863281 403.949219 815.554688 403.949219 822.550781 C 403.949219 829.550781 409.644531 835.242188 416.640625 835.242188 C 419.59375 835.242188 422.308594 834.21875 424.464844 832.523438 L 444.507812 838.132812 C 444.367188 839.363281 444.289062 840.613281 444.289062 841.878906 C 444.289062 849.628906 446.960938 856.761719 451.417969 862.421875 L 438.816406 879.621094 C 438.8125 879.621094 438.808594 879.621094 438.804688 879.621094 C 431.808594 879.621094 426.113281 885.3125 426.113281 892.308594 C 426.113281 899.308594 431.808594 905 438.804688 905 C 445.800781 905 451.496094 899.308594 451.496094 892.308594 C 451.496094 890.972656 451.285156 889.6875 450.898438 888.476562 L 463.089844 871.835938 C 467.46875 873.960938 472.378906 875.15625 477.566406 875.15625 C 482.722656 875.15625 487.609375 873.972656 491.972656 871.871094 L 504.792969 889.234375 C 503.4375 893.59375 504.480469 898.542969 507.929688 901.992188 C 510.402344 904.464844 513.648438 905.699219 516.898438 905.699219 C 520.144531 905.699219 523.394531 904.464844 525.867188 901.992188 C 528.265625 899.597656 529.585938 896.410156 529.585938 893.015625 C 529.585938 889.628906 528.269531 886.441406 525.875 884.046875 C 525.871094 884.042969 525.871094 884.042969 525.871094 884.042969 C 525.867188 884.039062 525.867188 884.039062 525.867188 884.039062 C 525.867188 884.039062 525.867188 884.039062 525.867188 884.035156 C 523.46875 881.644531 520.285156 880.324219 516.898438 880.324219 C 516.878906 880.324219 516.859375 880.328125 516.839844 880.328125 L 503.664062 862.480469 C 508.148438 856.8125 510.839844 849.65625 510.839844 841.878906 C 510.839844 840.609375 510.761719 839.355469 510.621094 838.121094 L 525.71875 833.921875 C 527.902344 835.558594 530.53125 836.457031 533.308594 836.457031 C 536.699219 836.457031 539.886719 835.136719 542.277344 832.746094 C 544.675781 830.347656 546 827.160156 546 823.765625 C 546 820.375 544.679688 817.1875 542.277344 814.789062 Z M 542.277344 814.789062 " fill-opacity="1" fill-rule="nonzero"/><path fill="#595959" d="M 611.71875 799.125 C 611.222656 796.023438 608.84375 793.558594 605.761719 792.953125 L 591.5625 790.175781 L 600.816406 777.65625 C 602.597656 775.246094 602.773438 772.007812 601.257812 769.421875 C 588.1875 747.078125 563.964844 738.382812 539.542969 747.273438 C 534.015625 749.285156 527.285156 753.027344 520.195312 757.878906 C 523.902344 746.117188 526.113281 735.03125 526.113281 727.089844 C 526.113281 702.085938 508.890625 681.957031 483.261719 677 C 480.175781 676.402344 477.046875 677.796875 475.425781 680.488281 L 467.957031 692.882812 L 459.359375 679.902344 C 457.703125 677.402344 454.71875 676.132812 451.773438 676.667969 C 426.304688 681.308594 409.847656 701.101562 409.847656 727.089844 C 409.847656 735.007812 412.046875 746.050781 415.734375 757.773438 C 408.699219 752.972656 402.023438 749.269531 396.539062 747.273438 C 372.117188 738.382812 347.890625 747.078125 334.820312 769.421875 C 333.304688 772.007812 333.480469 775.25 335.261719 777.660156 L 344.515625 790.175781 L 330.316406 792.953125 C 327.234375 793.558594 324.855469 796.023438 324.359375 799.128906 C 320.253906 824.90625 333.277344 847.972656 356.773438 856.523438 C 361.640625 858.296875 368.089844 859.636719 375.398438 860.507812 C 370.75 864.179688 366.859375 867.792969 364.078125 871.109375 C 347.371094 891.019531 347.253906 916.757812 363.78125 936.679688 C 365.695312 938.988281 368.796875 939.929688 371.671875 939.082031 L 386.601562 934.664062 L 384.355469 948.960938 C 383.867188 952.0625 385.371094 955.144531 388.117188 956.667969 C 396.832031 961.507812 406.023438 963.867188 414.957031 963.867188 C 429.421875 963.867188 443.203125 957.683594 453.140625 945.839844 C 458.085938 939.949219 463.335938 930.457031 467.953125 919.515625 C 472.566406 930.457031 477.816406 939.949219 482.761719 945.839844 C 492.699219 957.683594 506.476562 963.867188 520.945312 963.867188 C 529.875 963.867188 539.074219 961.507812 547.785156 956.667969 C 550.53125 955.144531 552.035156 952.0625 551.546875 948.957031 L 549.300781 934.664062 L 564.230469 939.082031 C 567.101562 939.933594 570.207031 938.988281 572.121094 936.679688 C 588.648438 916.757812 588.53125 891.019531 571.824219 871.109375 C 569.046875 867.796875 565.164062 864.191406 560.527344 860.523438 C 567.898438 859.652344 574.40625 858.308594 579.308594 856.523438 C 602.800781 847.972656 615.824219 824.90625 611.71875 799.125 Z M 611.71875 799.125 " fill-opacity="1" fill-rule="nonzero"/><path fill="#ffffff" d="M 532.695312 804.363281 C 527.746094 799.417969 519.699219 799.421875 514.75 804.367188 C 513.355469 805.761719 512.367188 807.410156 511.757812 809.164062 L 496.003906 813.546875 C 491.355469 806.300781 483.988281 800.972656 475.34375 799.011719 L 475.34375 774.214844 C 478.492188 771.902344 480.546875 768.1875 480.546875 763.992188 C 480.546875 756.996094 474.851562 751.304688 467.855469 751.304688 C 460.855469 751.304688 455.164062 756.996094 455.164062 763.992188 C 455.164062 768.1875 457.21875 771.902344 460.363281 774.214844 L 460.363281 799.066406 C 451.828125 801.074219 444.550781 806.378906 439.949219 813.558594 L 418.921875 807.667969 C 417.113281 802.867188 412.484375 799.433594 407.054688 799.433594 C 400.058594 799.433594 394.363281 805.128906 394.363281 812.125 C 394.363281 819.121094 400.058594 824.816406 407.054688 824.816406 C 410.007812 824.816406 412.722656 823.792969 414.878906 822.09375 L 434.921875 827.707031 C 434.78125 828.9375 434.707031 830.1875 434.707031 831.453125 C 434.707031 839.203125 437.375 846.332031 441.832031 851.996094 L 429.230469 869.195312 C 429.226562 869.195312 429.222656 869.191406 429.21875 869.191406 C 422.222656 869.191406 416.53125 874.886719 416.53125 881.882812 C 416.53125 888.878906 422.222656 894.574219 429.21875 894.574219 C 436.21875 894.574219 441.910156 888.882812 441.910156 881.882812 C 441.910156 880.546875 441.699219 879.257812 441.316406 878.046875 L 453.503906 861.410156 C 457.882812 863.535156 462.796875 864.726562 467.980469 864.726562 C 473.136719 864.726562 478.027344 863.546875 482.386719 861.445312 L 495.207031 878.804688 C 493.855469 883.167969 494.894531 888.117188 498.34375 891.566406 C 500.816406 894.039062 504.066406 895.273438 507.3125 895.273438 C 510.5625 895.273438 513.808594 894.035156 516.28125 891.566406 C 518.679688 889.167969 520 885.980469 520 882.589844 C 520 879.199219 518.683594 876.015625 516.289062 873.621094 C 516.289062 873.621094 516.289062 873.617188 516.289062 873.617188 C 516.289062 873.617188 516.285156 873.617188 516.285156 873.613281 C 516.285156 873.613281 516.28125 873.613281 516.28125 873.609375 C 513.882812 871.214844 510.699219 869.898438 507.3125 869.898438 C 507.292969 869.898438 507.273438 869.902344 507.253906 869.902344 L 494.078125 852.054688 C 498.566406 846.382812 501.253906 839.226562 501.253906 831.453125 C 501.253906 830.179688 501.175781 828.929688 501.035156 827.695312 L 516.132812 823.496094 C 518.316406 825.132812 520.945312 826.03125 523.722656 826.03125 C 527.117188 826.03125 530.304688 824.707031 532.691406 822.316406 C 535.09375 819.921875 536.414062 816.730469 536.414062 813.339844 C 536.414062 809.949219 535.09375 806.761719 532.695312 804.363281 Z M 532.695312 804.363281 " fill-opacity="1" fill-rule="nonzero"/><path fill="#fe7ab6" d="M 597.980469 786.875 C 597.484375 783.773438 595.105469 781.308594 592.019531 780.703125 L 577.820312 777.925781 L 587.078125 765.40625 C 588.859375 762.996094 589.03125 759.757812 587.519531 757.171875 C 574.449219 734.828125 550.222656 726.132812 525.800781 735.023438 C 520.277344 737.03125 513.546875 740.777344 506.453125 745.628906 C 510.160156 733.867188 512.371094 722.78125 512.371094 714.839844 C 512.371094 689.835938 495.152344 669.707031 469.523438 664.75 C 466.4375 664.152344 463.308594 665.546875 461.683594 668.238281 L 454.214844 680.632812 L 445.617188 667.652344 C 443.964844 665.152344 440.980469 663.882812 438.03125 664.417969 C 412.566406 669.058594 396.109375 688.847656 396.109375 714.839844 C 396.109375 722.757812 398.308594 733.800781 401.996094 745.523438 C 394.957031 740.722656 388.285156 737.019531 382.796875 735.023438 C 358.375 726.132812 334.148438 734.828125 321.078125 757.171875 C 319.566406 759.757812 319.742188 763 321.523438 765.40625 L 330.777344 777.925781 L 316.578125 780.703125 C 313.492188 781.308594 311.113281 783.773438 310.621094 786.878906 C 306.511719 812.65625 319.539062 835.722656 343.035156 844.273438 C 347.898438 846.046875 354.351562 847.386719 361.660156 848.257812 C 357.011719 851.929688 353.121094 855.542969 350.335938 858.859375 C 333.632812 878.769531 333.515625 904.507812 350.042969 924.429688 C 351.957031 926.738281 355.058594 927.679688 357.933594 926.832031 L 372.859375 922.414062 L 370.617188 936.710938 C 370.128906 939.8125 371.632812 942.894531 374.378906 944.417969 C 383.089844 949.257812 392.285156 951.617188 401.21875 951.617188 C 415.683594 951.617188 429.464844 945.433594 439.402344 933.589844 C 444.347656 927.699219 449.597656 918.207031 454.210938 907.265625 C 458.824219 918.207031 464.078125 927.699219 469.023438 933.589844 C 478.957031 945.433594 492.738281 951.617188 507.207031 951.617188 C 516.136719 951.617188 525.332031 949.257812 534.042969 944.417969 C 536.792969 942.894531 538.292969 939.8125 537.804688 936.707031 L 535.5625 922.414062 L 550.488281 926.832031 C 553.363281 927.683594 556.464844 926.738281 558.378906 924.429688 C 574.90625 904.507812 574.792969 878.769531 558.085938 858.859375 C 555.304688 855.546875 551.421875 851.941406 546.785156 848.273438 C 554.160156 847.402344 560.667969 846.058594 565.566406 844.273438 C 589.058594 835.722656 602.085938 812.65625 597.980469 786.875 Z M 597.980469 786.875 " fill-opacity="1" fill-rule="nonzero"/><path fill="#ffffff" d="M 518.953125 792.113281 C 514.003906 787.167969 505.957031 787.167969 501.011719 792.117188 C 499.613281 793.511719 498.625 795.160156 498.019531 796.914062 L 482.261719 801.296875 C 477.617188 794.050781 470.246094 788.722656 461.605469 786.761719 L 461.605469 761.964844 C 464.75 759.652344 466.804688 755.9375 466.804688 751.742188 C 466.804688 744.746094 461.113281 739.054688 454.113281 739.054688 C 447.117188 739.054688 441.425781 744.746094 441.425781 751.742188 C 441.425781 755.9375 443.480469 759.652344 446.625 761.964844 L 446.625 786.816406 C 438.085938 788.824219 430.808594 794.128906 426.210938 801.308594 L 405.183594 795.417969 C 403.371094 790.617188 398.742188 787.183594 393.316406 787.183594 C 386.316406 787.183594 380.625 792.875 380.625 799.875 C 380.625 806.871094 386.316406 812.566406 393.316406 812.566406 C 396.269531 812.566406 398.980469 811.542969 401.140625 809.84375 L 421.183594 815.457031 C 421.042969 816.6875 420.964844 817.9375 420.964844 819.203125 C 420.964844 826.949219 423.636719 834.082031 428.09375 839.746094 L 415.492188 856.941406 C 415.488281 856.941406 415.484375 856.941406 415.480469 856.941406 C 408.484375 856.941406 402.789062 862.636719 402.789062 869.632812 C 402.789062 876.628906 408.484375 882.324219 415.480469 882.324219 C 422.476562 882.324219 428.171875 876.628906 428.171875 869.632812 C 428.171875 868.296875 427.960938 867.007812 427.574219 865.796875 L 439.765625 849.160156 C 444.144531 851.285156 449.054688 852.476562 454.238281 852.476562 C 459.398438 852.476562 464.285156 851.296875 468.648438 849.191406 L 481.46875 866.554688 C 480.113281 870.917969 481.152344 875.867188 484.601562 879.316406 C 487.078125 881.789062 490.324219 883.023438 493.574219 883.023438 C 496.820312 883.023438 500.070312 881.785156 502.539062 879.316406 C 504.941406 876.917969 506.261719 873.730469 506.261719 870.339844 C 506.261719 866.949219 504.941406 863.765625 502.550781 861.371094 C 502.550781 861.371094 502.550781 861.367188 502.546875 861.367188 C 502.546875 861.367188 502.546875 861.367188 502.542969 861.363281 C 502.542969 861.363281 502.542969 861.363281 502.539062 861.359375 C 500.144531 858.964844 496.957031 857.648438 493.570312 857.648438 C 493.550781 857.648438 493.535156 857.648438 493.515625 857.648438 L 480.339844 839.804688 C 484.824219 834.132812 487.511719 826.976562 487.511719 819.203125 C 487.511719 817.929688 487.433594 816.679688 487.296875 815.445312 L 502.394531 811.246094 C 504.574219 812.882812 507.207031 813.777344 509.984375 813.777344 C 513.375 813.777344 516.5625 812.457031 518.953125 810.066406 C 521.351562 807.671875 522.671875 804.480469 522.671875 801.089844 C 522.675781 797.699219 521.355469 794.507812 518.953125 792.113281 Z M 518.953125 792.113281 " fill-opacity="1" fill-rule="nonzero"/><g fill="#ff00ff" fill-opacity="1"><g transform="translate(510.209821, 828.087101)"><g><path d="M 9.71875 -34.296875 L 39.421875 -37.265625 C 39.421875 -34.023438 41.082031 -30.960938 44.40625 -28.078125 C 47.738281 -25.203125 52.828125 -23.765625 59.671875 -23.765625 C 65.609375 -23.765625 70.195312 -25.25 73.4375 -28.21875 C 76.675781 -31.1875 78.296875 -34.648438 78.296875 -38.609375 C 78.296875 -43.828125 76.179688 -48.007812 71.953125 -51.15625 C 67.722656 -54.3125 62.546875 -56.832031 56.421875 -58.71875 C 50.304688 -60.613281 44.144531 -62.773438 37.9375 -65.203125 C 31.726562 -67.628906 26.238281 -71.632812 21.46875 -77.21875 C 16.695312 -82.800781 13.859375 -89.910156 12.953125 -98.546875 C 12.773438 -99.628906 12.6875 -100.710938 12.6875 -101.796875 C 12.6875 -110.609375 16.195312 -118.707031 23.21875 -126.09375 C 30.78125 -134.375 42.75 -138.515625 59.125 -138.515625 C 64.882812 -138.515625 70.285156 -137.835938 75.328125 -136.484375 C 80.367188 -135.128906 83.96875 -133.820312 86.125 -132.5625 L 89.375 -130.6875 L 80.734375 -103.140625 C 76.585938 -107.273438 69.382812 -109.34375 59.125 -109.34375 C 54.082031 -109.34375 50.347656 -108.625 47.921875 -107.1875 C 45.492188 -105.75 44.414062 -104.175781 44.6875 -102.46875 C 44.957031 -100.757812 45.09375 -99.273438 45.09375 -98.015625 C 45.632812 -95.304688 48.285156 -92.828125 53.046875 -90.578125 C 57.816406 -88.328125 63.257812 -86.125 69.375 -83.96875 C 75.5 -81.8125 81.625 -79.113281 87.75 -75.875 C 93.875 -72.632812 99.050781 -67.769531 103.28125 -61.28125 C 107.507812 -54.800781 109.625 -47.0625 109.625 -38.0625 C 109.625 -26.363281 105.390625 -16.421875 96.921875 -8.234375 C 88.460938 -0.046875 76.046875 4.046875 59.671875 4.046875 C 44.367188 4.046875 32.304688 0.359375 23.484375 -7.015625 C 14.671875 -14.398438 10.082031 -23.492188 9.71875 -34.296875 Z M 9.71875 -34.296875 "/></g></g></g><g fill="#ff00ff" fill-opacity="1"><g transform="translate(621.179622, 828.087101)"><g><path d="M 113.9375 -80.453125 L 113.9375 0 C 95.21875 1.800781 80.28125 2.703125 69.125 2.703125 C 64.082031 2.703125 59.851562 2.519531 56.4375 2.15625 C 26.914062 -1.082031 11.429688 -15.75 9.984375 -41.84375 C 9.984375 -43.101562 9.984375 -44.363281 9.984375 -45.625 L 9.984375 -68.046875 C 9.984375 -85.859375 16.195312 -97.828125 28.625 -103.953125 C 33.84375 -106.828125 39.78125 -108.265625 46.4375 -108.265625 C 47.519531 -108.265625 48.507812 -108.175781 49.40625 -108 C 57.332031 -107.632812 64.171875 -106.6875 69.921875 -105.15625 C 75.679688 -103.632812 80.453125 -101.789062 84.234375 -99.625 C 84.234375 -111.144531 74.601562 -116.90625 55.34375 -116.90625 L 57.78125 -137.4375 C 64.625 -137.4375 70.789062 -137.03125 76.28125 -136.21875 C 81.769531 -135.40625 86.398438 -134.050781 90.171875 -132.15625 C 93.953125 -130.269531 97.28125 -128.335938 100.15625 -126.359375 C 103.039062 -124.378906 105.289062 -121.769531 106.90625 -118.53125 C 108.53125 -115.289062 109.882812 -112.453125 110.96875 -110.015625 C 112.050781 -107.585938 112.769531 -104.300781 113.125 -100.15625 C 113.488281 -96.019531 113.710938 -92.78125 113.796875 -90.4375 C 113.890625 -88.101562 113.9375 -84.773438 113.9375 -80.453125 Z M 84.234375 -26.1875 L 84.234375 -68.046875 C 81.359375 -70.023438 77.625 -71.867188 73.03125 -73.578125 C 68.445312 -75.285156 63.539062 -76.585938 58.3125 -77.484375 C 56.875 -77.671875 55.4375 -77.765625 54 -77.765625 C 50.757812 -77.765625 47.878906 -77.039062 45.359375 -75.59375 C 41.753906 -73.4375 39.953125 -69.660156 39.953125 -64.265625 L 39.953125 -49.40625 C 39.953125 -32.84375 49.492188 -24.5625 68.578125 -24.5625 C 73.253906 -24.5625 78.472656 -25.101562 84.234375 -26.1875 Z M 84.234375 -26.1875 "/></g></g></g><g fill="#ff00ff" fill-opacity="1"><g transform="translate(739.4394, 828.087101)"><g><path d="M 128.515625 0 L 91.265625 0 L 50.765625 -68.578125 L 46.984375 -64.796875 L 46.984375 0 L 17.28125 0 L 17.28125 -189 L 46.984375 -189 L 46.984375 -103.140625 L 87.203125 -140.40625 L 109.078125 -119.609375 L 73.703125 -89.640625 C 99.984375 -46.253906 118.253906 -16.375 128.515625 0 Z M 128.515625 0 "/></g></g></g><g fill="#ff00ff" fill-opacity="1"><g transform="translate(862.019208, 828.087101)"><g><path d="M 110.4375 0 L 82.625 0 L 80.734375 -1.625 C 72.628906 1.4375 65.878906 2.96875 60.484375 2.96875 C 26.640625 2.96875 9.71875 -13.5 9.71875 -46.4375 L 9.71875 -135.265625 L 39.421875 -135.265625 L 39.421875 -50.765625 C 39.421875 -42.484375 40.90625 -36.359375 43.875 -32.390625 C 46.84375 -28.429688 52.375 -26.453125 60.46875 -26.453125 C 68.570312 -26.453125 73.972656 -28.65625 76.671875 -33.0625 C 79.378906 -37.476562 80.734375 -43.738281 80.734375 -51.84375 L 80.734375 -135.265625 L 110.4375 -135.265625 Z M 110.4375 0 "/></g></g></g><g fill="#ff00ff" fill-opacity="1"><g transform="translate(977.308994, 828.087101)"><g><path d="M 46.171875 0 L 16.46875 0 L 16.46875 -135.265625 L 44.015625 -135.265625 L 46.171875 -134.1875 C 52.109375 -136.164062 58.140625 -137.25 64.265625 -137.4375 C 66.242188 -137.4375 68.039062 -137.4375 69.65625 -137.4375 C 73.082031 -137.4375 75.601562 -137.34375 77.21875 -137.15625 C 79.738281 -136.800781 84.6875 -135.8125 92.0625 -134.1875 L 85.046875 -105.296875 C 80.003906 -107.816406 75.144531 -109.078125 70.46875 -109.078125 C 66.507812 -109.078125 62.640625 -108.269531 58.859375 -106.65625 C 50.398438 -102.875 46.171875 -96.300781 46.171875 -86.9375 Z M 46.171875 0 "/></g></g></g><g fill="#ff00ff" fill-opacity="1"><g transform="translate(1074.508829, 828.087101)"><g><path d="M 113.9375 -80.453125 L 113.9375 0 C 95.21875 1.800781 80.28125 2.703125 69.125 2.703125 C 64.082031 2.703125 59.851562 2.519531 56.4375 2.15625 C 26.914062 -1.082031 11.429688 -15.75 9.984375 -41.84375 C 9.984375 -43.101562 9.984375 -44.363281 9.984375 -45.625 L 9.984375 -68.046875 C 9.984375 -85.859375 16.195312 -97.828125 28.625 -103.953125 C 33.84375 -106.828125 39.78125 -108.265625 46.4375 -108.265625 C 47.519531 -108.265625 48.507812 -108.175781 49.40625 -108 C 57.332031 -107.632812 64.171875 -106.6875 69.921875 -105.15625 C 75.679688 -103.632812 80.453125 -101.789062 84.234375 -99.625 C 84.234375 -111.144531 74.601562 -116.90625 55.34375 -116.90625 L 57.78125 -137.4375 C 64.625 -137.4375 70.789062 -137.03125 76.28125 -136.21875 C 81.769531 -135.40625 86.398438 -134.050781 90.171875 -132.15625 C 93.953125 -130.269531 97.28125 -128.335938 100.15625 -126.359375 C 103.039062 -124.378906 105.289062 -121.769531 106.90625 -118.53125 C 108.53125 -115.289062 109.882812 -112.453125 110.96875 -110.015625 C 112.050781 -107.585938 112.769531 -104.300781 113.125 -100.15625 C 113.488281 -96.019531 113.710938 -92.78125 113.796875 -90.4375 C 113.890625 -88.101562 113.9375 -84.773438 113.9375 -80.453125 Z M 84.234375 -26.1875 L 84.234375 -68.046875 C 81.359375 -70.023438 77.625 -71.867188 73.03125 -73.578125 C 68.445312 -75.285156 63.539062 -76.585938 58.3125 -77.484375 C 56.875 -77.671875 55.4375 -77.765625 54 -77.765625 C 50.757812 -77.765625 47.878906 -77.039062 45.359375 -75.59375 C 41.753906 -73.4375 39.953125 -69.660156 39.953125 -64.265625 L 39.953125 -49.40625 C 39.953125 -32.84375 49.492188 -24.5625 68.578125 -24.5625 C 73.253906 -24.5625 78.472656 -25.101562 84.234375 -26.1875 Z M 84.234375 -26.1875 "/></g></g></g><g fill="#00ffff" fill-opacity="1"><g transform="translate(498.576734, 826.035845)"><g><path d="M 9.71875 -34.296875 L 39.421875 -37.265625 C 39.421875 -34.023438 41.082031 -30.960938 44.40625 -28.078125 C 47.738281 -25.203125 52.828125 -23.765625 59.671875 -23.765625 C 65.609375 -23.765625 70.195312 -25.25 73.4375 -28.21875 C 76.675781 -31.1875 78.296875 -34.648438 78.296875 -38.609375 C 78.296875 -43.828125 76.179688 -48.007812 71.953125 -51.15625 C 67.722656 -54.3125 62.546875 -56.832031 56.421875 -58.71875 C 50.304688 -60.613281 44.144531 -62.773438 37.9375 -65.203125 C 31.726562 -67.628906 26.238281 -71.632812 21.46875 -77.21875 C 16.695312 -82.800781 13.859375 -89.910156 12.953125 -98.546875 C 12.773438 -99.628906 12.6875 -100.710938 12.6875 -101.796875 C 12.6875 -110.609375 16.195312 -118.707031 23.21875 -126.09375 C 30.78125 -134.375 42.75 -138.515625 59.125 -138.515625 C 64.882812 -138.515625 70.285156 -137.835938 75.328125 -136.484375 C 80.367188 -135.128906 83.96875 -133.820312 86.125 -132.5625 L 89.375 -130.6875 L 80.734375 -103.140625 C 76.585938 -107.273438 69.382812 -109.34375 59.125 -109.34375 C 54.082031 -109.34375 50.347656 -108.625 47.921875 -107.1875 C 45.492188 -105.75 44.414062 -104.175781 44.6875 -102.46875 C 44.957031 -100.757812 45.09375 -99.273438 45.09375 -98.015625 C 45.632812 -95.304688 48.285156 -92.828125 53.046875 -90.578125 C 57.816406 -88.328125 63.257812 -86.125 69.375 -83.96875 C 75.5 -81.8125 81.625 -79.113281 87.75 -75.875 C 93.875 -72.632812 99.050781 -67.769531 103.28125 -61.28125 C 107.507812 -54.800781 109.625 -47.0625 109.625 -38.0625 C 109.625 -26.363281 105.390625 -16.421875 96.921875 -8.234375 C 88.460938 -0.046875 76.046875 4.046875 59.671875 4.046875 C 44.367188 4.046875 32.304688 0.359375 23.484375 -7.015625 C 14.671875 -14.398438 10.082031 -23.492188 9.71875 -34.296875 Z M 9.71875 -34.296875 "/></g></g></g><g fill="#00ffff" fill-opacity="1"><g transform="translate(609.546535, 826.035845)"><g><path d="M 113.9375 -80.453125 L 113.9375 0 C 95.21875 1.800781 80.28125 2.703125 69.125 2.703125 C 64.082031 2.703125 59.851562 2.519531 56.4375 2.15625 C 26.914062 -1.082031 11.429688 -15.75 9.984375 -41.84375 C 9.984375 -43.101562 9.984375 -44.363281 9.984375 -45.625 L 9.984375 -68.046875 C 9.984375 -85.859375 16.195312 -97.828125 28.625 -103.953125 C 33.84375 -106.828125 39.78125 -108.265625 46.4375 -108.265625 C 47.519531 -108.265625 48.507812 -108.175781 49.40625 -108 C 57.332031 -107.632812 64.171875 -106.6875 69.921875 -105.15625 C 75.679688 -103.632812 80.453125 -101.789062 84.234375 -99.625 C 84.234375 -111.144531 74.601562 -116.90625 55.34375 -116.90625 L 57.78125 -137.4375 C 64.625 -137.4375 70.789062 -137.03125 76.28125 -136.21875 C 81.769531 -135.40625 86.398438 -134.050781 90.171875 -132.15625 C 93.953125 -130.269531 97.28125 -128.335938 100.15625 -126.359375 C 103.039062 -124.378906 105.289062 -121.769531 106.90625 -118.53125 C 108.53125 -115.289062 109.882812 -112.453125 110.96875 -110.015625 C 112.050781 -107.585938 112.769531 -104.300781 113.125 -100.15625 C 113.488281 -96.019531 113.710938 -92.78125 113.796875 -90.4375 C 113.890625 -88.101562 113.9375 -84.773438 113.9375 -80.453125 Z M 84.234375 -26.1875 L 84.234375 -68.046875 C 81.359375 -70.023438 77.625 -71.867188 73.03125 -73.578125 C 68.445312 -75.285156 63.539062 -76.585938 58.3125 -77.484375 C 56.875 -77.671875 55.4375 -77.765625 54 -77.765625 C 50.757812 -77.765625 47.878906 -77.039062 45.359375 -75.59375 C 41.753906 -73.4375 39.953125 -69.660156 39.953125 -64.265625 L 39.953125 -49.40625 C 39.953125 -32.84375 49.492188 -24.5625 68.578125 -24.5625 C 73.253906 -24.5625 78.472656 -25.101562 84.234375 -26.1875 Z M 84.234375 -26.1875 "/></g></g></g><g fill="#00ffff" fill-opacity="1"><g transform="translate(727.806313, 826.035845)"><g><path d="M 128.515625 0 L 91.265625 0 L 50.765625 -68.578125 L 46.984375 -64.796875 L 46.984375 0 L 17.28125 0 L 17.28125 -189 L 46.984375 -189 L 46.984375 -103.140625 L 87.203125 -140.40625 L 109.078125 -119.609375 L 73.703125 -89.640625 C 99.984375 -46.253906 118.253906 -16.375 128.515625 0 Z M 128.515625 0 "/></g></g></g><g fill="#00ffff" fill-opacity="1"><g transform="translate(850.386121, 826.035845)"><g><path d="M 110.4375 0 L 82.625 0 L 80.734375 -1.625 C 72.628906 1.4375 65.878906 2.96875 60.484375 2.96875 C 26.640625 2.96875 9.71875 -13.5 9.71875 -46.4375 L 9.71875 -135.265625 L 39.421875 -135.265625 L 39.421875 -50.765625 C 39.421875 -42.484375 40.90625 -36.359375 43.875 -32.390625 C 46.84375 -28.429688 52.375 -26.453125 60.46875 -26.453125 C 68.570312 -26.453125 73.972656 -28.65625 76.671875 -33.0625 C 79.378906 -37.476562 80.734375 -43.738281 80.734375 -51.84375 L 80.734375 -135.265625 L 110.4375 -135.265625 Z M 110.4375 0 "/></g></g></g><g fill="#00ffff" fill-opacity="1"><g transform="translate(965.675907, 826.035845)"><g><path d="M 46.171875 0 L 16.46875 0 L 16.46875 -135.265625 L 44.015625 -135.265625 L 46.171875 -134.1875 C 52.109375 -136.164062 58.140625 -137.25 64.265625 -137.4375 C 66.242188 -137.4375 68.039062 -137.4375 69.65625 -137.4375 C 73.082031 -137.4375 75.601562 -137.34375 77.21875 -137.15625 C 79.738281 -136.800781 84.6875 -135.8125 92.0625 -134.1875 L 85.046875 -105.296875 C 80.003906 -107.816406 75.144531 -109.078125 70.46875 -109.078125 C 66.507812 -109.078125 62.640625 -108.269531 58.859375 -106.65625 C 50.398438 -102.875 46.171875 -96.300781 46.171875 -86.9375 Z M 46.171875 0 "/></g></g></g><g fill="#00ffff" fill-opacity="1"><g transform="translate(1062.875742, 826.035845)"><g><path d="M 113.9375 -80.453125 L 113.9375 0 C 95.21875 1.800781 80.28125 2.703125 69.125 2.703125 C 64.082031 2.703125 59.851562 2.519531 56.4375 2.15625 C 26.914062 -1.082031 11.429688 -15.75 9.984375 -41.84375 C 9.984375 -43.101562 9.984375 -44.363281 9.984375 -45.625 L 9.984375 -68.046875 C 9.984375 -85.859375 16.195312 -97.828125 28.625 -103.953125 C 33.84375 -106.828125 39.78125 -108.265625 46.4375 -108.265625 C 47.519531 -108.265625 48.507812 -108.175781 49.40625 -108 C 57.332031 -107.632812 64.171875 -106.6875 69.921875 -105.15625 C 75.679688 -103.632812 80.453125 -101.789062 84.234375 -99.625 C 84.234375 -111.144531 74.601562 -116.90625 55.34375 -116.90625 L 57.78125 -137.4375 C 64.625 -137.4375 70.789062 -137.03125 76.28125 -136.21875 C 81.769531 -135.40625 86.398438 -134.050781 90.171875 -132.15625 C 93.953125 -130.269531 97.28125 -128.335938 100.15625 -126.359375 C 103.039062 -124.378906 105.289062 -121.769531 106.90625 -118.53125 C 108.53125 -115.289062 109.882812 -112.453125 110.96875 -110.015625 C 112.050781 -107.585938 112.769531 -104.300781 113.125 -100.15625 C 113.488281 -96.019531 113.710938 -92.78125 113.796875 -90.4375 C 113.890625 -88.101562 113.9375 -84.773438 113.9375 -80.453125 Z M 84.234375 -26.1875 L 84.234375 -68.046875 C 81.359375 -70.023438 77.625 -71.867188 73.03125 -73.578125 C 68.445312 -75.285156 63.539062 -76.585938 58.3125 -77.484375 C 56.875 -77.671875 55.4375 -77.765625 54 -77.765625 C 50.757812 -77.765625 47.878906 -77.039062 45.359375 -75.59375 C 41.753906 -73.4375 39.953125 -69.660156 39.953125 -64.265625 L 39.953125 -49.40625 C 39.953125 -32.84375 49.492188 -24.5625 68.578125 -24.5625 C 73.253906 -24.5625 78.472656 -25.101562 84.234375 -26.1875 Z M 84.234375 -26.1875 "/></g></g></g><g fill="#000000" fill-opacity="1"><g transform="translate(504.393278, 827.061461)"><g><path d="M 9.71875 -34.296875 L 39.421875 -37.265625 C 39.421875 -34.023438 41.082031 -30.960938 44.40625 -28.078125 C 47.738281 -25.203125 52.828125 -23.765625 59.671875 -23.765625 C 65.609375 -23.765625 70.195312 -25.25 73.4375 -28.21875 C 76.675781 -31.1875 78.296875 -34.648438 78.296875 -38.609375 C 78.296875 -43.828125 76.179688 -48.007812 71.953125 -51.15625 C 67.722656 -54.3125 62.546875 -56.832031 56.421875 -58.71875 C 50.304688 -60.613281 44.144531 -62.773438 37.9375 -65.203125 C 31.726562 -67.628906 26.238281 -71.632812 21.46875 -77.21875 C 16.695312 -82.800781 13.859375 -89.910156 12.953125 -98.546875 C 12.773438 -99.628906 12.6875 -100.710938 12.6875 -101.796875 C 12.6875 -110.609375 16.195312 -118.707031 23.21875 -126.09375 C 30.78125 -134.375 42.75 -138.515625 59.125 -138.515625 C 64.882812 -138.515625 70.285156 -137.835938 75.328125 -136.484375 C 80.367188 -135.128906 83.96875 -133.820312 86.125 -132.5625 L 89.375 -130.6875 L 80.734375 -103.140625 C 76.585938 -107.273438 69.382812 -109.34375 59.125 -109.34375 C 54.082031 -109.34375 50.347656 -108.625 47.921875 -107.1875 C 45.492188 -105.75 44.414062 -104.175781 44.6875 -102.46875 C 44.957031 -100.757812 45.09375 -99.273438 45.09375 -98.015625 C 45.632812 -95.304688 48.285156 -92.828125 53.046875 -90.578125 C 57.816406 -88.328125 63.257812 -86.125 69.375 -83.96875 C 75.5 -81.8125 81.625 -79.113281 87.75 -75.875 C 93.875 -72.632812 99.050781 -67.769531 103.28125 -61.28125 C 107.507812 -54.800781 109.625 -47.0625 109.625 -38.0625 C 109.625 -26.363281 105.390625 -16.421875 96.921875 -8.234375 C 88.460938 -0.046875 76.046875 4.046875 59.671875 4.046875 C 44.367188 4.046875 32.304688 0.359375 23.484375 -7.015625 C 14.671875 -14.398438 10.082031 -23.492188 9.71875 -34.296875 Z M 9.71875 -34.296875 "/></g></g></g><g fill="#000000" fill-opacity="1"><g transform="translate(615.363079, 827.061461)"><g><path d="M 113.9375 -80.453125 L 113.9375 0 C 95.21875 1.800781 80.28125 2.703125 69.125 2.703125 C 64.082031 2.703125 59.851562 2.519531 56.4375 2.15625 C 26.914062 -1.082031 11.429688 -15.75 9.984375 -41.84375 C 9.984375 -43.101562 9.984375 -44.363281 9.984375 -45.625 L 9.984375 -68.046875 C 9.984375 -85.859375 16.195312 -97.828125 28.625 -103.953125 C 33.84375 -106.828125 39.78125 -108.265625 46.4375 -108.265625 C 47.519531 -108.265625 48.507812 -108.175781 49.40625 -108 C 57.332031 -107.632812 64.171875 -106.6875 69.921875 -105.15625 C 75.679688 -103.632812 80.453125 -101.789062 84.234375 -99.625 C 84.234375 -111.144531 74.601562 -116.90625 55.34375 -116.90625 L 57.78125 -137.4375 C 64.625 -137.4375 70.789062 -137.03125 76.28125 -136.21875 C 81.769531 -135.40625 86.398438 -134.050781 90.171875 -132.15625 C 93.953125 -130.269531 97.28125 -128.335938 100.15625 -126.359375 C 103.039062 -124.378906 105.289062 -121.769531 106.90625 -118.53125 C 108.53125 -115.289062 109.882812 -112.453125 110.96875 -110.015625 C 112.050781 -107.585938 112.769531 -104.300781 113.125 -100.15625 C 113.488281 -96.019531 113.710938 -92.78125 113.796875 -90.4375 C 113.890625 -88.101562 113.9375 -84.773438 113.9375 -80.453125 Z M 84.234375 -26.1875 L 84.234375 -68.046875 C 81.359375 -70.023438 77.625 -71.867188 73.03125 -73.578125 C 68.445312 -75.285156 63.539062 -76.585938 58.3125 -77.484375 C 56.875 -77.671875 55.4375 -77.765625 54 -77.765625 C 50.757812 -77.765625 47.878906 -77.039062 45.359375 -75.59375 C 41.753906 -73.4375 39.953125 -69.660156 39.953125 -64.265625 L 39.953125 -49.40625 C 39.953125 -32.84375 49.492188 -24.5625 68.578125 -24.5625 C 73.253906 -24.5625 78.472656 -25.101562 84.234375 -26.1875 Z M 84.234375 -26.1875 "/></g></g></g><g fill="#000000" fill-opacity="1"><g transform="translate(733.622857, 827.061461)"><g><path d="M 128.515625 0 L 91.265625 0 L 50.765625 -68.578125 L 46.984375 -64.796875 L 46.984375 0 L 17.28125 0 L 17.28125 -189 L 46.984375 -189 L 46.984375 -103.140625 L 87.203125 -140.40625 L 109.078125 -119.609375 L 73.703125 -89.640625 C 99.984375 -46.253906 118.253906 -16.375 128.515625 0 Z M 128.515625 0 "/></g></g></g><g fill="#000000" fill-opacity="1"><g transform="translate(856.202665, 827.061461)"><g><path d="M 110.4375 0 L 82.625 0 L 80.734375 -1.625 C 72.628906 1.4375 65.878906 2.96875 60.484375 2.96875 C 26.640625 2.96875 9.71875 -13.5 9.71875 -46.4375 L 9.71875 -135.265625 L 39.421875 -135.265625 L 39.421875 -50.765625 C 39.421875 -42.484375 40.90625 -36.359375 43.875 -32.390625 C 46.84375 -28.429688 52.375 -26.453125 60.46875 -26.453125 C 68.570312 -26.453125 73.972656 -28.65625 76.671875 -33.0625 C 79.378906 -37.476562 80.734375 -43.738281 80.734375 -51.84375 L 80.734375 -135.265625 L 110.4375 -135.265625 Z M 110.4375 0 "/></g></g></g><g fill="#000000" fill-opacity="1"><g transform="translate(971.49245, 827.061461)"><g><path d="M 46.171875 0 L 16.46875 0 L 16.46875 -135.265625 L 44.015625 -135.265625 L 46.171875 -134.1875 C 52.109375 -136.164062 58.140625 -137.25 64.265625 -137.4375 C 66.242188 -137.4375 68.039062 -137.4375 69.65625 -137.4375 C 73.082031 -137.4375 75.601562 -137.34375 77.21875 -137.15625 C 79.738281 -136.800781 84.6875 -135.8125 92.0625 -134.1875 L 85.046875 -105.296875 C 80.003906 -107.816406 75.144531 -109.078125 70.46875 -109.078125 C 66.507812 -109.078125 62.640625 -108.269531 58.859375 -106.65625 C 50.398438 -102.875 46.171875 -96.300781 46.171875 -86.9375 Z M 46.171875 0 "/></g></g></g><g fill="#000000" fill-opacity="1"><g transform="translate(1068.692286, 827.061461)"><g><path d="M 113.9375 -80.453125 L 113.9375 0 C 95.21875 1.800781 80.28125 2.703125 69.125 2.703125 C 64.082031 2.703125 59.851562 2.519531 56.4375 2.15625 C 26.914062 -1.082031 11.429688 -15.75 9.984375 -41.84375 C 9.984375 -43.101562 9.984375 -44.363281 9.984375 -45.625 L 9.984375 -68.046875 C 9.984375 -85.859375 16.195312 -97.828125 28.625 -103.953125 C 33.84375 -106.828125 39.78125 -108.265625 46.4375 -108.265625 C 47.519531 -108.265625 48.507812 -108.175781 49.40625 -108 C 57.332031 -107.632812 64.171875 -106.6875 69.921875 -105.15625 C 75.679688 -103.632812 80.453125 -101.789062 84.234375 -99.625 C 84.234375 -111.144531 74.601562 -116.90625 55.34375 -116.90625 L 57.78125 -137.4375 C 64.625 -137.4375 70.789062 -137.03125 76.28125 -136.21875 C 81.769531 -135.40625 86.398438 -134.050781 90.171875 -132.15625 C 93.953125 -130.269531 97.28125 -128.335938 100.15625 -126.359375 C 103.039062 -124.378906 105.289062 -121.769531 106.90625 -118.53125 C 108.53125 -115.289062 109.882812 -112.453125 110.96875 -110.015625 C 112.050781 -107.585938 112.769531 -104.300781 113.125 -100.15625 C 113.488281 -96.019531 113.710938 -92.78125 113.796875 -90.4375 C 113.890625 -88.101562 113.9375 -84.773438 113.9375 -80.453125 Z M 84.234375 -26.1875 L 84.234375 -68.046875 C 81.359375 -70.023438 77.625 -71.867188 73.03125 -73.578125 C 68.445312 -75.285156 63.539062 -76.585938 58.3125 -77.484375 C 56.875 -77.671875 55.4375 -77.765625 54 -77.765625 C 50.757812 -77.765625 47.878906 -77.039062 45.359375 -75.59375 C 41.753906 -73.4375 39.953125 -69.660156 39.953125 -64.265625 L 39.953125 -49.40625 C 39.953125 -32.84375 49.492188 -24.5625 68.578125 -24.5625 C 73.253906 -24.5625 78.472656 -25.101562 84.234375 -26.1875 Z M 84.234375 -26.1875 "/></g></g></g><g clip-path="url(#id19)"><g clip-path="url(#id20)"><g clip-path="url(#id21)"><path fill="#00ffff" d="M 647.121094 592 C 646.269531 590.394531 644.511719 589.492188 642.714844 589.738281 L 634.4375 590.863281 L 637.160156 582.300781 C 637.6875 580.652344 637.179688 578.847656 635.871094 577.71875 C 624.566406 567.941406 609.707031 567.707031 598.019531 577.113281 C 595.375 579.242188 592.394531 582.539062 589.421875 586.511719 C 589.257812 579.394531 588.398438 572.925781 586.917969 568.585938 C 582.261719 554.925781 569.101562 547.132812 554.171875 549.199219 C 552.375 549.449219 550.925781 550.792969 550.539062 552.566406 L 548.769531 560.730469 L 541.652344 555.238281 C 540.28125 554.183594 538.414062 554.042969 536.902344 554.886719 C 523.851562 562.167969 518.546875 576.046875 523.390625 590.25 C 524.867188 594.574219 528.125 600.199219 532.324219 605.917969 C 527.582031 604.605469 523.246094 603.828125 519.878906 603.757812 C 504.875 603.449219 493.257812 612.714844 490.28125 627.359375 C 489.933594 629.054688 490.632812 630.792969 492.054688 631.777344 L 499.445312 636.894531 L 492.203125 641.058594 C 490.632812 641.960938 489.789062 643.75 490.097656 645.539062 C 492.65625 660.390625 504.074219 670.570312 518.503906 670.863281 C 521.492188 670.925781 525.269531 670.457031 529.421875 669.570312 C 527.570312 672.441406 526.117188 675.140625 525.210938 677.472656 C 519.792969 691.464844 524.527344 705.550781 537.269531 713.359375 C 538.742188 714.261719 540.613281 714.199219 542.027344 713.199219 L 549.363281 708.003906 L 550.796875 716.234375 C 551.109375 718.019531 552.503906 719.421875 554.292969 719.746094 C 559.953125 720.765625 565.417969 720.34375 570.296875 718.679688 C 578.203125 715.984375 584.578125 710.035156 587.804688 701.714844 C 589.40625 697.574219 590.507812 691.410156 590.992188 684.570312 C 595.550781 689.691406 600.1875 693.898438 603.988281 696.195312 C 611.625 700.816406 620.308594 701.625 628.210938 698.929688 C 633.09375 697.265625 637.679688 694.265625 641.535156 689.996094 C 642.753906 688.652344 643 686.6875 642.15625 685.082031 L 638.265625 677.691406 L 647.246094 677.324219 C 648.976562 677.253906 650.496094 676.15625 651.109375 674.539062 C 656.429688 660.574219 651.570312 646.53125 638.730469 638.765625 C 636.597656 637.472656 633.804688 636.226562 630.585938 635.085938 C 634.453125 633.238281 637.757812 631.289062 640.101562 629.402344 C 651.347656 620.351562 654.167969 605.320312 647.121094 592 Z M 647.121094 592 " fill-opacity="1" fill-rule="nonzero"/></g></g></g><g clip-path="url(#id22)"><g clip-path="url(#id23)"><g clip-path="url(#id24)"><path fill="#ffffff" d="M 604.914062 609.585938 C 601.289062 607.804688 596.890625 609.304688 595.109375 612.929688 C 594.605469 613.953125 594.375 615.039062 594.367188 616.109375 L 586.574219 621.4375 C 582.6875 618.347656 577.667969 616.808594 572.578125 617.34375 L 567.960938 603.796875 C 569.246094 601.945312 569.679688 599.535156 568.894531 597.242188 C 567.59375 593.417969 563.421875 591.367188 559.597656 592.671875 C 555.773438 593.976562 553.722656 598.148438 555.027344 601.96875 C 555.808594 604.261719 557.625 605.910156 559.773438 606.585938 L 564.402344 620.167969 C 560.113281 622.855469 557.125 627.109375 555.949219 631.886719 L 543.363281 632.589844 C 541.476562 630.300781 538.308594 629.289062 535.34375 630.300781 C 531.519531 631.605469 529.46875 635.773438 530.773438 639.597656 C 532.078125 643.421875 536.246094 645.472656 540.070312 644.167969 C 541.683594 643.617188 542.976562 642.554688 543.839844 641.222656 L 555.835938 640.558594 C 555.992188 641.253906 556.179688 641.953125 556.417969 642.644531 C 557.859375 646.878906 560.648438 650.277344 564.136719 652.542969 L 560.457031 664.285156 C 560.457031 664.289062 560.453125 664.289062 560.453125 664.289062 C 556.628906 665.59375 554.578125 669.761719 555.882812 673.585938 C 557.183594 677.410156 561.355469 679.460938 565.179688 678.15625 C 569.003906 676.851562 571.054688 672.683594 569.75 668.859375 C 569.5 668.128906 569.144531 667.464844 568.710938 666.875 L 572.273438 655.511719 C 575.058594 655.855469 577.964844 655.59375 580.800781 654.625 C 583.617188 653.664062 586.070312 652.109375 588.058594 650.148438 L 598.300781 657.246094 C 598.371094 659.882812 599.863281 662.394531 602.390625 663.636719 C 604.203125 664.523438 606.207031 664.59375 607.984375 663.988281 C 609.757812 663.382812 611.300781 662.101562 612.191406 660.292969 C 613.058594 658.535156 613.183594 656.546875 612.554688 654.695312 C 611.921875 652.84375 610.609375 651.347656 608.855469 650.484375 C 608.851562 650.484375 608.851562 650.484375 608.851562 650.484375 C 608.847656 650.480469 608.847656 650.480469 608.847656 650.480469 C 607.089844 649.621094 605.105469 649.492188 603.253906 650.125 C 603.242188 650.128906 603.234375 650.132812 603.222656 650.136719 L 592.699219 642.839844 C 594.09375 638.90625 594.230469 634.492188 592.78125 630.246094 C 592.542969 629.550781 592.269531 628.878906 591.960938 628.230469 L 599.429688 623.125 C 600.925781 623.613281 602.53125 623.613281 604.046875 623.09375 C 605.902344 622.464844 607.398438 621.148438 608.257812 619.394531 C 609.121094 617.636719 609.25 615.648438 608.617188 613.796875 C 607.988281 611.941406 606.671875 610.445312 604.914062 609.585938 Z M 604.914062 609.585938 " fill-opacity="1" fill-rule="nonzero"/></g></g></g><g clip-path="url(#id25)"><g clip-path="url(#id26)"><g clip-path="url(#id27)"><path fill="#ff00ff" d="M 654.785156 595 C 653.9375 593.394531 652.175781 592.492188 650.378906 592.738281 L 642.101562 593.863281 L 644.828125 585.300781 C 645.351562 583.652344 644.84375 581.847656 643.535156 580.71875 C 632.230469 570.941406 617.375 570.707031 605.683594 580.113281 C 603.039062 582.242188 600.058594 585.539062 597.089844 589.511719 C 596.921875 582.394531 596.066406 575.925781 594.585938 571.585938 C 589.925781 557.925781 576.765625 550.132812 561.839844 552.199219 C 560.042969 552.449219 558.589844 553.792969 558.207031 555.566406 L 556.433594 563.730469 L 549.316406 558.238281 C 547.949219 557.183594 546.082031 557.042969 544.570312 557.886719 C 531.519531 565.167969 526.214844 579.046875 531.054688 593.25 C 532.53125 597.574219 535.789062 603.199219 539.988281 608.917969 C 535.25 607.605469 530.914062 606.828125 527.542969 606.757812 C 512.542969 606.449219 500.925781 615.714844 497.945312 630.359375 C 497.601562 632.054688 498.300781 633.792969 499.722656 634.777344 L 507.109375 639.894531 L 499.871094 644.058594 C 498.296875 644.960938 497.457031 646.75 497.765625 648.539062 C 500.324219 663.390625 511.738281 673.570312 526.171875 673.863281 C 529.160156 673.925781 532.933594 673.457031 537.089844 672.570312 C 535.234375 675.441406 533.78125 678.140625 532.878906 680.472656 C 527.460938 694.464844 532.191406 708.550781 544.933594 716.359375 C 546.410156 717.261719 548.28125 717.199219 549.691406 716.199219 L 557.027344 711.003906 L 558.464844 719.234375 C 558.777344 721.019531 560.171875 722.421875 561.957031 722.746094 C 567.621094 723.765625 573.082031 723.34375 577.964844 721.679688 C 585.867188 718.984375 592.246094 713.035156 595.46875 704.714844 C 597.074219 700.574219 598.175781 694.410156 598.65625 687.570312 C 603.21875 692.691406 607.855469 696.898438 611.65625 699.195312 C 619.292969 703.816406 627.972656 704.625 635.878906 701.929688 C 640.757812 700.265625 645.34375 697.265625 649.203125 692.996094 C 650.417969 691.652344 650.667969 689.6875 649.820312 688.082031 L 645.933594 680.691406 L 654.910156 680.324219 C 656.640625 680.253906 658.160156 679.15625 658.777344 677.539062 C 664.09375 663.574219 659.234375 649.53125 646.398438 641.765625 C 644.261719 640.472656 641.46875 639.226562 638.253906 638.085938 C 642.117188 636.238281 645.421875 634.289062 647.769531 632.402344 C 659.011719 623.351562 661.832031 608.320312 654.785156 595 Z M 654.785156 595 " fill-opacity="1" fill-rule="nonzero"/></g></g></g><g clip-path="url(#id28)"><g clip-path="url(#id29)"><g clip-path="url(#id30)"><path fill="#ffffff" d="M 612.578125 612.585938 C 608.953125 610.804688 604.558594 612.304688 602.777344 615.929688 C 602.273438 616.953125 602.039062 618.039062 602.035156 619.109375 L 594.242188 624.4375 C 590.351562 621.347656 585.332031 619.808594 580.246094 620.34375 L 575.625 606.796875 C 576.914062 604.945312 577.34375 602.535156 576.5625 600.242188 C 575.257812 596.417969 571.085938 594.367188 567.261719 595.671875 C 563.441406 596.976562 561.390625 601.148438 562.695312 604.96875 C 563.476562 607.261719 565.289062 608.910156 567.4375 609.585938 L 572.070312 623.167969 C 567.777344 625.855469 564.789062 630.109375 563.613281 634.886719 L 551.027344 635.589844 C 549.144531 633.300781 545.972656 632.289062 543.007812 633.300781 C 539.183594 634.605469 537.136719 638.773438 538.4375 642.597656 C 539.742188 646.421875 543.914062 648.472656 547.738281 647.167969 C 549.351562 646.617188 550.644531 645.554688 551.507812 644.222656 L 563.503906 643.558594 C 563.65625 644.253906 563.847656 644.953125 564.082031 645.644531 C 565.527344 649.878906 568.3125 653.277344 571.804688 655.542969 L 568.125 667.285156 C 568.121094 667.289062 568.121094 667.289062 568.117188 667.289062 C 564.292969 668.59375 562.242188 672.761719 563.546875 676.585938 C 564.851562 680.410156 569.023438 682.460938 572.847656 681.15625 C 576.667969 679.851562 578.71875 675.683594 577.417969 671.859375 C 577.167969 671.128906 576.8125 670.464844 576.375 669.875 L 579.9375 658.511719 C 582.726562 658.855469 585.632812 658.59375 588.464844 657.625 C 591.285156 656.664062 593.734375 655.109375 595.726562 653.148438 L 605.964844 660.246094 C 606.039062 662.882812 607.527344 665.394531 610.054688 666.636719 C 611.867188 667.523438 613.875 667.59375 615.648438 666.988281 C 617.421875 666.382812 618.96875 665.101562 619.859375 663.292969 C 620.722656 661.535156 620.851562 659.546875 620.21875 657.695312 C 619.585938 655.84375 618.273438 654.347656 616.519531 653.484375 C 616.519531 653.484375 616.515625 653.484375 616.515625 653.484375 C 616.515625 653.480469 616.515625 653.480469 616.511719 653.480469 C 614.757812 652.621094 612.769531 652.492188 610.921875 653.125 C 610.910156 653.128906 610.898438 653.132812 610.890625 653.136719 L 600.363281 645.839844 C 601.757812 641.90625 601.894531 637.492188 600.445312 633.246094 C 600.210938 632.550781 599.933594 631.878906 599.628906 631.230469 L 607.09375 626.125 C 608.59375 626.613281 610.199219 626.613281 611.714844 626.09375 C 613.566406 625.464844 615.0625 624.148438 615.921875 622.394531 C 616.789062 620.636719 616.917969 618.648438 616.285156 616.796875 C 615.652344 614.941406 614.335938 613.445312 612.578125 612.585938 Z M 612.578125 612.585938 " fill-opacity="1" fill-rule="nonzero"/></g></g></g><g clip-path="url(#id31)"><g clip-path="url(#id32)"><g clip-path="url(#id33)"><path fill="#ff7ccc" d="M 651.785156 592 C 650.9375 590.394531 649.175781 589.492188 647.378906 589.738281 L 639.101562 590.863281 L 641.828125 582.300781 C 642.351562 580.652344 641.84375 578.847656 640.535156 577.71875 C 629.230469 567.941406 614.375 567.707031 602.683594 577.113281 C 600.039062 579.242188 597.058594 582.539062 594.089844 586.511719 C 593.921875 579.394531 593.066406 572.925781 591.585938 568.585938 C 586.925781 554.925781 573.765625 547.132812 558.839844 549.199219 C 557.042969 549.449219 555.589844 550.792969 555.207031 552.566406 L 553.433594 560.730469 L 546.316406 555.238281 C 544.949219 554.183594 543.082031 554.042969 541.570312 554.886719 C 528.519531 562.167969 523.214844 576.046875 528.054688 590.25 C 529.53125 594.574219 532.789062 600.199219 536.988281 605.917969 C 532.25 604.605469 527.914062 603.828125 524.542969 603.757812 C 509.542969 603.449219 497.925781 612.714844 494.945312 627.359375 C 494.601562 629.054688 495.300781 630.792969 496.722656 631.777344 L 504.109375 636.894531 L 496.871094 641.058594 C 495.296875 641.960938 494.457031 643.75 494.765625 645.539062 C 497.324219 660.390625 508.738281 670.570312 523.171875 670.863281 C 526.160156 670.925781 529.933594 670.457031 534.089844 669.570312 C 532.234375 672.441406 530.78125 675.140625 529.878906 677.472656 C 524.460938 691.464844 529.191406 705.550781 541.933594 713.359375 C 543.410156 714.261719 545.28125 714.199219 546.691406 713.199219 L 554.027344 708.003906 L 555.464844 716.234375 C 555.777344 718.019531 557.171875 719.421875 558.957031 719.746094 C 564.621094 720.765625 570.082031 720.34375 574.964844 718.679688 C 582.867188 715.984375 589.246094 710.035156 592.46875 701.714844 C 594.074219 697.574219 595.175781 691.410156 595.65625 684.570312 C 600.21875 689.691406 604.855469 693.898438 608.65625 696.195312 C 616.292969 700.816406 624.972656 701.625 632.878906 698.929688 C 637.757812 697.265625 642.34375 694.265625 646.203125 689.996094 C 647.417969 688.652344 647.667969 686.6875 646.820312 685.082031 L 642.933594 677.691406 L 651.910156 677.324219 C 653.640625 677.253906 655.160156 676.15625 655.777344 674.539062 C 661.09375 660.574219 656.234375 646.53125 643.398438 638.765625 C 641.261719 637.472656 638.46875 636.226562 635.253906 635.085938 C 639.117188 633.238281 642.421875 631.289062 644.769531 629.402344 C 656.011719 620.351562 658.832031 605.320312 651.785156 592 Z M 651.785156 592 " fill-opacity="1" fill-rule="nonzero"/></g></g></g><g clip-path="url(#id34)"><g clip-path="url(#id35)"><g clip-path="url(#id36)"><path fill="#ffffff" d="M 609.578125 609.585938 C 605.953125 607.804688 601.558594 609.304688 599.777344 612.929688 C 599.273438 613.953125 599.039062 615.039062 599.035156 616.109375 L 591.242188 621.4375 C 587.351562 618.347656 582.332031 616.808594 577.246094 617.34375 L 572.625 603.796875 C 573.914062 601.945312 574.34375 599.535156 573.5625 597.242188 C 572.257812 593.417969 568.085938 591.367188 564.261719 592.671875 C 560.441406 593.976562 558.390625 598.148438 559.695312 601.96875 C 560.476562 604.261719 562.289062 605.910156 564.4375 606.585938 L 569.070312 620.167969 C 564.777344 622.855469 561.789062 627.109375 560.613281 631.886719 L 548.027344 632.589844 C 546.144531 630.300781 542.972656 629.289062 540.007812 630.300781 C 536.183594 631.605469 534.136719 635.773438 535.4375 639.597656 C 536.742188 643.421875 540.914062 645.472656 544.738281 644.167969 C 546.351562 643.617188 547.644531 642.554688 548.507812 641.222656 L 560.503906 640.558594 C 560.65625 641.253906 560.847656 641.953125 561.082031 642.644531 C 562.527344 646.878906 565.3125 650.277344 568.804688 652.542969 L 565.125 664.285156 C 565.121094 664.289062 565.121094 664.289062 565.117188 664.289062 C 561.292969 665.59375 559.242188 669.761719 560.546875 673.585938 C 561.851562 677.410156 566.023438 679.460938 569.847656 678.15625 C 573.667969 676.851562 575.71875 672.683594 574.417969 668.859375 C 574.167969 668.128906 573.8125 667.464844 573.375 666.875 L 576.9375 655.511719 C 579.726562 655.855469 582.632812 655.59375 585.464844 654.625 C 588.285156 653.664062 590.734375 652.109375 592.726562 650.148438 L 602.964844 657.246094 C 603.039062 659.882812 604.527344 662.394531 607.054688 663.636719 C 608.867188 664.523438 610.875 664.59375 612.648438 663.988281 C 614.421875 663.382812 615.96875 662.101562 616.859375 660.292969 C 617.722656 658.535156 617.851562 656.546875 617.21875 654.695312 C 616.585938 652.84375 615.273438 651.347656 613.519531 650.484375 C 613.519531 650.484375 613.515625 650.484375 613.515625 650.484375 C 613.515625 650.480469 613.515625 650.480469 613.511719 650.480469 C 611.757812 649.621094 609.769531 649.492188 607.921875 650.125 C 607.910156 650.128906 607.898438 650.132812 607.890625 650.136719 L 597.363281 642.839844 C 598.757812 638.90625 598.894531 634.492188 597.445312 630.246094 C 597.210938 629.550781 596.933594 628.878906 596.628906 628.230469 L 604.09375 623.125 C 605.59375 623.613281 607.199219 623.613281 608.714844 623.09375 C 610.566406 622.464844 612.0625 621.148438 612.921875 619.394531 C 613.789062 617.636719 613.917969 615.648438 613.285156 613.796875 C 612.652344 611.941406 611.335938 610.445312 609.578125 609.585938 Z M 609.578125 609.585938 " fill-opacity="1" fill-rule="nonzero"/></g></g></g></svg>