<svg xmlns="http://www.w3.org/2000/svg" xmlns:xlink="http://www.w3.org/1999/xlink" width="1000" zoomAndPan="magnify" viewBox="0 0 750 374.999991" height="500" preserveAspectRatio="xMidYMid meet" version="1.0"><defs><g/><clipPath id="id1"><path d="M 62 56 L 223 56 L 223 217 L 62 217 Z M 62 56 " clip-rule="nonzero"/></clipPath><clipPath id="id2"><path d="M 24.328125 155.710938 L 112.839844 22.046875 L 246.503906 110.558594 L 157.992188 244.226562 Z M 24.328125 155.710938 " clip-rule="nonzero"/></clipPath><clipPath id="id3"><path d="M 24.328125 155.710938 L 112.839844 22.046875 L 246.503906 110.558594 L 157.992188 244.226562 Z M 24.328125 155.710938 " clip-rule="nonzero"/></clipPath><clipPath id="id4"><path d="M 102 98 L 184 98 L 184 177 L 102 177 Z M 102 98 " clip-rule="nonzero"/></clipPath><clipPath id="id5"><path d="M 24.328125 155.710938 L 112.839844 22.046875 L 246.503906 110.558594 L 157.992188 244.226562 Z M 24.328125 155.710938 " clip-rule="nonzero"/></clipPath><clipPath id="id6"><path d="M 24.328125 155.710938 L 112.839844 22.046875 L 246.503906 110.558594 L 157.992188 244.226562 Z M 24.328125 155.710938 " clip-rule="nonzero"/></clipPath><clipPath id="id7"><path d="M 61 47 L 222 47 L 222 208 L 61 208 Z M 61 47 " clip-rule="nonzero"/></clipPath><clipPath id="id8"><path d="M 23.496094 146.640625 L 112.007812 12.976562 L 245.675781 101.488281 L 157.164062 235.152344 Z M 23.496094 146.640625 " clip-rule="nonzero"/></clipPath><clipPath id="id9"><path d="M 23.496094 146.640625 L 112.007812 12.976562 L 245.675781 101.488281 L 157.164062 235.152344 Z M 23.496094 146.640625 " clip-rule="nonzero"/></clipPath><clipPath id="id10"><path d="M 101 89 L 183 89 L 183 168 L 101 168 Z M 101 89 " clip-rule="nonzero"/></clipPath><clipPath id="id11"><path d="M 23.496094 146.640625 L 112.007812 12.976562 L 245.675781 101.488281 L 157.164062 235.152344 Z M 23.496094 146.640625 " clip-rule="nonzero"/></clipPath><clipPath id="id12"><path d="M 23.496094 146.640625 L 112.007812 12.976562 L 245.675781 101.488281 L 157.164062 235.152344 Z M 23.496094 146.640625 " clip-rule="nonzero"/></clipPath><clipPath id="id13"><path d="M 58 34 L 222 34 L 222 198 L 58 198 Z M 58 34 " clip-rule="nonzero"/></clipPath><clipPath id="id14"><path d="M 20.460938 135.355469 L 110.183594 -0.140625 L 245.683594 89.582031 L 155.957031 225.082031 Z M 20.460938 135.355469 " clip-rule="nonzero"/></clipPath><clipPath id="id15"><path d="M 20.460938 135.355469 L 110.183594 -0.140625 L 245.683594 89.582031 L 155.957031 225.082031 Z M 20.460938 135.355469 " clip-rule="nonzero"/></clipPath><clipPath id="id16"><path d="M 99 77 L 182 77 L 182 157 L 99 157 Z M 99 77 " clip-rule="nonzero"/></clipPath><clipPath id="id17"><path d="M 20.460938 135.355469 L 110.183594 -0.140625 L 245.683594 89.582031 L 155.957031 225.082031 Z M 20.460938 135.355469 " clip-rule="nonzero"/></clipPath><clipPath id="id18"><path d="M 20.460938 135.355469 L 110.183594 -0.140625 L 245.683594 89.582031 L 155.957031 225.082031 Z M 20.460938 135.355469 " clip-rule="nonzero"/></clipPath><clipPath id="id19"><path d="M 80.160156 163 L 293 163 L 293 374 L 80.160156 374 Z M 80.160156 163 " clip-rule="nonzero"/></clipPath><clipPath id="id20"><path d="M 73.144531 155 L 286 155 L 286 367 L 73.144531 367 Z M 73.144531 155 " clip-rule="nonzero"/></clipPath><clipPath id="id21"><path d="M 63.085938 146 L 276 146 L 276 358 L 63.085938 358 Z M 63.085938 146 " clip-rule="nonzero"/></clipPath><clipPath id="id22"><path d="M 195 62 L 316 62 L 316 188 L 195 188 Z M 195 62 " clip-rule="nonzero"/></clipPath><clipPath id="id23"><path d="M 178.105469 83.535156 L 294.507812 43.847656 L 334.195312 160.25 L 217.796875 199.9375 Z M 178.105469 83.535156 " clip-rule="nonzero"/></clipPath><clipPath id="id24"><path d="M 178.105469 83.535156 L 294.507812 43.847656 L 334.195312 160.25 L 217.796875 199.9375 Z M 178.105469 83.535156 " clip-rule="nonzero"/></clipPath><clipPath id="id25"><path d="M 225 94 L 286 94 L 286 158 L 225 158 Z M 225 94 " clip-rule="nonzero"/></clipPath><clipPath id="id26"><path d="M 178.105469 83.535156 L 294.507812 43.847656 L 334.195312 160.25 L 217.796875 199.9375 Z M 178.105469 83.535156 " clip-rule="nonzero"/></clipPath><clipPath id="id27"><path d="M 178.105469 83.535156 L 294.507812 43.847656 L 334.195312 160.25 L 217.796875 199.9375 Z M 178.105469 83.535156 " clip-rule="nonzero"/></clipPath><clipPath id="id28"><path d="M 201 64 L 321 64 L 321 190 L 201 190 Z M 201 64 " clip-rule="nonzero"/></clipPath><clipPath id="id29"><path d="M 183.71875 85.734375 L 300.117188 46.042969 L 339.808594 162.445312 L 223.40625 202.132812 Z M 183.71875 85.734375 " clip-rule="nonzero"/></clipPath><clipPath id="id30"><path d="M 183.71875 85.734375 L 300.117188 46.042969 L 339.808594 162.445312 L 223.40625 202.132812 Z M 183.71875 85.734375 " clip-rule="nonzero"/></clipPath><clipPath id="id31"><path d="M 230 96 L 292 96 L 292 160 L 230 160 Z M 230 96 " clip-rule="nonzero"/></clipPath><clipPath id="id32"><path d="M 183.71875 85.734375 L 300.117188 46.042969 L 339.808594 162.445312 L 223.40625 202.132812 Z M 183.71875 85.734375 " clip-rule="nonzero"/></clipPath><clipPath id="id33"><path d="M 183.71875 85.734375 L 300.117188 46.042969 L 339.808594 162.445312 L 223.40625 202.132812 Z M 183.71875 85.734375 " clip-rule="nonzero"/></clipPath><clipPath id="id34"><path d="M 199 62 L 319 62 L 319 188 L 199 188 Z M 199 62 " clip-rule="nonzero"/></clipPath><clipPath id="id35"><path d="M 181.519531 83.535156 L 297.921875 43.847656 L 337.613281 160.25 L 221.210938 199.9375 Z M 181.519531 83.535156 " clip-rule="nonzero"/></clipPath><clipPath id="id36"><path d="M 181.519531 83.535156 L 297.921875 43.847656 L 337.613281 160.25 L 221.210938 199.9375 Z M 181.519531 83.535156 " clip-rule="nonzero"/></clipPath><clipPath id="id37"><path d="M 228 94 L 290 94 L 290 158 L 228 158 Z M 228 94 " clip-rule="nonzero"/></clipPath><clipPath id="id38"><path d="M 181.519531 83.535156 L 297.921875 43.847656 L 337.613281 160.25 L 221.210938 199.9375 Z M 181.519531 83.535156 " clip-rule="nonzero"/></clipPath><clipPath id="id39"><path d="M 181.519531 83.535156 L 297.921875 43.847656 L 337.613281 160.25 L 221.210938 199.9375 Z M 181.519531 83.535156 " clip-rule="nonzero"/></clipPath></defs><g clip-path="url(#id1)"><g clip-path="url(#id2)"><g clip-path="url(#id3)"><path fill="#efd3f7" d="M 169.4375 60.726562 C 167.859375 60.007812 166.003906 60.351562 164.789062 61.585938 L 159.191406 67.261719 L 156.257812 59.203125 C 155.691406 57.652344 154.257812 56.585938 152.609375 56.496094 C 138.371094 55.703125 127.007812 64.1875 123.664062 78.109375 C 122.90625 81.257812 122.578125 85.488281 122.648438 90.21875 C 118.375 84.941406 113.957031 80.554688 110.308594 78.136719 C 98.824219 70.53125 84.339844 72.320312 74.265625 82.585938 C 73.054688 83.820312 72.742188 85.683594 73.484375 87.246094 L 76.90625 94.445312 L 68.328125 94.445312 C 66.679688 94.445312 65.1875 95.429688 64.535156 96.949219 C 58.921875 110.058594 63.007812 123.636719 74.945312 131.542969 C 78.582031 133.949219 84.324219 136.300781 90.828125 138.171875 C 86.484375 139.941406 82.753906 141.882812 80.167969 143.792969 C 68.65625 152.308594 65.28125 166.082031 71.570312 178.882812 C 72.296875 180.363281 73.835938 181.269531 75.484375 181.183594 L 84.050781 180.738281 L 81.007812 188.105469 C 80.347656 189.707031 80.757812 191.550781 82.03125 192.722656 C 92.625 202.449219 107.179688 203.480469 118.253906 195.289062 C 120.546875 193.59375 123.125 191.039062 125.75 187.945312 C 126.023438 191.199219 126.5 194.082031 127.175781 196.371094 C 131.238281 210.101562 143.027344 217.984375 157.207031 216.453125 C 158.847656 216.273438 160.222656 215.136719 160.707031 213.558594 L 163.222656 205.355469 L 169.105469 210.734375 C 170.382812 211.90625 172.253906 212.152344 173.789062 211.351562 C 178.664062 208.824219 182.542969 205.316406 185.257812 201.214844 C 189.660156 194.570312 191.007812 186.359375 188.59375 178.191406 C 187.390625 174.128906 184.628906 168.832031 181.003906 163.382812 C 187.4375 164.589844 193.390625 165.066406 197.601562 164.585938 C 206.066406 163.625 213.097656 159.175781 217.496094 152.53125 C 220.214844 148.425781 221.925781 143.484375 222.355469 138.011719 C 222.488281 136.285156 221.53125 134.660156 219.957031 133.941406 L 212.707031 130.621094 L 219.277344 125.109375 C 220.542969 124.046875 221.050781 122.335938 220.574219 120.753906 C 216.449219 107.101562 204.59375 99.328125 190.367188 100.945312 C 188 101.214844 185.160156 101.902344 182.066406 102.914062 C 183.910156 99.265625 185.269531 95.867188 185.941406 93.074219 C 189.160156 79.679688 182.527344 66.679688 169.4375 60.726562 Z M 169.4375 60.726562 " fill-opacity="1" fill-rule="nonzero"/></g></g></g><g clip-path="url(#id4)"><g clip-path="url(#id5)"><g clip-path="url(#id6)"><path fill="#ffffff" d="M 147.804688 98.617188 C 144.027344 99.386719 141.582031 103.085938 142.347656 106.859375 C 142.566406 107.925781 143.023438 108.882812 143.640625 109.695312 L 140.863281 118.265625 C 136.121094 118.195312 131.433594 119.960938 127.902344 123.332031 L 116.511719 115.789062 C 116.40625 113.640625 115.324219 111.570312 113.398438 110.292969 C 110.183594 108.164062 105.839844 109.046875 103.710938 112.261719 C 101.582031 115.476562 102.464844 119.824219 105.679688 121.949219 C 107.605469 123.226562 109.9375 123.414062 111.957031 122.671875 L 123.371094 130.230469 C 121.699219 134.761719 121.917969 139.71875 123.816406 144.015625 L 114.71875 151.882812 C 111.960938 151.253906 108.976562 152.335938 107.324219 154.828125 C 105.195312 158.042969 106.082031 162.390625 109.292969 164.519531 C 112.507812 166.648438 116.855469 165.761719 118.984375 162.550781 C 119.882812 161.191406 120.238281 159.636719 120.113281 158.128906 L 128.789062 150.628906 C 129.3125 151.066406 129.859375 151.480469 130.441406 151.867188 C 134.003906 154.222656 138.089844 155.167969 142.046875 154.84375 L 146.113281 165.859375 C 146.113281 165.863281 146.109375 165.863281 146.109375 165.867188 C 143.980469 169.082031 144.863281 173.425781 148.078125 175.554688 C 151.292969 177.683594 155.640625 176.800781 157.769531 173.585938 C 159.898438 170.371094 159.011719 166.027344 155.800781 163.898438 C 155.183594 163.492188 154.53125 163.195312 153.855469 163.003906 L 149.921875 152.34375 C 152.230469 150.980469 154.269531 149.085938 155.847656 146.703125 C 157.417969 144.335938 158.363281 141.730469 158.722656 139.085938 L 170.597656 138.480469 C 172.1875 140.429688 174.777344 141.457031 177.410156 140.921875 C 179.300781 140.535156 180.855469 139.421875 181.84375 137.929688 C 182.832031 136.4375 183.25 134.566406 182.867188 132.679688 C 182.496094 130.851562 181.433594 129.273438 179.875 128.242188 C 178.320312 127.210938 176.457031 126.847656 174.625 127.21875 C 174.621094 127.21875 174.621094 127.21875 174.621094 127.21875 C 172.789062 127.59375 171.214844 128.65625 170.1875 130.210938 C 170.179688 130.21875 170.175781 130.230469 170.171875 130.238281 L 157.964844 130.863281 C 156.726562 127.074219 154.257812 123.664062 150.683594 121.300781 C 150.101562 120.914062 149.5 120.566406 148.890625 120.257812 L 151.554688 112.042969 C 152.96875 111.539062 154.183594 110.605469 155.027344 109.328125 C 156.058594 107.769531 156.421875 105.90625 156.050781 104.078125 C 155.679688 102.25 154.617188 100.671875 153.058594 99.640625 C 151.5 98.605469 149.636719 98.246094 147.804688 98.617188 Z M 147.804688 98.617188 " fill-opacity="1" fill-rule="nonzero"/></g></g></g><g clip-path="url(#id7)"><g clip-path="url(#id8)"><g clip-path="url(#id9)"><path fill="#dd9fee" d="M 168.605469 51.65625 C 167.03125 50.9375 165.175781 51.28125 163.957031 52.515625 L 158.363281 58.191406 L 155.429688 50.132812 C 154.863281 48.582031 153.429688 47.515625 151.78125 47.425781 C 137.542969 46.632812 126.179688 55.117188 122.832031 69.039062 C 122.078125 72.1875 121.75 76.417969 121.820312 81.148438 C 117.546875 75.871094 113.125 71.484375 109.480469 69.066406 C 97.992188 61.460938 83.511719 63.25 73.4375 73.515625 C 72.222656 74.75 71.914062 76.609375 72.65625 78.175781 L 76.078125 85.375 L 67.5 85.375 C 65.847656 85.375 64.355469 86.359375 63.707031 87.878906 C 58.089844 100.988281 62.175781 114.566406 74.117188 122.472656 C 77.753906 124.878906 83.492188 127.230469 90 129.101562 C 85.65625 130.871094 81.921875 132.8125 79.335938 134.722656 C 67.828125 143.238281 64.449219 157.011719 70.738281 169.8125 C 71.46875 171.292969 73.007812 172.199219 74.65625 172.113281 L 83.222656 171.667969 L 80.179688 179.035156 C 79.519531 180.636719 79.925781 182.480469 81.203125 183.652344 C 91.792969 193.378906 106.351562 194.410156 117.425781 186.21875 C 119.71875 184.523438 122.296875 181.96875 124.917969 178.875 C 125.195312 182.128906 125.667969 185.011719 126.347656 187.300781 C 130.410156 201.03125 142.199219 208.914062 156.375 207.382812 C 158.015625 207.203125 159.394531 206.066406 159.878906 204.488281 L 162.390625 196.285156 L 168.273438 201.664062 C 169.550781 202.832031 171.421875 203.082031 172.960938 202.28125 C 177.832031 199.753906 181.710938 196.246094 184.429688 192.144531 C 188.828125 185.5 190.179688 177.289062 187.761719 169.121094 C 186.5625 165.058594 183.800781 159.757812 180.175781 154.3125 C 186.605469 155.519531 192.5625 155.996094 196.773438 155.515625 C 205.234375 154.554688 212.265625 150.105469 216.667969 143.460938 C 219.382812 139.355469 221.097656 134.414062 221.523438 128.941406 C 221.660156 127.214844 220.703125 125.589844 219.128906 124.867188 L 211.878906 121.550781 L 218.449219 116.039062 C 219.710938 114.976562 220.222656 113.265625 219.746094 111.683594 C 215.621094 98.03125 203.761719 90.257812 189.535156 91.875 C 187.167969 92.144531 184.332031 92.832031 181.238281 93.84375 C 183.082031 90.195312 184.441406 86.796875 185.113281 84.003906 C 188.332031 70.609375 181.695312 57.609375 168.605469 51.65625 Z M 168.605469 51.65625 " fill-opacity="1" fill-rule="nonzero"/></g></g></g><g clip-path="url(#id10)"><g clip-path="url(#id11)"><g clip-path="url(#id12)"><path fill="#ffffff" d="M 146.972656 89.546875 C 143.199219 90.316406 140.75 94.015625 141.519531 97.789062 C 141.734375 98.855469 142.191406 99.8125 142.8125 100.625 L 140.03125 109.195312 C 135.292969 109.125 130.601562 110.890625 127.074219 114.261719 L 115.683594 106.71875 C 115.578125 104.570312 114.496094 102.5 112.570312 101.222656 C 109.355469 99.09375 105.007812 99.976562 102.878906 103.191406 C 100.753906 106.40625 101.636719 110.753906 104.851562 112.878906 C 106.777344 114.15625 109.109375 114.34375 111.125 113.601562 L 122.542969 121.160156 C 120.867188 125.691406 121.089844 130.648438 122.988281 134.945312 L 113.886719 142.8125 C 111.132812 142.183594 108.148438 143.265625 106.496094 145.757812 C 104.367188 148.972656 105.25 153.320312 108.464844 155.449219 C 111.679688 157.578125 116.027344 156.691406 118.152344 153.480469 C 119.050781 152.121094 119.410156 150.566406 119.285156 149.058594 L 127.957031 141.558594 C 128.480469 141.996094 129.03125 142.410156 129.613281 142.796875 C 133.171875 145.152344 137.261719 146.097656 141.214844 145.773438 L 145.285156 156.789062 C 145.28125 156.792969 145.28125 156.792969 145.28125 156.796875 C 143.152344 160.011719 144.035156 164.355469 147.25 166.484375 C 150.464844 168.613281 154.808594 167.730469 156.9375 164.515625 C 159.066406 161.300781 158.183594 156.957031 154.96875 154.828125 C 154.355469 154.421875 153.699219 154.125 153.027344 153.933594 L 149.09375 143.273438 C 151.398438 141.910156 153.441406 140.015625 155.019531 137.632812 C 156.585938 135.265625 157.53125 132.660156 157.894531 130.015625 L 169.765625 129.410156 C 171.359375 131.359375 173.949219 132.386719 176.582031 131.851562 C 178.46875 131.464844 180.023438 130.351562 181.011719 128.859375 C 182 127.367188 182.421875 125.496094 182.039062 123.609375 C 181.667969 121.78125 180.605469 120.203125 179.046875 119.171875 C 177.488281 118.140625 175.625 117.777344 173.796875 118.148438 C 173.796875 118.148438 173.792969 118.148438 173.792969 118.148438 C 173.792969 118.148438 173.792969 118.148438 173.789062 118.148438 C 171.960938 118.523438 170.386719 119.585938 169.355469 121.140625 C 169.351562 121.148438 169.347656 121.15625 169.339844 121.167969 L 157.136719 121.792969 C 155.894531 118.003906 153.425781 114.59375 149.855469 112.230469 C 149.269531 111.84375 148.671875 111.496094 148.0625 111.1875 L 150.726562 102.972656 C 152.140625 102.46875 153.355469 101.535156 154.199219 100.257812 C 155.230469 98.699219 155.59375 96.832031 155.222656 95.007812 C 154.851562 93.179688 153.789062 91.601562 152.230469 90.570312 C 150.671875 89.535156 148.804688 89.175781 146.972656 89.546875 Z M 146.972656 89.546875 " fill-opacity="1" fill-rule="nonzero"/></g></g></g><g clip-path="url(#id13)"><g clip-path="url(#id14)"><g clip-path="url(#id15)"><path fill="#ffabd1" d="M 167.558594 39.066406 C 165.960938 38.339844 164.078125 38.691406 162.847656 39.941406 L 157.171875 45.695312 L 154.199219 37.523438 C 153.625 35.953125 152.171875 34.871094 150.5 34.78125 C 136.066406 33.976562 124.550781 42.574219 121.15625 56.6875 C 120.390625 59.878906 120.058594 64.167969 120.128906 68.964844 C 115.796875 63.613281 111.316406 59.167969 107.621094 56.71875 C 95.976562 49.007812 81.296875 50.820312 71.085938 61.226562 C 69.855469 62.480469 69.539062 64.367188 70.292969 65.949219 L 73.757812 73.25 L 65.066406 73.25 C 63.390625 73.25 61.878906 74.25 61.21875 75.785156 C 55.527344 89.074219 59.667969 102.839844 71.773438 110.851562 C 75.457031 113.296875 81.277344 115.675781 87.875 117.574219 C 83.46875 119.371094 79.6875 121.335938 77.066406 123.273438 C 65.394531 131.90625 61.976562 145.867188 68.347656 158.84375 C 69.085938 160.34375 70.648438 161.261719 72.320312 161.175781 L 81.003906 160.726562 L 77.917969 168.195312 C 77.25 169.816406 77.664062 171.683594 78.957031 172.871094 C 89.691406 182.730469 104.449219 183.777344 115.675781 175.476562 C 118 173.757812 120.613281 171.164062 123.273438 168.03125 C 123.550781 171.328125 124.03125 174.253906 124.71875 176.570312 C 128.835938 190.488281 140.785156 198.480469 155.160156 196.925781 C 156.824219 196.746094 158.21875 195.59375 158.710938 193.992188 L 161.257812 185.679688 L 167.21875 191.132812 C 168.515625 192.316406 170.414062 192.566406 171.96875 191.757812 C 176.910156 189.195312 180.84375 185.640625 183.597656 181.480469 C 188.058594 174.746094 189.425781 166.421875 186.976562 158.144531 C 185.757812 154.023438 182.957031 148.652344 179.285156 143.128906 C 185.804688 144.355469 191.839844 144.835938 196.109375 144.351562 C 204.6875 143.375 211.816406 138.867188 216.277344 132.128906 C 219.03125 127.96875 220.765625 122.960938 221.199219 117.414062 C 221.335938 115.664062 220.367188 114.015625 218.769531 113.285156 L 211.421875 109.921875 L 218.082031 104.332031 C 219.363281 103.257812 219.878906 101.519531 219.394531 99.917969 C 215.214844 86.082031 203.195312 78.199219 188.773438 79.839844 C 186.375 80.109375 183.5 80.808594 180.363281 81.835938 C 182.230469 78.132812 183.609375 74.6875 184.289062 71.859375 C 187.550781 58.28125 180.828125 45.105469 167.558594 39.066406 Z M 167.558594 39.066406 " fill-opacity="1" fill-rule="nonzero"/></g></g></g><g clip-path="url(#id16)"><g clip-path="url(#id17)"><g clip-path="url(#id18)"><path fill="#ffffff" d="M 145.628906 77.480469 C 141.800781 78.257812 139.320312 82.007812 140.097656 85.835938 C 140.316406 86.914062 140.78125 87.882812 141.410156 88.707031 L 138.59375 97.394531 C 133.785156 97.324219 129.03125 99.113281 125.453125 102.53125 L 113.910156 94.886719 C 113.800781 92.707031 112.707031 90.605469 110.753906 89.3125 C 107.496094 87.15625 103.089844 88.050781 100.929688 91.308594 C 98.773438 94.570312 99.667969 98.972656 102.925781 101.132812 C 104.878906 102.425781 107.242188 102.613281 109.289062 101.863281 L 120.863281 109.523438 C 119.164062 114.121094 119.390625 119.140625 121.3125 123.5 L 112.089844 131.472656 C 109.292969 130.835938 106.269531 131.933594 104.59375 134.460938 C 102.4375 137.71875 103.332031 142.125 106.589844 144.28125 C 109.851562 146.441406 114.257812 145.542969 116.414062 142.285156 C 117.324219 140.910156 117.683594 139.332031 117.558594 137.804688 L 126.351562 130.203125 C 126.882812 130.644531 127.441406 131.066406 128.03125 131.457031 C 131.636719 133.847656 135.78125 134.804688 139.792969 134.472656 L 143.914062 145.644531 C 143.914062 145.644531 143.914062 145.648438 143.910156 145.648438 C 141.753906 148.90625 142.648438 153.3125 145.90625 155.46875 C 149.164062 157.628906 153.570312 156.734375 155.730469 153.472656 C 157.886719 150.214844 156.992188 145.808594 153.734375 143.652344 C 153.109375 143.242188 152.445312 142.941406 151.765625 142.746094 L 147.773438 131.941406 C 150.113281 130.558594 152.183594 128.636719 153.78125 126.222656 C 155.375 123.820312 156.332031 121.183594 156.695312 118.503906 L 168.734375 117.886719 C 170.347656 119.863281 172.972656 120.902344 175.640625 120.363281 C 177.554688 119.972656 179.132812 118.839844 180.132812 117.328125 C 181.136719 115.816406 181.5625 113.921875 181.171875 112.007812 C 180.796875 110.152344 179.71875 108.554688 178.140625 107.507812 C 176.5625 106.464844 174.671875 106.097656 172.820312 106.472656 C 172.820312 106.472656 172.820312 106.472656 172.816406 106.472656 C 172.8125 106.472656 172.8125 106.472656 172.8125 106.472656 C 170.957031 106.851562 169.363281 107.925781 168.316406 109.503906 C 168.3125 109.511719 168.308594 109.523438 168.300781 109.53125 L 155.929688 110.164062 C 154.671875 106.328125 152.167969 102.867188 148.546875 100.472656 C 147.957031 100.078125 147.347656 99.730469 146.730469 99.414062 L 149.429688 91.089844 C 150.867188 90.578125 152.09375 89.628906 152.953125 88.335938 C 153.996094 86.757812 154.363281 84.867188 153.988281 83.015625 C 153.613281 81.160156 152.535156 79.5625 150.957031 78.515625 C 149.375 77.46875 147.484375 77.101562 145.628906 77.480469 Z M 145.628906 77.480469 " fill-opacity="1" fill-rule="nonzero"/></g></g></g><g clip-path="url(#id19)"><path fill="#b2b2b2" d="M 291.851562 253.121094 C 291.488281 250.847656 289.746094 249.042969 287.488281 248.601562 L 277.09375 246.570312 L 283.871094 237.40625 C 285.175781 235.640625 285.300781 233.269531 284.195312 231.375 C 274.625 215.019531 256.894531 208.65625 239.015625 215.164062 C 234.96875 216.632812 230.042969 219.375 224.851562 222.925781 C 227.566406 214.316406 229.183594 206.203125 229.183594 200.386719 C 229.183594 182.085938 216.578125 167.351562 197.816406 163.71875 C 195.558594 163.285156 193.265625 164.304688 192.078125 166.273438 L 186.613281 175.34375 L 180.316406 165.84375 C 179.105469 164.015625 176.921875 163.085938 174.765625 163.476562 C 156.121094 166.875 144.074219 181.363281 144.074219 200.386719 C 144.074219 206.183594 145.683594 214.269531 148.382812 222.851562 C 143.234375 219.335938 138.347656 216.625 134.332031 215.164062 C 116.453125 208.65625 98.71875 215.019531 89.152344 231.375 C 88.042969 233.269531 88.171875 235.640625 89.476562 237.40625 L 96.25 246.570312 L 85.855469 248.601562 C 83.597656 249.046875 81.855469 250.851562 81.492188 253.121094 C 78.488281 271.992188 88.023438 288.878906 105.222656 295.136719 C 108.785156 296.433594 113.503906 297.414062 118.855469 298.054688 C 115.453125 300.742188 112.605469 303.386719 110.566406 305.816406 C 98.339844 320.390625 98.253906 339.230469 110.351562 353.816406 C 111.753906 355.503906 114.023438 356.195312 116.128906 355.574219 L 127.054688 352.339844 L 125.414062 362.804688 C 125.054688 365.078125 126.15625 367.332031 128.167969 368.449219 C 134.546875 371.992188 141.273438 373.714844 147.816406 373.714844 C 158.402344 373.714844 168.492188 369.1875 175.765625 360.523438 C 179.386719 356.207031 183.230469 349.261719 186.609375 341.25 C 189.984375 349.261719 193.828125 356.207031 197.449219 360.523438 C 204.722656 369.191406 214.808594 373.71875 225.402344 373.714844 C 231.941406 373.714844 238.671875 371.992188 245.046875 368.449219 C 247.058594 367.332031 248.160156 365.078125 247.800781 362.804688 L 246.160156 352.339844 L 257.085938 355.574219 C 259.191406 356.195312 261.460938 355.503906 262.863281 353.816406 C 274.960938 339.230469 274.875 320.390625 262.648438 305.816406 C 260.613281 303.390625 257.769531 300.75 254.375 298.066406 C 259.773438 297.429688 264.539062 296.445312 268.125 295.136719 C 285.320312 288.878906 294.859375 271.992188 291.851562 253.121094 Z M 291.851562 253.121094 " fill-opacity="1" fill-rule="nonzero"/></g><path fill="#ffffff" d="M 234 256.953125 C 230.378906 253.335938 224.488281 253.335938 220.867188 256.957031 C 219.84375 257.980469 219.121094 259.1875 218.675781 260.46875 L 207.140625 263.675781 C 203.742188 258.375 198.347656 254.472656 192.019531 253.035156 L 192.019531 234.882812 C 194.324219 233.191406 195.828125 230.472656 195.828125 227.402344 C 195.828125 222.28125 191.660156 218.113281 186.539062 218.113281 C 181.414062 218.113281 177.246094 222.28125 177.246094 227.402344 C 177.246094 230.472656 178.75 233.191406 181.054688 234.882812 L 181.054688 253.078125 C 174.804688 254.546875 169.476562 258.429688 166.109375 263.683594 L 150.71875 259.375 C 149.390625 255.859375 146.003906 253.347656 142.03125 253.347656 C 136.90625 253.347656 132.738281 257.515625 132.738281 262.636719 C 132.738281 267.757812 136.90625 271.925781 142.03125 271.925781 C 144.191406 271.925781 146.175781 271.179688 147.757812 269.933594 L 162.429688 274.042969 C 162.328125 274.945312 162.269531 275.859375 162.269531 276.785156 C 162.269531 282.457031 164.226562 287.679688 167.488281 291.824219 L 158.261719 304.414062 C 158.261719 304.414062 158.257812 304.414062 158.253906 304.414062 C 153.132812 304.414062 148.964844 308.578125 148.964844 313.703125 C 148.964844 318.824219 153.132812 322.992188 158.253906 322.992188 C 163.378906 322.992188 167.542969 318.824219 167.542969 313.703125 C 167.542969 312.722656 167.390625 311.78125 167.109375 310.894531 L 176.03125 298.714844 C 179.238281 300.269531 182.832031 301.144531 186.628906 301.144531 C 190.40625 301.144531 193.984375 300.28125 197.175781 298.738281 L 206.5625 311.449219 C 205.570312 314.640625 206.332031 318.265625 208.855469 320.789062 C 210.667969 322.601562 213.042969 323.503906 215.421875 323.503906 C 217.800781 323.503906 220.179688 322.597656 221.988281 320.789062 C 223.742188 319.035156 224.710938 316.703125 224.710938 314.21875 C 224.710938 311.738281 223.746094 309.40625 221.992188 307.652344 C 221.992188 307.652344 221.992188 307.648438 221.988281 307.648438 C 221.988281 307.648438 221.988281 307.648438 221.988281 307.644531 C 221.984375 307.644531 221.984375 307.644531 221.984375 307.644531 C 220.230469 305.894531 217.902344 304.929688 215.421875 304.929688 C 215.40625 304.929688 215.394531 304.929688 215.378906 304.929688 L 205.734375 291.867188 C 209.019531 287.714844 210.984375 282.476562 210.984375 276.785156 C 210.984375 275.855469 210.929688 274.9375 210.828125 274.035156 L 221.878906 270.960938 C 223.476562 272.15625 225.402344 272.816406 227.433594 272.816406 C 229.917969 272.816406 232.25 271.847656 234 270.097656 C 235.757812 268.34375 236.722656 266.007812 236.722656 263.523438 C 236.726562 261.042969 235.757812 258.710938 234 256.953125 Z M 234 256.953125 " fill-opacity="1" fill-rule="nonzero"/><g clip-path="url(#id20)"><path fill="#595959" d="M 284.835938 245.488281 C 284.472656 243.214844 282.730469 241.410156 280.472656 240.96875 L 270.078125 238.933594 L 276.851562 229.773438 C 278.15625 228.007812 278.285156 225.636719 277.175781 223.742188 C 267.609375 207.386719 249.875 201.023438 231.996094 207.527344 C 227.953125 209 223.027344 211.742188 217.835938 215.292969 C 220.546875 206.683594 222.167969 198.570312 222.167969 192.753906 C 222.167969 174.453125 209.5625 159.71875 190.800781 156.085938 C 188.539062 155.652344 186.25 156.671875 185.0625 158.640625 L 179.59375 167.710938 L 173.300781 158.210938 C 172.089844 156.382812 169.90625 155.453125 167.746094 155.84375 C 149.105469 159.242188 137.058594 173.730469 137.058594 192.753906 C 137.058594 198.550781 138.667969 206.636719 141.367188 215.21875 C 136.214844 211.703125 131.328125 208.992188 127.3125 207.53125 C 109.4375 201.023438 91.703125 207.386719 82.132812 223.742188 C 81.027344 225.636719 81.152344 228.007812 82.457031 229.773438 L 89.234375 238.9375 L 78.839844 240.96875 C 76.582031 241.414062 74.839844 243.214844 74.476562 245.488281 C 71.46875 264.359375 81.007812 281.246094 98.203125 287.503906 C 101.765625 288.800781 106.488281 289.78125 111.839844 290.421875 C 108.4375 293.109375 105.589844 295.753906 103.550781 298.183594 C 91.320312 312.757812 91.238281 331.597656 103.335938 346.183594 C 104.734375 347.871094 107.007812 348.5625 109.113281 347.941406 L 120.039062 344.707031 L 118.398438 355.171875 C 118.039062 357.445312 119.140625 359.699219 121.152344 360.816406 C 127.527344 364.359375 134.257812 366.082031 140.796875 366.082031 C 151.386719 366.082031 161.476562 361.554688 168.75 352.890625 C 172.371094 348.574219 176.214844 341.628906 179.589844 333.617188 C 182.96875 341.628906 186.8125 348.574219 190.433594 352.890625 C 197.707031 361.558594 207.792969 366.085938 218.382812 366.082031 C 224.921875 366.082031 231.65625 364.359375 238.03125 360.816406 C 240.042969 359.699219 241.140625 357.445312 240.785156 355.171875 L 239.144531 344.707031 L 250.070312 347.941406 C 252.175781 348.5625 254.445312 347.871094 255.847656 346.183594 C 267.945312 331.597656 267.859375 312.757812 255.628906 298.183594 C 253.597656 295.757812 250.753906 293.117188 247.359375 290.433594 C 252.757812 289.796875 257.519531 288.8125 261.109375 287.503906 C 278.304688 281.246094 287.839844 264.359375 284.835938 245.488281 Z M 284.835938 245.488281 " fill-opacity="1" fill-rule="nonzero"/></g><path fill="#ffffff" d="M 226.984375 249.320312 C 223.363281 245.703125 217.472656 245.703125 213.851562 249.324219 C 212.828125 250.347656 212.105469 251.554688 211.660156 252.835938 L 200.125 256.042969 C 196.726562 250.742188 191.328125 246.839844 185.003906 245.402344 L 185.003906 227.25 C 187.304688 225.558594 188.808594 222.839844 188.808594 219.769531 C 188.808594 214.648438 184.644531 210.480469 179.519531 210.480469 C 174.398438 210.480469 170.230469 214.648438 170.230469 219.769531 C 170.230469 222.839844 171.734375 225.558594 174.039062 227.25 L 174.039062 245.445312 C 167.789062 246.914062 162.460938 250.796875 159.09375 256.050781 L 143.699219 251.742188 C 142.375 248.226562 138.984375 245.714844 135.011719 245.714844 C 129.890625 245.714844 125.722656 249.878906 125.722656 255.003906 C 125.722656 260.125 129.890625 264.292969 135.011719 264.292969 C 137.175781 264.292969 139.160156 263.546875 140.742188 262.300781 L 155.414062 266.410156 C 155.3125 267.3125 155.253906 268.226562 155.253906 269.152344 C 155.253906 274.824219 157.207031 280.046875 160.472656 284.191406 L 151.246094 296.78125 C 151.242188 296.78125 151.242188 296.78125 151.238281 296.78125 C 146.117188 296.78125 141.949219 300.945312 141.949219 306.070312 C 141.949219 311.191406 146.117188 315.359375 151.238281 315.359375 C 156.359375 315.359375 160.527344 311.191406 160.527344 306.070312 C 160.527344 305.089844 160.375 304.148438 160.09375 303.261719 L 169.015625 291.082031 C 172.222656 292.636719 175.816406 293.511719 179.613281 293.511719 C 183.386719 293.511719 186.964844 292.648438 190.160156 291.105469 L 199.542969 303.816406 C 198.550781 307.007812 199.3125 310.632812 201.839844 313.15625 C 203.648438 314.96875 206.027344 315.871094 208.40625 315.871094 C 210.78125 315.871094 213.160156 314.964844 214.96875 313.15625 C 216.726562 311.402344 217.695312 309.070312 217.695312 306.585938 C 217.695312 304.105469 216.730469 301.773438 214.976562 300.019531 C 214.976562 300.019531 214.972656 300.015625 214.972656 300.015625 C 214.972656 300.015625 214.972656 300.015625 214.96875 300.011719 C 213.214844 298.261719 210.882812 297.296875 208.402344 297.296875 C 208.390625 297.296875 208.375 297.296875 208.363281 297.296875 L 198.71875 284.234375 C 202 280.082031 203.96875 274.84375 203.96875 269.152344 C 203.96875 268.222656 203.910156 267.304688 203.808594 266.402344 L 214.863281 263.328125 C 216.460938 264.523438 218.386719 265.183594 220.417969 265.183594 C 222.902344 265.183594 225.234375 264.214844 226.984375 262.464844 C 228.742188 260.710938 229.707031 258.375 229.707031 255.890625 C 229.710938 253.410156 228.742188 251.074219 226.984375 249.320312 Z M 226.984375 249.320312 " fill-opacity="1" fill-rule="nonzero"/><g clip-path="url(#id21)"><path fill="#fe7ab6" d="M 274.777344 236.519531 C 274.414062 234.25 272.671875 232.445312 270.414062 232.003906 L 260.019531 229.96875 L 266.796875 220.804688 C 268.101562 219.039062 268.226562 216.667969 267.121094 214.777344 C 257.550781 198.417969 239.816406 192.054688 221.941406 198.5625 C 217.894531 200.035156 212.96875 202.773438 207.777344 206.324219 C 210.488281 197.714844 212.109375 189.601562 212.109375 183.789062 C 212.109375 165.484375 199.503906 150.75 180.742188 147.121094 C 178.480469 146.683594 176.191406 147.703125 175.003906 149.671875 L 169.535156 158.746094 L 163.242188 149.242188 C 162.03125 147.414062 159.847656 146.484375 157.6875 146.878906 C 139.046875 150.273438 127 164.761719 127 183.789062 C 127 189.585938 128.609375 197.667969 131.308594 206.25 C 126.15625 202.734375 121.273438 200.023438 117.253906 198.5625 C 99.378906 192.054688 81.644531 198.417969 72.074219 214.777344 C 70.96875 216.667969 71.09375 219.039062 72.398438 220.804688 L 79.175781 229.96875 L 68.78125 232.003906 C 66.523438 232.445312 64.78125 234.25 64.417969 236.519531 C 61.414062 255.394531 70.949219 272.277344 88.148438 278.539062 C 91.707031 279.835938 96.429688 280.816406 101.78125 281.453125 C 98.378906 284.140625 95.53125 286.785156 93.492188 289.214844 C 81.265625 303.789062 81.179688 322.632812 93.277344 337.214844 C 94.679688 338.902344 96.949219 339.59375 99.054688 338.972656 L 109.980469 335.738281 L 108.339844 346.203125 C 107.980469 348.476562 109.082031 350.730469 111.09375 351.847656 C 117.472656 355.390625 124.199219 357.117188 130.738281 357.117188 C 141.328125 357.117188 151.417969 352.589844 158.691406 343.921875 C 162.3125 339.605469 166.15625 332.660156 169.53125 324.648438 C 172.910156 332.660156 176.753906 339.605469 180.375 343.921875 C 187.648438 352.589844 197.734375 357.117188 208.328125 357.117188 C 214.863281 357.117188 221.597656 355.390625 227.972656 351.847656 C 229.984375 350.730469 231.085938 348.476562 230.726562 346.203125 L 229.085938 335.738281 L 240.011719 338.972656 C 242.117188 339.59375 244.386719 338.902344 245.789062 337.214844 C 257.886719 322.628906 257.800781 303.789062 245.574219 289.214844 C 243.539062 286.789062 240.695312 284.152344 237.300781 281.464844 C 242.699219 280.828125 247.460938 279.84375 251.050781 278.539062 C 268.246094 272.277344 277.78125 255.390625 274.777344 236.519531 Z M 274.777344 236.519531 " fill-opacity="1" fill-rule="nonzero"/></g><path fill="#ffffff" d="M 216.925781 240.355469 C 213.304688 236.734375 207.414062 236.734375 203.792969 240.355469 C 202.769531 241.378906 202.046875 242.585938 201.601562 243.867188 L 190.066406 247.078125 C 186.667969 241.773438 181.273438 237.871094 174.945312 236.4375 L 174.945312 218.285156 C 177.25 216.589844 178.753906 213.871094 178.753906 210.800781 C 178.753906 205.679688 174.585938 201.511719 169.460938 201.511719 C 164.339844 201.511719 160.171875 205.679688 160.171875 210.800781 C 160.171875 213.871094 161.675781 216.589844 163.980469 218.285156 L 163.980469 236.476562 C 157.730469 237.949219 152.402344 241.828125 149.035156 247.085938 L 133.640625 242.773438 C 132.316406 239.257812 128.929688 236.746094 124.953125 236.746094 C 119.832031 236.746094 115.664062 240.914062 115.664062 246.035156 C 115.664062 251.15625 119.832031 255.324219 124.953125 255.324219 C 127.117188 255.324219 129.101562 254.578125 130.683594 253.335938 L 145.355469 257.441406 C 145.253906 258.34375 145.195312 259.257812 145.195312 260.183594 C 145.195312 265.855469 147.148438 271.078125 150.414062 275.222656 L 141.1875 287.8125 C 141.1875 287.8125 141.183594 287.8125 141.179688 287.8125 C 136.058594 287.8125 131.890625 291.980469 131.890625 297.101562 C 131.890625 302.222656 136.058594 306.390625 141.179688 306.390625 C 146.304688 306.390625 150.46875 302.222656 150.46875 297.101562 C 150.46875 296.125 150.316406 295.179688 150.035156 294.292969 L 158.957031 282.113281 C 162.164062 283.667969 165.757812 284.542969 169.554688 284.542969 C 173.332031 284.542969 176.910156 283.679688 180.101562 282.140625 L 189.484375 294.847656 C 188.496094 298.039062 189.257812 301.664062 191.78125 304.191406 C 193.59375 306 195.96875 306.902344 198.347656 306.902344 C 200.726562 306.902344 203.101562 306 204.910156 304.191406 C 206.667969 302.433594 207.636719 300.101562 207.636719 297.617188 C 207.636719 295.136719 206.671875 292.804688 204.917969 291.050781 C 204.917969 291.050781 204.917969 291.050781 204.914062 291.046875 C 204.914062 291.046875 204.914062 291.046875 204.910156 291.046875 C 203.15625 289.292969 200.824219 288.328125 198.347656 288.328125 C 198.332031 288.328125 198.320312 288.328125 198.304688 288.328125 L 188.660156 275.265625 C 191.945312 271.113281 193.910156 265.875 193.910156 260.183594 C 193.910156 259.253906 193.855469 258.335938 193.75 257.433594 L 204.804688 254.359375 C 206.402344 255.558594 208.328125 256.214844 210.359375 256.214844 C 212.84375 256.214844 215.175781 255.246094 216.925781 253.496094 C 218.683594 251.742188 219.648438 249.40625 219.648438 246.925781 C 219.652344 244.441406 218.683594 242.109375 216.925781 240.351562 Z M 216.925781 240.355469 " fill-opacity="1" fill-rule="nonzero"/><g fill="#ff00ff" fill-opacity="1"><g transform="translate(210.525934, 266.688345)"><g><path d="M 7.109375 -25.109375 L 28.859375 -27.28125 C 28.859375 -24.90625 30.078125 -22.660156 32.515625 -20.546875 C 34.953125 -18.441406 38.675781 -17.390625 43.6875 -17.390625 C 48.03125 -17.390625 51.382812 -18.476562 53.75 -20.65625 C 56.125 -22.832031 57.3125 -25.367188 57.3125 -28.265625 C 57.3125 -32.085938 55.765625 -35.148438 52.671875 -37.453125 C 49.578125 -39.765625 45.789062 -41.609375 41.3125 -42.984375 C 36.832031 -44.367188 32.316406 -45.953125 27.765625 -47.734375 C 23.222656 -49.515625 19.203125 -52.445312 15.703125 -56.53125 C 12.210938 -60.613281 10.140625 -65.816406 9.484375 -72.140625 C 9.359375 -72.929688 9.296875 -73.722656 9.296875 -74.515625 C 9.296875 -80.972656 11.863281 -86.90625 17 -92.3125 C 22.53125 -98.363281 31.289062 -101.390625 43.28125 -101.390625 C 47.5 -101.390625 51.453125 -100.894531 55.140625 -99.90625 C 58.835938 -98.925781 61.472656 -97.972656 63.046875 -97.046875 L 65.421875 -95.671875 L 59.09375 -75.5 C 56.0625 -78.53125 50.789062 -80.046875 43.28125 -80.046875 C 39.59375 -80.046875 36.859375 -79.519531 35.078125 -78.46875 C 33.304688 -77.414062 32.519531 -76.257812 32.71875 -75 C 32.914062 -73.75 33.015625 -72.664062 33.015625 -71.75 C 33.398438 -69.769531 35.335938 -67.957031 38.828125 -66.3125 C 42.328125 -64.664062 46.316406 -63.050781 50.796875 -61.46875 C 55.273438 -59.882812 59.753906 -57.90625 64.234375 -55.53125 C 68.710938 -53.164062 72.5 -49.609375 75.59375 -44.859375 C 78.695312 -40.117188 80.25 -34.457031 80.25 -27.875 C 80.25 -19.300781 77.148438 -12.015625 70.953125 -6.015625 C 64.765625 -0.0234375 55.675781 2.96875 43.6875 2.96875 C 32.476562 2.96875 23.644531 0.265625 17.1875 -5.140625 C 10.738281 -10.546875 7.378906 -17.203125 7.109375 -25.109375 Z M 7.109375 -25.109375 "/></g></g></g><g fill="#ff00ff" fill-opacity="1"><g transform="translate(291.759821, 266.688345)"><g><path d="M 83.40625 -58.90625 L 83.40625 0 C 69.707031 1.3125 58.769531 1.96875 50.59375 1.96875 C 46.90625 1.96875 43.8125 1.835938 41.3125 1.578125 C 19.695312 -0.785156 8.363281 -11.523438 7.3125 -30.640625 C 7.3125 -31.554688 7.3125 -32.476562 7.3125 -33.40625 L 7.3125 -49.8125 C 7.3125 -62.851562 11.859375 -71.613281 20.953125 -76.09375 C 24.773438 -78.207031 29.125 -79.265625 34 -79.265625 C 34.789062 -79.265625 35.515625 -79.195312 36.171875 -79.0625 C 41.972656 -78.800781 46.976562 -78.109375 51.1875 -76.984375 C 55.40625 -75.867188 58.898438 -74.519531 61.671875 -72.9375 C 61.671875 -81.363281 54.617188 -85.578125 40.515625 -85.578125 L 42.296875 -100.609375 C 47.304688 -100.609375 51.816406 -100.3125 55.828125 -99.71875 C 59.847656 -99.125 63.242188 -98.132812 66.015625 -96.75 C 68.785156 -95.363281 71.222656 -93.945312 73.328125 -92.5 C 75.441406 -91.050781 77.085938 -89.140625 78.265625 -86.765625 C 79.453125 -84.398438 80.441406 -82.328125 81.234375 -80.546875 C 82.023438 -78.765625 82.550781 -76.359375 82.8125 -73.328125 C 83.082031 -70.296875 83.25 -67.921875 83.3125 -66.203125 C 83.375 -64.492188 83.40625 -62.0625 83.40625 -58.90625 Z M 61.671875 -19.171875 L 61.671875 -49.8125 C 59.554688 -51.257812 56.816406 -52.609375 53.453125 -53.859375 C 50.097656 -55.109375 46.507812 -56.066406 42.6875 -56.734375 C 41.632812 -56.859375 40.582031 -56.921875 39.53125 -56.921875 C 37.15625 -56.921875 35.046875 -56.394531 33.203125 -55.34375 C 30.566406 -53.757812 29.25 -50.992188 29.25 -47.046875 L 29.25 -36.171875 C 29.25 -24.046875 36.234375 -17.984375 50.203125 -17.984375 C 53.628906 -17.984375 57.453125 -18.378906 61.671875 -19.171875 Z M 61.671875 -19.171875 "/></g></g></g><g fill="#ff00ff" fill-opacity="1"><g transform="translate(378.330234, 266.688345)"><g><path d="M 94.078125 0 L 66.8125 0 L 37.15625 -50.203125 L 34.390625 -47.4375 L 34.390625 0 L 12.65625 0 L 12.65625 -138.359375 L 34.390625 -138.359375 L 34.390625 -75.5 L 63.84375 -102.78125 L 79.859375 -87.5625 L 53.953125 -65.625 C 73.191406 -33.863281 86.566406 -11.988281 94.078125 0 Z M 94.078125 0 "/></g></g></g><g fill="#ff00ff" fill-opacity="1"><g transform="translate(468.063064, 266.688345)"><g><path d="M 80.84375 0 L 60.484375 0 L 59.09375 -1.1875 C 53.164062 1.050781 48.226562 2.171875 44.28125 2.171875 C 19.5 2.171875 7.109375 -9.882812 7.109375 -34 L 7.109375 -99.03125 L 28.859375 -99.03125 L 28.859375 -37.15625 C 28.859375 -31.09375 29.941406 -26.613281 32.109375 -23.71875 C 34.285156 -20.820312 38.335938 -19.375 44.265625 -19.375 C 50.203125 -19.375 54.15625 -20.988281 56.125 -24.21875 C 58.101562 -27.445312 59.09375 -32.023438 59.09375 -37.953125 L 59.09375 -99.03125 L 80.84375 -99.03125 Z M 80.84375 0 "/></g></g></g><g fill="#ff00ff" fill-opacity="1"><g transform="translate(552.459335, 266.688345)"><g><path d="M 33.796875 0 L 12.0625 0 L 12.0625 -99.03125 L 32.21875 -99.03125 L 33.796875 -98.234375 C 38.148438 -99.679688 42.566406 -100.472656 47.046875 -100.609375 C 48.492188 -100.609375 49.8125 -100.609375 51 -100.609375 C 53.5 -100.609375 55.34375 -100.539062 56.53125 -100.40625 C 58.375 -100.144531 62 -99.421875 67.40625 -98.234375 L 62.265625 -77.078125 C 58.578125 -78.929688 55.019531 -79.859375 51.59375 -79.859375 C 48.6875 -79.859375 45.851562 -79.265625 43.09375 -78.078125 C 36.894531 -75.304688 33.796875 -70.492188 33.796875 -63.640625 Z M 33.796875 0 "/></g></g></g><g fill="#ff00ff" fill-opacity="1"><g transform="translate(623.613113, 266.688345)"><g><path d="M 83.40625 -58.90625 L 83.40625 0 C 69.707031 1.3125 58.769531 1.96875 50.59375 1.96875 C 46.90625 1.96875 43.8125 1.835938 41.3125 1.578125 C 19.695312 -0.785156 8.363281 -11.523438 7.3125 -30.640625 C 7.3125 -31.554688 7.3125 -32.476562 7.3125 -33.40625 L 7.3125 -49.8125 C 7.3125 -62.851562 11.859375 -71.613281 20.953125 -76.09375 C 24.773438 -78.207031 29.125 -79.265625 34 -79.265625 C 34.789062 -79.265625 35.515625 -79.195312 36.171875 -79.0625 C 41.972656 -78.800781 46.976562 -78.109375 51.1875 -76.984375 C 55.40625 -75.867188 58.898438 -74.519531 61.671875 -72.9375 C 61.671875 -81.363281 54.617188 -85.578125 40.515625 -85.578125 L 42.296875 -100.609375 C 47.304688 -100.609375 51.816406 -100.3125 55.828125 -99.71875 C 59.847656 -99.125 63.242188 -98.132812 66.015625 -96.75 C 68.785156 -95.363281 71.222656 -93.945312 73.328125 -92.5 C 75.441406 -91.050781 77.085938 -89.140625 78.265625 -86.765625 C 79.453125 -84.398438 80.441406 -82.328125 81.234375 -80.546875 C 82.023438 -78.765625 82.550781 -76.359375 82.8125 -73.328125 C 83.082031 -70.296875 83.25 -67.921875 83.3125 -66.203125 C 83.375 -64.492188 83.40625 -62.0625 83.40625 -58.90625 Z M 61.671875 -19.171875 L 61.671875 -49.8125 C 59.554688 -51.257812 56.816406 -52.609375 53.453125 -53.859375 C 50.097656 -55.109375 46.507812 -56.066406 42.6875 -56.734375 C 41.632812 -56.859375 40.582031 -56.921875 39.53125 -56.921875 C 37.15625 -56.921875 35.046875 -56.394531 33.203125 -55.34375 C 30.566406 -53.757812 29.25 -50.992188 29.25 -47.046875 L 29.25 -36.171875 C 29.25 -24.046875 36.234375 -17.984375 50.203125 -17.984375 C 53.628906 -17.984375 57.453125 -18.378906 61.671875 -19.171875 Z M 61.671875 -19.171875 "/></g></g></g><g fill="#00ffff" fill-opacity="1"><g transform="translate(202.010122, 265.186778)"><g><path d="M 7.109375 -25.109375 L 28.859375 -27.28125 C 28.859375 -24.90625 30.078125 -22.660156 32.515625 -20.546875 C 34.953125 -18.441406 38.675781 -17.390625 43.6875 -17.390625 C 48.03125 -17.390625 51.382812 -18.476562 53.75 -20.65625 C 56.125 -22.832031 57.3125 -25.367188 57.3125 -28.265625 C 57.3125 -32.085938 55.765625 -35.148438 52.671875 -37.453125 C 49.578125 -39.765625 45.789062 -41.609375 41.3125 -42.984375 C 36.832031 -44.367188 32.316406 -45.953125 27.765625 -47.734375 C 23.222656 -49.515625 19.203125 -52.445312 15.703125 -56.53125 C 12.210938 -60.613281 10.140625 -65.816406 9.484375 -72.140625 C 9.359375 -72.929688 9.296875 -73.722656 9.296875 -74.515625 C 9.296875 -80.972656 11.863281 -86.90625 17 -92.3125 C 22.53125 -98.363281 31.289062 -101.390625 43.28125 -101.390625 C 47.5 -101.390625 51.453125 -100.894531 55.140625 -99.90625 C 58.835938 -98.925781 61.472656 -97.972656 63.046875 -97.046875 L 65.421875 -95.671875 L 59.09375 -75.5 C 56.0625 -78.53125 50.789062 -80.046875 43.28125 -80.046875 C 39.59375 -80.046875 36.859375 -79.519531 35.078125 -78.46875 C 33.304688 -77.414062 32.519531 -76.257812 32.71875 -75 C 32.914062 -73.75 33.015625 -72.664062 33.015625 -71.75 C 33.398438 -69.769531 35.335938 -67.957031 38.828125 -66.3125 C 42.328125 -64.664062 46.316406 -63.050781 50.796875 -61.46875 C 55.273438 -59.882812 59.753906 -57.90625 64.234375 -55.53125 C 68.710938 -53.164062 72.5 -49.609375 75.59375 -44.859375 C 78.695312 -40.117188 80.25 -34.457031 80.25 -27.875 C 80.25 -19.300781 77.148438 -12.015625 70.953125 -6.015625 C 64.765625 -0.0234375 55.675781 2.96875 43.6875 2.96875 C 32.476562 2.96875 23.644531 0.265625 17.1875 -5.140625 C 10.738281 -10.546875 7.378906 -17.203125 7.109375 -25.109375 Z M 7.109375 -25.109375 "/></g></g></g><g fill="#00ffff" fill-opacity="1"><g transform="translate(283.244009, 265.186778)"><g><path d="M 83.40625 -58.90625 L 83.40625 0 C 69.707031 1.3125 58.769531 1.96875 50.59375 1.96875 C 46.90625 1.96875 43.8125 1.835938 41.3125 1.578125 C 19.695312 -0.785156 8.363281 -11.523438 7.3125 -30.640625 C 7.3125 -31.554688 7.3125 -32.476562 7.3125 -33.40625 L 7.3125 -49.8125 C 7.3125 -62.851562 11.859375 -71.613281 20.953125 -76.09375 C 24.773438 -78.207031 29.125 -79.265625 34 -79.265625 C 34.789062 -79.265625 35.515625 -79.195312 36.171875 -79.0625 C 41.972656 -78.800781 46.976562 -78.109375 51.1875 -76.984375 C 55.40625 -75.867188 58.898438 -74.519531 61.671875 -72.9375 C 61.671875 -81.363281 54.617188 -85.578125 40.515625 -85.578125 L 42.296875 -100.609375 C 47.304688 -100.609375 51.816406 -100.3125 55.828125 -99.71875 C 59.847656 -99.125 63.242188 -98.132812 66.015625 -96.75 C 68.785156 -95.363281 71.222656 -93.945312 73.328125 -92.5 C 75.441406 -91.050781 77.085938 -89.140625 78.265625 -86.765625 C 79.453125 -84.398438 80.441406 -82.328125 81.234375 -80.546875 C 82.023438 -78.765625 82.550781 -76.359375 82.8125 -73.328125 C 83.082031 -70.296875 83.25 -67.921875 83.3125 -66.203125 C 83.375 -64.492188 83.40625 -62.0625 83.40625 -58.90625 Z M 61.671875 -19.171875 L 61.671875 -49.8125 C 59.554688 -51.257812 56.816406 -52.609375 53.453125 -53.859375 C 50.097656 -55.109375 46.507812 -56.066406 42.6875 -56.734375 C 41.632812 -56.859375 40.582031 -56.921875 39.53125 -56.921875 C 37.15625 -56.921875 35.046875 -56.394531 33.203125 -55.34375 C 30.566406 -53.757812 29.25 -50.992188 29.25 -47.046875 L 29.25 -36.171875 C 29.25 -24.046875 36.234375 -17.984375 50.203125 -17.984375 C 53.628906 -17.984375 57.453125 -18.378906 61.671875 -19.171875 Z M 61.671875 -19.171875 "/></g></g></g><g fill="#00ffff" fill-opacity="1"><g transform="translate(369.814422, 265.186778)"><g><path d="M 94.078125 0 L 66.8125 0 L 37.15625 -50.203125 L 34.390625 -47.4375 L 34.390625 0 L 12.65625 0 L 12.65625 -138.359375 L 34.390625 -138.359375 L 34.390625 -75.5 L 63.84375 -102.78125 L 79.859375 -87.5625 L 53.953125 -65.625 C 73.191406 -33.863281 86.566406 -11.988281 94.078125 0 Z M 94.078125 0 "/></g></g></g><g fill="#00ffff" fill-opacity="1"><g transform="translate(459.547253, 265.186778)"><g><path d="M 80.84375 0 L 60.484375 0 L 59.09375 -1.1875 C 53.164062 1.050781 48.226562 2.171875 44.28125 2.171875 C 19.5 2.171875 7.109375 -9.882812 7.109375 -34 L 7.109375 -99.03125 L 28.859375 -99.03125 L 28.859375 -37.15625 C 28.859375 -31.09375 29.941406 -26.613281 32.109375 -23.71875 C 34.285156 -20.820312 38.335938 -19.375 44.265625 -19.375 C 50.203125 -19.375 54.15625 -20.988281 56.125 -24.21875 C 58.101562 -27.445312 59.09375 -32.023438 59.09375 -37.953125 L 59.09375 -99.03125 L 80.84375 -99.03125 Z M 80.84375 0 "/></g></g></g><g fill="#00ffff" fill-opacity="1"><g transform="translate(543.943524, 265.186778)"><g><path d="M 33.796875 0 L 12.0625 0 L 12.0625 -99.03125 L 32.21875 -99.03125 L 33.796875 -98.234375 C 38.148438 -99.679688 42.566406 -100.472656 47.046875 -100.609375 C 48.492188 -100.609375 49.8125 -100.609375 51 -100.609375 C 53.5 -100.609375 55.34375 -100.539062 56.53125 -100.40625 C 58.375 -100.144531 62 -99.421875 67.40625 -98.234375 L 62.265625 -77.078125 C 58.578125 -78.929688 55.019531 -79.859375 51.59375 -79.859375 C 48.6875 -79.859375 45.851562 -79.265625 43.09375 -78.078125 C 36.894531 -75.304688 33.796875 -70.492188 33.796875 -63.640625 Z M 33.796875 0 "/></g></g></g><g fill="#00ffff" fill-opacity="1"><g transform="translate(615.097301, 265.186778)"><g><path d="M 83.40625 -58.90625 L 83.40625 0 C 69.707031 1.3125 58.769531 1.96875 50.59375 1.96875 C 46.90625 1.96875 43.8125 1.835938 41.3125 1.578125 C 19.695312 -0.785156 8.363281 -11.523438 7.3125 -30.640625 C 7.3125 -31.554688 7.3125 -32.476562 7.3125 -33.40625 L 7.3125 -49.8125 C 7.3125 -62.851562 11.859375 -71.613281 20.953125 -76.09375 C 24.773438 -78.207031 29.125 -79.265625 34 -79.265625 C 34.789062 -79.265625 35.515625 -79.195312 36.171875 -79.0625 C 41.972656 -78.800781 46.976562 -78.109375 51.1875 -76.984375 C 55.40625 -75.867188 58.898438 -74.519531 61.671875 -72.9375 C 61.671875 -81.363281 54.617188 -85.578125 40.515625 -85.578125 L 42.296875 -100.609375 C 47.304688 -100.609375 51.816406 -100.3125 55.828125 -99.71875 C 59.847656 -99.125 63.242188 -98.132812 66.015625 -96.75 C 68.785156 -95.363281 71.222656 -93.945312 73.328125 -92.5 C 75.441406 -91.050781 77.085938 -89.140625 78.265625 -86.765625 C 79.453125 -84.398438 80.441406 -82.328125 81.234375 -80.546875 C 82.023438 -78.765625 82.550781 -76.359375 82.8125 -73.328125 C 83.082031 -70.296875 83.25 -67.921875 83.3125 -66.203125 C 83.375 -64.492188 83.40625 -62.0625 83.40625 -58.90625 Z M 61.671875 -19.171875 L 61.671875 -49.8125 C 59.554688 -51.257812 56.816406 -52.609375 53.453125 -53.859375 C 50.097656 -55.109375 46.507812 -56.066406 42.6875 -56.734375 C 41.632812 -56.859375 40.582031 -56.921875 39.53125 -56.921875 C 37.15625 -56.921875 35.046875 -56.394531 33.203125 -55.34375 C 30.566406 -53.757812 29.25 -50.992188 29.25 -47.046875 L 29.25 -36.171875 C 29.25 -24.046875 36.234375 -17.984375 50.203125 -17.984375 C 53.628906 -17.984375 57.453125 -18.378906 61.671875 -19.171875 Z M 61.671875 -19.171875 "/></g></g></g><g fill="#000000" fill-opacity="1"><g transform="translate(206.268027, 265.93756)"><g><path d="M 7.109375 -25.109375 L 28.859375 -27.28125 C 28.859375 -24.90625 30.078125 -22.660156 32.515625 -20.546875 C 34.953125 -18.441406 38.675781 -17.390625 43.6875 -17.390625 C 48.03125 -17.390625 51.382812 -18.476562 53.75 -20.65625 C 56.125 -22.832031 57.3125 -25.367188 57.3125 -28.265625 C 57.3125 -32.085938 55.765625 -35.148438 52.671875 -37.453125 C 49.578125 -39.765625 45.789062 -41.609375 41.3125 -42.984375 C 36.832031 -44.367188 32.316406 -45.953125 27.765625 -47.734375 C 23.222656 -49.515625 19.203125 -52.445312 15.703125 -56.53125 C 12.210938 -60.613281 10.140625 -65.816406 9.484375 -72.140625 C 9.359375 -72.929688 9.296875 -73.722656 9.296875 -74.515625 C 9.296875 -80.972656 11.863281 -86.90625 17 -92.3125 C 22.53125 -98.363281 31.289062 -101.390625 43.28125 -101.390625 C 47.5 -101.390625 51.453125 -100.894531 55.140625 -99.90625 C 58.835938 -98.925781 61.472656 -97.972656 63.046875 -97.046875 L 65.421875 -95.671875 L 59.09375 -75.5 C 56.0625 -78.53125 50.789062 -80.046875 43.28125 -80.046875 C 39.59375 -80.046875 36.859375 -79.519531 35.078125 -78.46875 C 33.304688 -77.414062 32.519531 -76.257812 32.71875 -75 C 32.914062 -73.75 33.015625 -72.664062 33.015625 -71.75 C 33.398438 -69.769531 35.335938 -67.957031 38.828125 -66.3125 C 42.328125 -64.664062 46.316406 -63.050781 50.796875 -61.46875 C 55.273438 -59.882812 59.753906 -57.90625 64.234375 -55.53125 C 68.710938 -53.164062 72.5 -49.609375 75.59375 -44.859375 C 78.695312 -40.117188 80.25 -34.457031 80.25 -27.875 C 80.25 -19.300781 77.148438 -12.015625 70.953125 -6.015625 C 64.765625 -0.0234375 55.675781 2.96875 43.6875 2.96875 C 32.476562 2.96875 23.644531 0.265625 17.1875 -5.140625 C 10.738281 -10.546875 7.378906 -17.203125 7.109375 -25.109375 Z M 7.109375 -25.109375 "/></g></g></g><g fill="#000000" fill-opacity="1"><g transform="translate(287.501914, 265.93756)"><g><path d="M 83.40625 -58.90625 L 83.40625 0 C 69.707031 1.3125 58.769531 1.96875 50.59375 1.96875 C 46.90625 1.96875 43.8125 1.835938 41.3125 1.578125 C 19.695312 -0.785156 8.363281 -11.523438 7.3125 -30.640625 C 7.3125 -31.554688 7.3125 -32.476562 7.3125 -33.40625 L 7.3125 -49.8125 C 7.3125 -62.851562 11.859375 -71.613281 20.953125 -76.09375 C 24.773438 -78.207031 29.125 -79.265625 34 -79.265625 C 34.789062 -79.265625 35.515625 -79.195312 36.171875 -79.0625 C 41.972656 -78.800781 46.976562 -78.109375 51.1875 -76.984375 C 55.40625 -75.867188 58.898438 -74.519531 61.671875 -72.9375 C 61.671875 -81.363281 54.617188 -85.578125 40.515625 -85.578125 L 42.296875 -100.609375 C 47.304688 -100.609375 51.816406 -100.3125 55.828125 -99.71875 C 59.847656 -99.125 63.242188 -98.132812 66.015625 -96.75 C 68.785156 -95.363281 71.222656 -93.945312 73.328125 -92.5 C 75.441406 -91.050781 77.085938 -89.140625 78.265625 -86.765625 C 79.453125 -84.398438 80.441406 -82.328125 81.234375 -80.546875 C 82.023438 -78.765625 82.550781 -76.359375 82.8125 -73.328125 C 83.082031 -70.296875 83.25 -67.921875 83.3125 -66.203125 C 83.375 -64.492188 83.40625 -62.0625 83.40625 -58.90625 Z M 61.671875 -19.171875 L 61.671875 -49.8125 C 59.554688 -51.257812 56.816406 -52.609375 53.453125 -53.859375 C 50.097656 -55.109375 46.507812 -56.066406 42.6875 -56.734375 C 41.632812 -56.859375 40.582031 -56.921875 39.53125 -56.921875 C 37.15625 -56.921875 35.046875 -56.394531 33.203125 -55.34375 C 30.566406 -53.757812 29.25 -50.992188 29.25 -47.046875 L 29.25 -36.171875 C 29.25 -24.046875 36.234375 -17.984375 50.203125 -17.984375 C 53.628906 -17.984375 57.453125 -18.378906 61.671875 -19.171875 Z M 61.671875 -19.171875 "/></g></g></g><g fill="#000000" fill-opacity="1"><g transform="translate(374.072327, 265.93756)"><g><path d="M 94.078125 0 L 66.8125 0 L 37.15625 -50.203125 L 34.390625 -47.4375 L 34.390625 0 L 12.65625 0 L 12.65625 -138.359375 L 34.390625 -138.359375 L 34.390625 -75.5 L 63.84375 -102.78125 L 79.859375 -87.5625 L 53.953125 -65.625 C 73.191406 -33.863281 86.566406 -11.988281 94.078125 0 Z M 94.078125 0 "/></g></g></g><g fill="#000000" fill-opacity="1"><g transform="translate(463.805157, 265.93756)"><g><path d="M 80.84375 0 L 60.484375 0 L 59.09375 -1.1875 C 53.164062 1.050781 48.226562 2.171875 44.28125 2.171875 C 19.5 2.171875 7.109375 -9.882812 7.109375 -34 L 7.109375 -99.03125 L 28.859375 -99.03125 L 28.859375 -37.15625 C 28.859375 -31.09375 29.941406 -26.613281 32.109375 -23.71875 C 34.285156 -20.820312 38.335938 -19.375 44.265625 -19.375 C 50.203125 -19.375 54.15625 -20.988281 56.125 -24.21875 C 58.101562 -27.445312 59.09375 -32.023438 59.09375 -37.953125 L 59.09375 -99.03125 L 80.84375 -99.03125 Z M 80.84375 0 "/></g></g></g><g fill="#000000" fill-opacity="1"><g transform="translate(548.201428, 265.93756)"><g><path d="M 33.796875 0 L 12.0625 0 L 12.0625 -99.03125 L 32.21875 -99.03125 L 33.796875 -98.234375 C 38.148438 -99.679688 42.566406 -100.472656 47.046875 -100.609375 C 48.492188 -100.609375 49.8125 -100.609375 51 -100.609375 C 53.5 -100.609375 55.34375 -100.539062 56.53125 -100.40625 C 58.375 -100.144531 62 -99.421875 67.40625 -98.234375 L 62.265625 -77.078125 C 58.578125 -78.929688 55.019531 -79.859375 51.59375 -79.859375 C 48.6875 -79.859375 45.851562 -79.265625 43.09375 -78.078125 C 36.894531 -75.304688 33.796875 -70.492188 33.796875 -63.640625 Z M 33.796875 0 "/></g></g></g><g fill="#000000" fill-opacity="1"><g transform="translate(619.355206, 265.93756)"><g><path d="M 83.40625 -58.90625 L 83.40625 0 C 69.707031 1.3125 58.769531 1.96875 50.59375 1.96875 C 46.90625 1.96875 43.8125 1.835938 41.3125 1.578125 C 19.695312 -0.785156 8.363281 -11.523438 7.3125 -30.640625 C 7.3125 -31.554688 7.3125 -32.476562 7.3125 -33.40625 L 7.3125 -49.8125 C 7.3125 -62.851562 11.859375 -71.613281 20.953125 -76.09375 C 24.773438 -78.207031 29.125 -79.265625 34 -79.265625 C 34.789062 -79.265625 35.515625 -79.195312 36.171875 -79.0625 C 41.972656 -78.800781 46.976562 -78.109375 51.1875 -76.984375 C 55.40625 -75.867188 58.898438 -74.519531 61.671875 -72.9375 C 61.671875 -81.363281 54.617188 -85.578125 40.515625 -85.578125 L 42.296875 -100.609375 C 47.304688 -100.609375 51.816406 -100.3125 55.828125 -99.71875 C 59.847656 -99.125 63.242188 -98.132812 66.015625 -96.75 C 68.785156 -95.363281 71.222656 -93.945312 73.328125 -92.5 C 75.441406 -91.050781 77.085938 -89.140625 78.265625 -86.765625 C 79.453125 -84.398438 80.441406 -82.328125 81.234375 -80.546875 C 82.023438 -78.765625 82.550781 -76.359375 82.8125 -73.328125 C 83.082031 -70.296875 83.25 -67.921875 83.3125 -66.203125 C 83.375 -64.492188 83.40625 -62.0625 83.40625 -58.90625 Z M 61.671875 -19.171875 L 61.671875 -49.8125 C 59.554688 -51.257812 56.816406 -52.609375 53.453125 -53.859375 C 50.097656 -55.109375 46.507812 -56.066406 42.6875 -56.734375 C 41.632812 -56.859375 40.582031 -56.921875 39.53125 -56.921875 C 37.15625 -56.921875 35.046875 -56.394531 33.203125 -55.34375 C 30.566406 -53.757812 29.25 -50.992188 29.25 -47.046875 L 29.25 -36.171875 C 29.25 -24.046875 36.234375 -17.984375 50.203125 -17.984375 C 53.628906 -17.984375 57.453125 -18.378906 61.671875 -19.171875 Z M 61.671875 -19.171875 "/></g></g></g><g clip-path="url(#id22)"><g clip-path="url(#id23)"><g clip-path="url(#id24)"><path fill="#00ffff" d="M 310.75 93.863281 C 310.128906 92.691406 308.839844 92.027344 307.523438 92.207031 L 301.464844 93.03125 L 303.460938 86.761719 C 303.84375 85.554688 303.472656 84.238281 302.511719 83.410156 C 294.238281 76.253906 283.363281 76.078125 274.804688 82.964844 C 272.867188 84.523438 270.6875 86.9375 268.511719 89.847656 C 268.390625 84.636719 267.761719 79.902344 266.679688 76.726562 C 263.269531 66.722656 253.636719 61.019531 242.707031 62.53125 C 241.394531 62.714844 240.332031 63.699219 240.050781 64.996094 L 238.753906 70.972656 L 233.542969 66.953125 C 232.539062 66.179688 231.171875 66.078125 230.066406 66.695312 C 220.511719 72.023438 216.628906 82.1875 220.175781 92.582031 C 221.253906 95.75 223.640625 99.867188 226.714844 104.054688 C 223.246094 103.09375 220.070312 102.519531 217.601562 102.472656 C 206.621094 102.246094 198.117188 109.027344 195.9375 119.75 C 195.683594 120.988281 196.195312 122.261719 197.238281 122.984375 L 202.644531 126.726562 L 197.34375 129.777344 C 196.195312 130.4375 195.578125 131.75 195.804688 133.058594 C 197.675781 143.929688 206.035156 151.378906 216.597656 151.59375 C 218.785156 151.640625 221.546875 151.296875 224.589844 150.648438 C 223.234375 152.75 222.167969 154.726562 221.507812 156.433594 C 217.542969 166.675781 221.003906 176.988281 230.332031 182.703125 C 231.414062 183.363281 232.785156 183.320312 233.816406 182.585938 L 239.1875 178.785156 L 240.238281 184.808594 C 240.46875 186.117188 241.488281 187.144531 242.796875 187.378906 C 246.941406 188.125 250.9375 187.816406 254.511719 186.597656 C 260.296875 184.625 264.96875 180.269531 267.328125 174.179688 C 268.5 171.148438 269.308594 166.636719 269.660156 161.628906 C 273 165.375 276.394531 168.457031 279.175781 170.140625 C 284.765625 173.519531 291.121094 174.113281 296.90625 172.140625 C 300.480469 170.921875 303.835938 168.726562 306.660156 165.601562 C 307.550781 164.617188 307.734375 163.179688 307.113281 162.003906 L 304.269531 156.59375 L 310.839844 156.324219 C 312.105469 156.273438 313.21875 155.46875 313.671875 154.285156 C 317.5625 144.0625 314.007812 133.785156 304.609375 128.097656 C 303.046875 127.152344 301 126.238281 298.644531 125.40625 C 301.476562 124.050781 303.894531 122.625 305.613281 121.242188 C 313.84375 114.617188 315.90625 103.617188 310.75 93.863281 Z M 310.75 93.863281 " fill-opacity="1" fill-rule="nonzero"/></g></g></g><g clip-path="url(#id25)"><g clip-path="url(#id26)"><g clip-path="url(#id27)"><path fill="#ffffff" d="M 279.851562 106.738281 C 277.199219 105.433594 273.980469 106.53125 272.675781 109.183594 C 272.308594 109.933594 272.136719 110.730469 272.132812 111.511719 L 266.429688 115.414062 C 263.582031 113.148438 259.90625 112.023438 256.183594 112.417969 L 252.800781 102.5 C 253.742188 101.144531 254.058594 99.378906 253.488281 97.703125 C 252.53125 94.902344 249.480469 93.402344 246.679688 94.355469 C 243.878906 95.308594 242.378906 98.363281 243.335938 101.164062 C 243.90625 102.839844 245.234375 104.046875 246.808594 104.542969 L 250.199219 114.484375 C 247.058594 116.453125 244.871094 119.5625 244.007812 123.0625 L 234.792969 123.578125 C 233.414062 121.902344 231.09375 121.160156 228.925781 121.902344 C 226.125 122.855469 224.625 125.910156 225.578125 128.707031 C 226.53125 131.507812 229.585938 133.007812 232.386719 132.054688 C 233.566406 131.652344 234.511719 130.871094 235.144531 129.898438 L 243.925781 129.410156 C 244.039062 129.921875 244.179688 130.429688 244.351562 130.9375 C 245.40625 134.035156 247.449219 136.527344 250.003906 138.183594 L 247.308594 146.78125 C 247.308594 146.78125 247.304688 146.78125 247.304688 146.78125 C 244.503906 147.734375 243.003906 150.789062 243.960938 153.589844 C 244.914062 156.386719 247.96875 157.886719 250.765625 156.933594 C 253.566406 155.980469 255.066406 152.925781 254.113281 150.128906 C 253.929688 149.59375 253.667969 149.105469 253.351562 148.675781 L 255.957031 140.355469 C 258 140.609375 260.125 140.417969 262.199219 139.710938 C 264.261719 139.003906 266.058594 137.867188 267.515625 136.429688 L 275.011719 141.628906 C 275.0625 143.554688 276.15625 145.394531 278.003906 146.304688 C 279.332031 146.953125 280.800781 147.007812 282.097656 146.5625 C 283.398438 146.121094 284.53125 145.183594 285.179688 143.855469 C 285.8125 142.570312 285.90625 141.117188 285.445312 139.757812 C 284.984375 138.402344 284.019531 137.308594 282.738281 136.675781 C 282.738281 136.675781 282.738281 136.675781 282.734375 136.675781 C 282.734375 136.675781 282.734375 136.675781 282.730469 136.675781 C 281.445312 136.042969 279.992188 135.949219 278.636719 136.414062 C 278.628906 136.414062 278.625 136.417969 278.617188 136.421875 L 270.910156 131.082031 C 271.933594 128.199219 272.03125 124.972656 270.972656 121.859375 C 270.796875 121.351562 270.59375 120.863281 270.371094 120.386719 L 275.835938 116.648438 C 276.933594 117.003906 278.109375 117.003906 279.21875 116.625 C 280.574219 116.164062 281.671875 115.199219 282.300781 113.917969 C 282.933594 112.632812 283.027344 111.175781 282.5625 109.820312 C 282.101562 108.464844 281.140625 107.367188 279.851562 106.738281 Z M 279.851562 106.738281 " fill-opacity="1" fill-rule="nonzero"/></g></g></g><g clip-path="url(#id28)"><g clip-path="url(#id29)"><g clip-path="url(#id30)"><path fill="#ff00ff" d="M 316.359375 96.058594 C 315.738281 94.886719 314.449219 94.222656 313.136719 94.402344 L 307.078125 95.226562 L 309.070312 88.960938 C 309.457031 87.753906 309.082031 86.433594 308.125 85.605469 C 299.847656 78.449219 288.972656 78.277344 280.417969 85.164062 C 278.480469 86.71875 276.300781 89.136719 274.125 92.042969 C 274.003906 86.832031 273.375 82.097656 272.292969 78.921875 C 268.882812 68.917969 259.25 63.214844 248.320312 64.730469 C 247.003906 64.910156 245.941406 65.894531 245.660156 67.191406 L 244.363281 73.167969 L 239.15625 69.148438 C 238.152344 68.375 236.785156 68.273438 235.679688 68.890625 C 226.125 74.21875 222.242188 84.382812 225.785156 94.777344 C 226.867188 97.945312 229.25 102.0625 232.324219 106.25 C 228.855469 105.289062 225.679688 104.71875 223.214844 104.667969 C 212.234375 104.441406 203.726562 111.222656 201.546875 121.945312 C 201.296875 123.1875 201.808594 124.457031 202.847656 125.179688 L 208.257812 128.921875 L 202.957031 131.972656 C 201.804688 132.632812 201.191406 133.945312 201.414062 135.253906 C 203.289062 146.125 211.644531 153.574219 222.210938 153.792969 C 224.398438 153.835938 227.160156 153.492188 230.203125 152.84375 C 228.84375 154.945312 227.78125 156.921875 227.121094 158.628906 C 223.152344 168.871094 226.617188 179.183594 235.945312 184.898438 C 237.023438 185.558594 238.394531 185.515625 239.429688 184.78125 L 244.796875 180.980469 L 245.851562 187.003906 C 246.078125 188.3125 247.097656 189.339844 248.40625 189.574219 C 252.550781 190.320312 256.550781 190.011719 260.125 188.792969 C 265.910156 186.820312 270.578125 182.464844 272.9375 176.375 C 274.113281 173.34375 274.917969 168.832031 275.273438 163.824219 C 278.609375 167.574219 282.003906 170.652344 284.789062 172.335938 C 290.378906 175.714844 296.734375 176.3125 302.519531 174.335938 C 306.09375 173.117188 309.449219 170.921875 312.273438 167.796875 C 313.164062 166.8125 313.34375 165.375 312.726562 164.199219 L 309.878906 158.789062 L 316.453125 158.519531 C 317.71875 158.46875 318.832031 157.667969 319.28125 156.484375 C 323.175781 146.257812 319.617188 135.980469 310.21875 130.292969 C 308.65625 129.347656 306.613281 128.4375 304.257812 127.601562 C 307.085938 126.246094 309.507812 124.820312 311.222656 123.441406 C 319.453125 116.816406 321.519531 105.8125 316.359375 96.058594 Z M 316.359375 96.058594 " fill-opacity="1" fill-rule="nonzero"/></g></g></g><g clip-path="url(#id31)"><g clip-path="url(#id32)"><g clip-path="url(#id33)"><path fill="#ffffff" d="M 285.464844 108.933594 C 282.808594 107.628906 279.589844 108.726562 278.289062 111.382812 C 277.917969 112.128906 277.75 112.925781 277.746094 113.707031 L 272.039062 117.609375 C 269.195312 115.347656 265.519531 114.21875 261.792969 114.613281 L 258.414062 104.695312 C 259.355469 103.339844 259.671875 101.574219 259.097656 99.898438 C 258.144531 97.097656 255.089844 95.597656 252.292969 96.550781 C 249.492188 97.507812 247.992188 100.558594 248.945312 103.359375 C 249.519531 105.035156 250.847656 106.242188 252.421875 106.738281 L 255.808594 116.679688 C 252.667969 118.648438 250.480469 121.761719 249.621094 125.257812 L 240.40625 125.773438 C 239.027344 124.097656 236.707031 123.355469 234.535156 124.097656 C 231.738281 125.050781 230.234375 128.105469 231.191406 130.902344 C 232.144531 133.703125 235.199219 135.203125 237.996094 134.25 C 239.179688 133.847656 240.125 133.066406 240.757812 132.09375 L 249.539062 131.605469 C 249.652344 132.117188 249.789062 132.628906 249.964844 133.132812 C 251.019531 136.234375 253.058594 138.722656 255.617188 140.378906 L 252.921875 148.976562 C 252.917969 148.976562 252.917969 148.976562 252.917969 148.976562 C 250.117188 149.933594 248.617188 152.984375 249.570312 155.785156 C 250.523438 158.582031 253.578125 160.085938 256.378906 159.128906 C 259.175781 158.175781 260.679688 155.121094 259.722656 152.324219 C 259.542969 151.789062 259.28125 151.300781 258.960938 150.871094 L 261.570312 142.550781 C 263.609375 142.804688 265.738281 142.613281 267.8125 141.90625 C 269.875 141.203125 271.667969 140.0625 273.125 138.625 L 280.625 143.824219 C 280.675781 145.753906 281.765625 147.589844 283.617188 148.5 C 284.945312 149.152344 286.410156 149.203125 287.710938 148.757812 C 289.011719 148.316406 290.140625 147.378906 290.792969 146.054688 C 291.425781 144.765625 291.519531 143.3125 291.054688 141.953125 C 290.59375 140.597656 289.632812 139.503906 288.347656 138.871094 C 288.34375 138.871094 288.34375 138.871094 288.34375 138.871094 C 287.058594 138.238281 285.605469 138.148438 284.25 138.609375 C 284.242188 138.613281 284.234375 138.613281 284.226562 138.617188 L 276.523438 133.277344 C 277.542969 130.394531 277.644531 127.167969 276.582031 124.058594 C 276.410156 123.546875 276.207031 123.058594 275.984375 122.582031 L 281.449219 118.84375 C 282.546875 119.203125 283.71875 119.203125 284.832031 118.824219 C 286.1875 118.359375 287.28125 117.398438 287.914062 116.113281 C 288.546875 114.828125 288.640625 113.371094 288.175781 112.015625 C 287.714844 110.660156 286.75 109.5625 285.464844 108.933594 Z M 285.464844 108.933594 " fill-opacity="1" fill-rule="nonzero"/></g></g></g><g clip-path="url(#id34)"><g clip-path="url(#id35)"><g clip-path="url(#id36)"><path fill="#ff7ccc" d="M 314.164062 93.863281 C 313.542969 92.691406 312.253906 92.027344 310.9375 92.207031 L 304.878906 93.03125 L 306.875 86.761719 C 307.257812 85.554688 306.886719 84.238281 305.929688 83.410156 C 297.652344 76.253906 286.777344 76.078125 278.21875 82.964844 C 276.285156 84.523438 274.101562 86.9375 271.925781 89.847656 C 271.804688 84.636719 271.179688 79.902344 270.097656 76.726562 C 266.6875 66.722656 257.050781 61.019531 246.125 62.53125 C 244.808594 62.714844 243.746094 63.699219 243.464844 64.996094 L 242.167969 70.972656 L 236.957031 66.953125 C 235.957031 66.179688 234.589844 66.078125 233.484375 66.695312 C 223.929688 72.023438 220.046875 82.1875 223.589844 92.582031 C 224.671875 95.75 227.054688 99.867188 230.128906 104.054688 C 226.660156 103.09375 223.484375 102.519531 221.019531 102.472656 C 210.039062 102.246094 201.53125 109.027344 199.351562 119.75 C 199.097656 120.988281 199.609375 122.261719 200.652344 122.984375 L 206.0625 126.726562 L 200.761719 129.777344 C 199.609375 130.4375 198.992188 131.75 199.21875 133.058594 C 201.09375 143.929688 209.449219 151.378906 220.011719 151.59375 C 222.199219 151.640625 224.964844 151.296875 228.007812 150.648438 C 226.648438 152.75 225.585938 154.726562 224.925781 156.433594 C 220.957031 166.675781 224.421875 176.988281 233.75 182.703125 C 234.828125 183.363281 236.199219 183.320312 237.234375 182.585938 L 242.601562 178.785156 L 243.652344 184.808594 C 243.882812 186.117188 244.902344 187.144531 246.210938 187.378906 C 250.355469 188.125 254.355469 187.816406 257.929688 186.597656 C 263.714844 184.625 268.382812 180.269531 270.742188 174.179688 C 271.917969 171.148438 272.722656 166.636719 273.078125 161.628906 C 276.414062 165.375 279.808594 168.457031 282.589844 170.140625 C 288.179688 173.519531 294.535156 174.113281 300.324219 172.140625 C 303.894531 170.921875 307.253906 168.726562 310.078125 165.601562 C 310.96875 164.617188 311.148438 163.179688 310.53125 162.003906 L 307.683594 156.59375 L 314.257812 156.324219 C 315.523438 156.273438 316.636719 155.46875 317.085938 154.285156 C 320.980469 144.0625 317.421875 133.785156 308.023438 128.097656 C 306.460938 127.152344 304.417969 126.238281 302.0625 125.40625 C 304.890625 124.050781 307.3125 122.625 309.027344 121.242188 C 317.257812 114.617188 319.324219 103.617188 314.164062 93.863281 Z M 314.164062 93.863281 " fill-opacity="1" fill-rule="nonzero"/></g></g></g><g clip-path="url(#id37)"><g clip-path="url(#id38)"><g clip-path="url(#id39)"><path fill="#ffffff" d="M 283.269531 106.738281 C 280.613281 105.433594 277.394531 106.53125 276.089844 109.183594 C 275.722656 109.933594 275.550781 110.730469 275.546875 111.511719 L 269.84375 115.414062 C 266.996094 113.148438 263.324219 112.023438 259.597656 112.417969 L 256.214844 102.5 C 257.160156 101.144531 257.472656 99.378906 256.902344 97.703125 C 255.949219 94.902344 252.894531 93.402344 250.09375 94.355469 C 247.296875 95.308594 245.796875 98.363281 246.75 101.164062 C 247.320312 102.839844 248.648438 104.046875 250.222656 104.542969 L 253.613281 114.484375 C 250.472656 116.453125 248.285156 119.5625 247.425781 123.0625 L 238.210938 123.578125 C 236.832031 121.902344 234.511719 121.160156 232.339844 121.902344 C 229.539062 122.855469 228.039062 125.910156 228.996094 128.707031 C 229.949219 131.507812 233.003906 133.007812 235.800781 132.054688 C 236.984375 131.652344 237.929688 130.871094 238.558594 129.898438 L 247.34375 129.410156 C 247.453125 129.921875 247.59375 130.429688 247.765625 130.9375 C 248.824219 134.035156 250.863281 136.527344 253.417969 138.183594 L 250.726562 146.78125 C 250.722656 146.78125 250.722656 146.78125 250.71875 146.78125 C 247.921875 147.734375 246.421875 150.789062 247.375 153.589844 C 248.328125 156.386719 251.382812 157.886719 254.183594 156.933594 C 256.980469 155.980469 258.480469 152.925781 257.527344 150.128906 C 257.34375 149.59375 257.085938 149.105469 256.765625 148.675781 L 259.371094 140.355469 C 261.414062 140.609375 263.542969 140.417969 265.613281 139.710938 C 267.679688 139.003906 269.472656 137.867188 270.929688 136.429688 L 278.425781 141.628906 C 278.480469 143.554688 279.570312 145.394531 281.421875 146.304688 C 282.746094 146.953125 284.214844 147.007812 285.515625 146.5625 C 286.8125 146.121094 287.945312 145.183594 288.597656 143.855469 C 289.230469 142.570312 289.324219 141.117188 288.859375 139.757812 C 288.398438 138.402344 287.4375 137.308594 286.152344 136.675781 C 286.152344 136.675781 286.152344 136.675781 286.148438 136.675781 C 284.863281 136.042969 283.410156 135.949219 282.054688 136.414062 C 282.046875 136.414062 282.039062 136.417969 282.03125 136.421875 L 274.328125 131.082031 C 275.347656 128.199219 275.445312 124.972656 274.386719 121.859375 C 274.214844 121.351562 274.011719 120.863281 273.785156 120.386719 L 279.253906 116.648438 C 280.347656 117.003906 281.523438 117.003906 282.632812 116.625 C 283.992188 116.164062 285.085938 115.199219 285.714844 113.917969 C 286.347656 112.632812 286.441406 111.175781 285.980469 109.820312 C 285.519531 108.464844 284.554688 107.367188 283.269531 106.738281 Z M 283.269531 106.738281 " fill-opacity="1" fill-rule="nonzero"/></g></g></g></svg>